<svg width="124" height="157" viewBox="0 0 124 157" fill="none" xmlns="http://www.w3.org/2000/svg">
<g clip-path="url(#clip0)">
<ellipse cx="61.5931" cy="69.3962" rx="32.5" ry="32.5416" fill="#CD2D32"/>
<ellipse cx="61.5931" cy="69.3962" rx="30.5" ry="30.539" fill="#373737"/>
<ellipse cx="61.593" cy="69.3962" rx="23.5" ry="23.5301" fill="white"/>
<ellipse cx="61.593" cy="69.3962" rx="21.5" ry="21.5275" fill="#CD2D32"/>
<path d="M67.6864 12.9402C68.8882 26.0978 64.0931 59.0846 64.0931 59.0846C64.0931 59.0846 62.9778 59.9068 60.901 60.1036C58.7067 60.3114 56.0366 60.0962 56.0366 60.0962C56.0366 60.0962 51.2655 36.9278 52.1244 20.6081C52.9833 4.2885 59.4395 0.921763 62.3291 0.625988C65.2188 0.330213 66.4846 -0.217405 67.6864 12.9402Z" fill="#373737"/>
<path d="M66.0317 16.4359C66.5154 28.7439 62.593 58.3584 62.593 58.3584C62.593 58.3584 62.2929 58.897 60.9027 58.8824C59.4338 58.867 57.8253 58.8824 57.8253 58.8824C57.8253 58.8824 54.2933 34.6232 55.2608 19.5801C56.2283 4.5369 61.0193 2.81121 62.9543 2.81105C64.8892 2.81089 65.5479 4.12783 66.0317 16.4359Z" fill="white"/>
<path d="M59.1942 23.3366C59.1083 34.8898 59.9188 56.3721 59.9188 56.3721C59.9188 56.3721 61.3599 56.8663 60.6001 56.8634C59.7973 56.8604 58.9186 56.8858 58.9186 56.8858C58.9186 56.8858 56.6167 35.8021 56.967 22.3649C57.3172 8.92761 61.0563 6.7892 61.0563 6.7892C61.0563 6.7892 59.2524 15.504 59.1942 23.3366Z" fill="#CD2D32"/>
<path d="M106.12 105.988C93.9806 100.146 67.0363 79.291 67.0363 79.291C67.0363 79.291 66.8098 77.9797 67.5647 76.2271C68.3623 74.3755 69.7456 72.3642 69.7456 72.3642C69.7456 72.3642 92.3083 80.5418 106.315 89.6563C120.322 98.7709 120.404 105.642 119.374 108.092C118.343 110.542 118.26 111.831 106.12 105.988Z" fill="#373737"/>
<path d="M103.698 102.851C92.7027 96.8989 68.5053 78.5492 68.5053 78.5492C68.5053 78.5492 68.1668 78.0344 68.7968 76.9409C69.4625 75.7855 70.1632 74.5038 70.1632 74.5038C70.1632 74.5038 92.9796 84.1937 105.726 92.703C118.473 101.212 117.857 105.895 116.998 107.427C116.139 108.959 114.693 108.803 103.698 102.851Z" fill="white"/>
<path d="M100.735 93.7246C90.7121 87.8061 71.6467 77.5579 71.6467 77.5579C71.6467 77.5579 70.5802 78.4314 70.9181 77.8404C71.2751 77.2159 71.6408 76.5177 71.6408 76.5177C71.6408 76.5177 91.0173 85.4011 102.564 92.4799C114.111 99.5587 114.323 103.558 114.323 103.558C114.323 103.558 107.53 97.737 100.735 93.7246Z" fill="#CD2D32"/>
<path d="M10.2369 92.2261C21.2486 84.4088 52.3315 71.0676 52.3315 71.0676C52.3315 71.0676 53.5495 71.5331 54.6467 73.095C55.8059 74.7452 56.8057 76.9971 56.8057 76.9971C56.8057 76.9971 38.5978 92.8901 23.8939 100.703C9.1899 108.516 3.36127 105.096 1.81531 102.934C0.269359 100.773 -0.774725 100.044 10.2369 92.2261Z" fill="#373737"/>
<path d="M14.0499 91.6775C24.6148 84.9598 52.2947 72.8259 52.2947 72.8259C52.2947 72.8259 52.8998 72.7864 53.5046 73.8954C54.1437 75.067 54.8717 76.3335 54.8717 76.3335C54.8717 76.3335 35.1937 91.617 21.5886 98.5926C7.98342 105.568 4.3436 102.661 3.48387 101.128C2.62415 99.5949 3.48495 98.3952 14.0499 91.6775Z" fill="white"/>
<path d="M23.2532 93.6089C33.3344 87.8016 51.6517 76.2435 51.6517 76.2435C51.6517 76.2435 51.446 74.8636 51.7784 75.4601C52.1297 76.0903 52.5392 76.7655 52.5392 76.7655C52.5392 76.7655 35.2259 89.2889 23.3904 95.8472C11.5549 102.406 8.04752 100.565 8.04752 100.565C8.04752 100.565 16.4186 97.546 23.2532 93.6089Z" fill="#CD2D32"/>
<ellipse cx="61.593" cy="69.3962" rx="13.5" ry="13.5173" fill="#373737"/>
<ellipse cx="61.593" cy="69.3962" rx="12.5" ry="12.516" fill="white"/>
<ellipse cx="61.593" cy="69.3962" rx="10.5" ry="10.5134" fill="#373737"/>
<ellipse cx="61.593" cy="69.3962" rx="9.5" ry="9.51216" fill="#CD2D32"/>
<ellipse cx="61.593" cy="69.3962" rx="6.5" ry="6.50832" fill="#373737"/>
<g opacity="0.2">
<path d="M19.1845 68.1461C19.3019 61.385 21.0231 54.7484 24.2063 48.7823C27.3895 42.8163 31.9439 37.6914 37.4947 33.8293" stroke="black" stroke-width="3" stroke-linecap="round" stroke-linejoin="bevel"/>
<path opacity="0.6" d="M12.4217 75.3029C11.054 64.7573 13.0924 54.0506 18.2393 44.7452C23.3861 35.4399 31.3722 28.0229 41.032 23.5768" stroke="black" stroke-width="3" stroke-linecap="round" stroke-linejoin="bevel"/>
<path opacity="0.2" d="M6.12289 80.3982C3.28012 66.6261 5.63421 52.2891 12.7317 40.1492C19.8292 28.0092 31.1679 18.925 44.5637 14.6466" stroke="black" stroke-width="3" stroke-linecap="round" stroke-linejoin="bevel"/>
</g>
<g opacity="0.2">
<path d="M84.9607 32.9469C90.6511 36.6001 95.3928 41.5522 98.7955 47.3958C102.198 53.2394 104.165 59.8075 104.533 66.5595" stroke="black" stroke-width="3" stroke-linecap="round" stroke-linejoin="bevel"/>
<path opacity="0.6" d="M82.426 23.4321C92.1166 27.8107 100.154 35.1717 105.366 44.4409C110.578 53.71 112.691 64.4022 111.397 74.9571" stroke="black" stroke-width="3" stroke-linecap="round" stroke-linejoin="bevel"/>
<path opacity="0.2" d="M81.4015 15.3954C94.6124 20.2148 105.573 29.7523 112.171 42.1707C118.769 54.589 120.538 69.0098 117.138 82.655" stroke="black" stroke-width="3" stroke-linecap="round" stroke-linejoin="bevel"/>
</g>
<g opacity="0.2">
<path d="M82.2633 106.423C76.3204 109.649 69.6963 111.418 62.9362 111.584C56.1761 111.75 49.4732 110.309 43.379 107.378" stroke="black" stroke-width="3" stroke-linecap="round" stroke-linejoin="bevel"/>
<path opacity="0.6" d="M91.8221 108.787C83.316 115.169 72.9931 118.665 62.3596 118.765C51.7262 118.866 41.3389 115.566 32.7136 109.346" stroke="black" stroke-width="3" stroke-linecap="round" stroke-linejoin="bevel"/>
<path opacity="0.2" d="M99.3579 111.761C88.7694 121.015 75.1311 126.024 61.0701 125.822C47.0091 125.62 33.5201 120.222 23.2017 110.668" stroke="black" stroke-width="3" stroke-linecap="round" stroke-linejoin="bevel"/>
</g>
<path d="M7.62 147.257L5.282 151.093H2.93L5.772 146.697C5.50133 146.585 5.23067 146.422 4.96 146.207C4.68933 145.983 4.46533 145.689 4.288 145.325C4.11067 144.952 4.022 144.495 4.022 143.953C4.022 143.029 4.35333 142.325 5.016 141.839C5.67867 141.345 6.60733 141.097 7.802 141.097H11.05V151.093H8.936V147.257H7.62ZM7.886 142.833C7.34467 142.833 6.92 142.931 6.612 143.127C6.31333 143.323 6.164 143.65 6.164 144.107C6.164 144.546 6.30867 144.896 6.598 145.157C6.89667 145.409 7.34467 145.535 7.942 145.535H8.936V142.833H7.886Z" fill="#CD2D32"/>
<path d="M22.9068 146.629V148.427H19.5435V146.629H22.9068ZM35.6414 151.093L33.2334 143.253H33.1774C33.1868 143.44 33.2008 143.72 33.2194 144.093C33.2381 144.467 33.2568 144.868 33.2754 145.297C33.2941 145.717 33.3034 146.1 33.3034 146.445V151.093H31.4134V141.097H34.2974L36.6634 148.741H36.7054L39.2114 141.097H42.0954V151.093H40.1214V146.361C40.1214 146.044 40.1261 145.68 40.1354 145.269C40.1541 144.859 40.1681 144.471 40.1774 144.107C40.1961 143.734 40.2101 143.454 40.2194 143.267H40.1634L37.5874 151.093H35.6414ZM55.1625 146.081C55.1625 147.117 54.9898 148.023 54.6445 148.797C54.3085 149.563 53.7905 150.16 53.0905 150.589C52.3905 151.019 51.4945 151.233 50.4025 151.233C49.3198 151.233 48.4238 151.019 47.7145 150.589C47.0145 150.16 46.4918 149.558 46.1465 148.783C45.8105 148.009 45.6425 147.103 45.6425 146.067C45.6425 145.031 45.8105 144.131 46.1465 143.365C46.4918 142.6 47.0145 142.007 47.7145 141.587C48.4238 141.158 49.3245 140.943 50.4165 140.943C51.4991 140.943 52.3905 141.158 53.0905 141.587C53.7905 142.007 54.3085 142.605 54.6445 143.379C54.9898 144.145 55.1625 145.045 55.1625 146.081ZM47.8685 146.081C47.8685 147.127 48.0691 147.953 48.4705 148.559C48.8718 149.157 49.5158 149.455 50.4025 149.455C51.3078 149.455 51.9565 149.157 52.3485 148.559C52.7405 147.953 52.9365 147.127 52.9365 146.081C52.9365 145.027 52.7405 144.201 52.3485 143.603C51.9565 143.006 51.3125 142.707 50.4165 142.707C49.5205 142.707 48.8718 143.006 48.4705 143.603C48.0691 144.201 47.8685 145.027 47.8685 146.081ZM66.2556 141.097V149.329H67.5856V154.005H65.5416V151.093H59.2836V154.005H57.2396V149.329H58.0096C58.3643 148.629 58.6956 147.883 59.0036 147.089C59.3116 146.287 59.5869 145.395 59.8296 144.415C60.0816 143.435 60.2823 142.329 60.4316 141.097H66.2556ZM62.1116 142.861C62.0276 143.505 61.8923 144.205 61.7056 144.961C61.5283 145.708 61.3136 146.459 61.0616 147.215C60.8096 147.962 60.5343 148.667 60.2356 149.329H64.1416V142.861H62.1116ZM76.345 151.093H70.591V141.097H76.345V142.833H72.705V145.031H76.093V146.767H72.705V149.343H76.345V151.093ZM87.805 151.093H85.691V142.861H83.241C83.185 143.291 83.1243 143.757 83.059 144.261C83.003 144.765 82.9377 145.279 82.863 145.801C82.7977 146.315 82.7277 146.805 82.653 147.271C82.5783 147.729 82.5037 148.135 82.429 148.489C82.3077 149.068 82.1443 149.563 81.939 149.973C81.743 150.384 81.4677 150.697 81.113 150.911C80.7677 151.126 80.315 151.233 79.755 151.233C79.391 151.233 79.055 151.182 78.747 151.079V149.343C78.8683 149.381 78.985 149.413 79.097 149.441C79.2183 149.469 79.349 149.483 79.489 149.483C79.7597 149.483 79.965 149.343 80.105 149.063C80.2543 148.774 80.4037 148.237 80.553 147.453C80.609 147.155 80.6883 146.688 80.791 146.053C80.8937 145.419 81.0057 144.677 81.127 143.827C81.2577 142.969 81.379 142.059 81.491 141.097H87.805V151.093ZM91.7966 141.097H93.7006V145.927C93.7006 146.161 93.696 146.422 93.6866 146.711C93.6773 147.001 93.668 147.285 93.6586 147.565C93.6493 147.836 93.64 148.074 93.6306 148.279C93.6213 148.475 93.612 148.611 93.6026 148.685H93.6446L98.2646 141.097H100.799V151.093H98.9086V146.291C98.9086 146.039 98.9133 145.764 98.9226 145.465C98.932 145.157 98.9413 144.863 98.9506 144.583C98.9693 144.303 98.9833 144.061 98.9926 143.855C99.0113 143.641 99.0253 143.501 99.0346 143.435H98.9786L94.3446 151.093H91.7966V141.097ZM109.034 142.721C108.222 142.721 107.601 143.025 107.172 143.631C106.743 144.238 106.528 145.069 106.528 146.123C106.528 147.187 106.724 148.013 107.116 148.601C107.517 149.18 108.157 149.469 109.034 149.469C109.445 149.469 109.851 149.423 110.252 149.329C110.663 149.236 111.106 149.105 111.582 148.937V150.715C111.143 150.893 110.709 151.023 110.28 151.107C109.851 151.191 109.37 151.233 108.838 151.233C107.811 151.233 106.962 151.023 106.29 150.603C105.627 150.174 105.137 149.577 104.82 148.811C104.503 148.037 104.344 147.136 104.344 146.109C104.344 145.101 104.526 144.21 104.89 143.435C105.254 142.661 105.781 142.054 106.472 141.615C107.172 141.177 108.026 140.957 109.034 140.957C109.529 140.957 110.023 141.023 110.518 141.153C111.022 141.275 111.503 141.443 111.96 141.657L111.274 143.379C110.901 143.202 110.523 143.048 110.14 142.917C109.767 142.787 109.398 142.721 109.034 142.721ZM119.026 151.093H116.912V142.861H114.196V141.097H121.742V142.861H119.026V151.093Z" fill="black"/>
</g>
<defs>
<clipPath id="clip0">
<rect width="124" height="157" fill="white"/>
</clipPath>
</defs>
</svg>
