<svg width="24" height="16" viewBox="0 0 24 16" fill="none" xmlns="http://www.w3.org/2000/svg">
<path d="M7.5156 16L4.48587 0H3.02973L0 16H1.31523L1.99633 12.018H5.51927L6.20037 16H7.5156ZM5.35486 10.8426H2.16073L3.7578 1.65517L5.35486 10.8426Z" fill="#373737"/>
<path d="M12.3299 16L15.3596 0H14.0444L11.6018 14.2489L9.15927 0H7.84404L10.8738 16H12.3299Z" fill="#373737"/>
<path d="M19.749 16C22.7787 16 24 12.6897 24 8.012C24 3.38231 22.7787 0 19.7255 0H17.1655V16H19.749ZM19.7255 14.8246H18.4103V1.17541H19.7255C21.8862 1.17541 22.6613 4.12594 22.6613 8.012C22.6613 11.922 21.9097 14.8246 19.7255 14.8246Z" fill="#373737"/>
</svg>
