<svg width="27" height="24" viewBox="0 0 27 24" fill="none" xmlns="http://www.w3.org/2000/svg">
<path d="M9.86434 16.4851C9.99774 16.2503 10.3023 16.1648 10.5446 16.294C10.7869 16.4231 10.8753 16.7181 10.742 16.9528C10.689 17.046 10.6244 17.1329 10.55 17.2111C10.5482 17.2129 10.298 17.4516 10.1095 17.582C9.81586 17.7851 9.49597 17.9313 9.15872 18.0168C9.1162 18.0275 9.07359 18.0326 9.0316 18.0326C8.80933 18.0326 8.60638 17.8883 8.54747 17.6703C8.47745 17.4111 8.63759 17.146 8.9052 17.0782C9.12407 17.0228 9.3334 16.9266 9.52739 16.7925C9.65526 16.704 9.77836 16.5888 9.81582 16.551C9.83455 16.531 9.85085 16.5088 9.86434 16.4851Z" fill="#373737"/>
<path fill-rule="evenodd" clip-rule="evenodd" d="M26.7078 0.28298C26.0924 -0.312954 24.8581 0.0270525 22.8234 1.35332C21.095 2.48001 19.0216 4.18646 16.9855 6.15848C14.7287 8.34412 12.8763 10.5001 11.7658 12.1897C11.5442 12.1827 11.3208 12.1791 11.0959 12.1791C4.9678 12.1791 0 14.8253 0 18.0896C0 21.3538 4.9678 24 11.0959 24C17.224 24 22.1918 21.3538 22.1918 18.0896C22.1918 15.9456 20.0488 14.0683 16.8415 13.0322C18.0425 12.0924 19.3396 10.9596 20.6412 9.69907C22.6773 7.72704 24.4393 5.71902 25.6027 4.04504C26.972 2.07439 27.3232 0.879036 26.7078 0.28298ZM11.0959 13.0388C11.1468 13.0388 11.1976 13.039 11.2483 13.0394C11.1136 13.2825 10.9995 13.5115 10.9076 13.7246C10.7818 13.6805 10.6514 13.6452 10.5168 13.6194C9.72612 13.4679 8.86732 13.6616 8.16053 14.1504C7.1463 14.8519 6.87768 15.8535 6.83868 16.0224C6.62516 16.7947 6.2208 17.5315 5.66883 18.1539C5.4913 18.3541 5.51158 18.655 5.7145 18.8312C6.42371 19.4468 7.33094 19.7556 8.27458 19.7556C9.18403 19.7556 10.1273 19.4687 10.9593 18.8933C11.3494 18.6235 11.6448 18.3252 11.702 18.2661C12.4089 17.5304 12.709 16.5657 12.5601 15.6843C13.4367 15.38 14.6314 14.6747 15.9919 13.6767C17.0215 13.9641 17.9405 14.3372 18.7136 14.7728C20.4674 15.7609 21.3041 16.959 21.3041 18.0896C21.3041 19.2633 20.3996 20.5112 18.5141 21.5156C16.6606 22.5029 14.0395 23.1403 11.0959 23.1403C8.15226 23.1403 5.53122 22.5029 3.6777 21.5156C1.79222 20.5112 0.887672 19.2633 0.887672 18.0896C0.887672 16.9158 1.79222 15.6679 3.6777 14.6635C5.53122 13.6762 8.15226 13.0388 11.0959 13.0388ZM15.6452 12.6971L15.6602 12.7007C16.0475 12.4102 16.4536 12.0918 16.8753 11.7469L14.8723 9.80705C14.5191 10.2116 14.1877 10.6071 13.8814 10.989L15.6452 12.6971ZM10.9693 17.6045C10.9424 17.6323 10.6972 17.8825 10.3773 18.1037C9.21533 18.9072 7.79279 19.0001 6.75953 18.3815C7.24342 17.7389 7.60303 17.0147 7.80963 16.2611C7.81194 16.2526 7.81403 16.2441 7.81588 16.2355C7.81759 16.2278 7.99156 15.4593 8.74263 14.9399C9.22572 14.6058 9.8017 14.4714 10.3227 14.5711C10.7523 14.6533 11.1135 14.8909 11.3398 15.2398C11.7837 15.9247 11.6276 16.9194 10.9693 17.6045ZM24.6185 3.72066C23.4903 5.2998 21.8262 7.17935 19.9329 9.01297C19.1379 9.78286 18.3672 10.4832 17.635 11.1106L15.5293 9.07128C16.1971 8.33957 16.9253 7.58863 17.6938 6.84446C19.5871 5.01077 21.5278 3.39916 23.1583 2.30642C25.1659 0.961045 25.8587 0.958894 25.9917 0.976505C26.01 1.10526 26.0076 1.77643 24.6185 3.72066ZM12.2189 14.7741C12.8117 14.5716 13.6722 14.0991 14.7204 13.3775L13.274 11.7725C12.7017 12.5391 12.1172 13.3477 11.7738 14.2368C12.0354 14.442 12.1849 14.7127 12.2142 14.7656L12.2166 14.7701L12.2189 14.7741Z" fill="#373737"/>
</svg>
