<svg width="26" height="26" viewBox="0 0 26 26" fill="none" xmlns="http://www.w3.org/2000/svg">
<path d="M19.3556 7.63043H6.64438V8.76087H19.3556V7.63043Z" fill="#373737"/>
<path d="M19.3556 9.32603H18.2V10.4565H19.3556V9.32603Z" fill="#373737"/>
<path d="M7.79995 9.32603H6.64438V10.4565H7.79995V9.32603Z" fill="#373737"/>
<path d="M13.5778 3.95652H12.4222V5.08696H13.5778V3.95652Z" fill="#373737"/>
<path d="M15.3111 3.95652H14.1556V5.08696H15.3111V3.95652Z" fill="#373737"/>
<path d="M11.8444 3.95652H10.6888V5.08696H11.8444V3.95652Z" fill="#373737"/>
<path d="M10.1111 3.95652H8.95551V5.08696H10.1111V3.95652Z" fill="#373737"/>
<path d="M17.0444 3.95652H15.8889V5.08696H17.0444V3.95652Z" fill="#373737"/>
<path d="M23.5615 24.3708C23.0545 24.6353 22.615 24.8638 21.6983 24.8691L25.1038 14.8744C25.1975 14.5992 25.0631 14.2993 24.7927 14.1802L21.6667 12.8042V7.34783C21.6667 6.41285 20.8892 5.6522 19.9334 5.6522H19.0667V2.82607C19.0667 2.51392 18.808 2.26088 18.4889 2.26088H13.5777V0H12.4222V2.26088H7.51106C7.19197 2.26088 6.9333 2.51392 6.9333 2.82607V5.65215H6.06662C5.11085 5.65215 4.33329 6.4128 4.33329 7.34778V12.8038L1.20722 14.1802C0.93682 14.2992 0.802477 14.5992 0.896278 14.8743L4.30173 24.869C3.385 24.8637 2.94553 24.6353 2.43858 24.3707C1.87104 24.0747 1.22778 23.7391 0 23.7391V24.8695C0.938896 24.8695 1.3819 25.1006 1.89477 25.3682C2.46225 25.6643 3.10546 26 4.33329 26C4.6583 26 4.93555 25.9789 5.18056 25.9358C5.88955 25.8267 6.35814 25.5825 6.77166 25.3669C7.2837 25.1 7.72587 24.8695 8.66108 24.8695C9.59997 24.8695 10.0429 25.1006 10.5558 25.3682C11.1233 25.6643 11.7666 26 12.9944 26C14.2221 26 14.8654 25.6643 15.4329 25.3683C15.9458 25.1007 16.3888 24.8696 17.3277 24.8696C18.2662 24.8696 18.7098 25.1001 19.2234 25.367C19.6382 25.5825 20.1081 25.8267 20.8196 25.9359C21.0645 25.979 21.3417 26 21.6667 26C22.8944 26 23.5377 25.6644 24.1052 25.3683C24.6182 25.1007 25.0611 24.8696 26 24.8696V23.7392C24.7723 23.7391 24.129 24.0747 23.5615 24.3708ZM23.8424 15.0014L23.4281 16.2173L13.5777 11.7898V10.4828L23.8424 15.0014ZM8.08882 3.39132H17.9111V5.6522H8.08882V3.39132ZM5.48881 7.34783C5.48881 7.03619 5.74799 6.78264 6.06656 6.78264H19.9333C20.2519 6.78264 20.511 7.03619 20.511 7.34783V12.2954L13.2369 9.09328C13.0861 9.02686 12.9135 9.02681 12.7627 9.09328L5.4887 12.2951L5.48881 7.34783ZM2.15764 15.0014L12.4222 10.4829V11.7899L2.57188 16.2173L2.15764 15.0014ZM20.534 24.7112C20.2533 24.6219 20.0208 24.5014 19.7654 24.3687C19.1976 24.0736 18.554 23.7391 17.3277 23.7391C16.0999 23.7391 15.4566 24.0747 14.8891 24.3708C14.3761 24.6384 13.9332 24.8696 12.9943 24.8696C12.0554 24.8696 11.6124 24.6385 11.0995 24.3708C10.5321 24.0747 9.88875 23.7391 8.66097 23.7391C7.43714 23.7391 6.79486 24.0739 6.22821 24.3693C5.97468 24.5014 5.74379 24.6214 5.46571 24.7105L2.9394 17.2961L12.4222 13.0339V19.7826H13.5777V13.0339L23.0605 17.2961L20.534 24.7112Z" fill="#373737"/>
</svg>
