<svg width="16" height="25" viewBox="0 0 16 25" fill="none" xmlns="http://www.w3.org/2000/svg">
<path d="M9.20827 4.6476C9.19089 3.47109 7.3614 2.34529 6.45291 2.17558V0.897777C6.45291 0.65925 6.25366 0.465872 6.00789 0.465872H4.09577C3.85 0.465872 3.65075 0.65925 3.65075 0.897777V2.17564C2.60081 2.34529 0.895416 3.8629 0.895416 4.6482C0.397969 4.66948 0 5.06876 0 5.55667V24.5681C0 24.8066 0.199252 25 0.445023 25H9.68267C9.92844 25 10.1277 24.8066 10.1277 24.5681C10.1277 24.465 10.1277 5.65333 10.1277 5.55667C10.1277 5.06081 9.71682 4.65667 9.20827 4.6476ZM9.23768 16.0582H0.890076V7.88676H9.23768V16.0582ZM0.890076 7.02295V5.55667C0.890076 5.53147 0.9112 5.51097 0.937159 5.51097H9.19089C9.21714 5.51097 9.23768 5.53104 9.23768 5.55667V7.02295H0.890076ZM5.56286 1.32968V2.09674H4.5408V1.32968H5.56286ZM4.15772 2.96052H5.94609C6.9029 3.03918 8.04917 3.86284 8.27652 4.64702H1.82732C2.01595 4.17103 3.47816 2.96052 4.15772 2.96052ZM0.890076 24.1362V16.922H9.23768V24.1362H0.890076Z" fill="#373737"/>
<path d="M11.4102 1.21941H10.9888C10.743 1.21941 10.5438 1.41279 10.5438 1.65131C10.5438 1.88984 10.743 2.08322 10.9888 2.08322H11.4102C11.656 2.08322 11.8552 1.88984 11.8552 1.65131C11.8552 1.41279 11.656 1.21941 11.4102 1.21941Z" fill="#373737"/>
<path d="M11.4102 2.60728H10.9888C10.743 2.60728 10.5438 2.80066 10.5438 3.03918C10.5438 3.27771 10.743 3.47109 10.9888 3.47109H11.4102C11.656 3.47109 11.8552 3.27771 11.8552 3.03918C11.8552 2.80066 11.656 2.60728 11.4102 2.60728Z" fill="#373737"/>
<path d="M13.555 1.95029H13.1337C12.8879 1.95029 12.6886 2.14367 12.6886 2.38219C12.6886 2.62072 12.8879 2.8141 13.1337 2.8141H13.555C13.8008 2.8141 14.0001 2.62072 14.0001 2.38219C14.0001 2.14367 13.8008 1.95029 13.555 1.95029Z" fill="#373737"/>
<path d="M12.9534 1.38927H13.3748C13.6206 1.38927 13.8198 1.19589 13.8198 0.957367C13.8198 0.718841 13.6206 0.525463 13.3748 0.525463H12.9534C12.7076 0.525463 12.5084 0.718841 12.5084 0.957367C12.5084 1.19589 12.7076 1.38927 12.9534 1.38927Z" fill="#373737"/>
<path d="M13.3748 3.30122H12.9534C12.7076 3.30122 12.5084 3.4946 12.5084 3.73313C12.5084 3.97165 12.7076 4.16503 12.9534 4.16503H13.3748C13.6206 4.16503 13.8198 3.97165 13.8198 3.73313C13.8198 3.4946 13.6206 3.30122 13.3748 3.30122Z" fill="#373737"/>
<path d="M14.9975 0.863808H15.4189C15.6646 0.863808 15.8639 0.67043 15.8639 0.431904C15.8639 0.193378 15.6646 0 15.4189 0H14.9975C14.7517 0 14.5525 0.193378 14.5525 0.431904C14.5525 0.67043 14.7517 0.863808 14.9975 0.863808Z" fill="#373737"/>
<path d="M15.555 1.91339H15.1336C14.8878 1.91339 14.6886 2.10677 14.6886 2.34529C14.6886 2.58382 14.8878 2.7772 15.1336 2.7772H15.555C15.8007 2.7772 16 2.58382 16 2.34529C16 2.10677 15.8007 1.91339 15.555 1.91339Z" fill="#373737"/>
<path d="M15.4577 3.73313H15.0363C14.7906 3.73313 14.5913 3.9265 14.5913 4.16503C14.5913 4.40356 14.7906 4.59694 15.0363 4.59694H15.4577C15.7035 4.59694 15.9027 4.40356 15.9027 4.16503C15.9027 3.9265 15.7035 3.73313 15.4577 3.73313Z" fill="#373737"/>
<path fill-rule="evenodd" clip-rule="evenodd" d="M5.11092 12.7885C5.92091 12.7885 6.57753 12.1487 6.57753 11.3595C6.57753 10.5703 5.92091 9.93048 5.11092 9.93048C4.30093 9.93048 3.64431 10.5703 3.64431 11.3595C3.64431 12.1487 4.30093 12.7885 5.11092 12.7885ZM5.11092 13.7412C6.4609 13.7412 7.55527 12.6749 7.55527 11.3595C7.55527 10.0441 6.4609 8.9778 5.11092 8.9778C3.76094 8.9778 2.66657 10.0441 2.66657 11.3595C2.66657 12.6749 3.76094 13.7412 5.11092 13.7412Z" fill="#373737"/>
</svg>
