<?xml version="1.0" encoding="UTF-8"?>
<svg xmlns="http://www.w3.org/2000/svg" width="209" height="24" viewBox="0 0 209 24" fill="none"><path d="M36.1196 20.056V4.78296H45.7613V8.32894H40.1384V20.056H36.1196Z" fill="#ED0E00"/><path d="M57.8926 20.056V14.0785H51.9236V20.056H47.9048V4.78296H51.9236V10.4819H57.8926V4.78296H61.9198V20.056H57.8926Z" fill="#ED0E00"/><path d="M85.2564 20.056V8.32894H80.5537V4.78296H93.9947V8.32894H89.2751V20.056H85.2564Z" fill="#ED0E00"/><path d="M74.6438 20.056V11.3515L68.2442 20.056H64.8755V4.78296H68.9027V13.3946L75.1926 4.78296H78.6626V20.056H74.6438Z" fill="#ED0E00"/><path d="M13.0704 4.78345L9.00093 10.0349L4.9315 4.78345H0.963379V20.0565H4.98216V10.9805L9.00093 15.776L13.0113 10.9805V20.0565H17.03V4.78345H13.0704Z" fill="#ED0E00"/><path d="M24.6704 14.6864H28.4106L26.5447 9.89086L24.6789 14.6864H24.6704ZM30.496 20.056L29.6601 17.9115H23.404L22.5682 20.056H18.5156L24.7042 4.78296H28.419L34.6076 20.056H30.496Z" fill="#ED0E00"/><path d="M117.728 7.88624C117.858 6.0308 118.707 4.29343 120.118 2.97775C121.528 1.66207 123.329 0.936768 125.181 0.936768H141.27L141.022 4.47054H124.934C124.021 4.47054 123.142 4.82476 122.446 5.47417C121.749 6.12357 121.334 6.98382 121.271 7.88624L120.839 13.8152C120.568 15.3923 119.288 16.6574 117.733 16.8935L117.101 16.9863L117.728 7.88624Z" fill="#E92229"/><path d="M116.614 23.8943L116.861 20.3605H132.95C133.863 20.3605 134.742 20.0063 135.438 19.3569C136.134 18.7075 136.549 17.8557 136.613 16.9448L137.006 11.3195C137.123 9.64113 138.485 8.19051 140.159 7.9375L140.792 7.84473L140.155 16.9533C140.025 18.8087 139.176 20.5461 137.765 21.8617C136.354 23.1774 134.554 23.9027 132.702 23.9027H116.613L116.614 23.8943Z" fill="#E92229"/><rect width="7.40353" height="2.83895" transform="matrix(1 0 -0.0697565 0.997564 107.478 5.79346)" fill="#E92229"/><rect width="12.6881" height="2.83895" transform="matrix(1 0 -0.0697565 0.997564 101.823 11.084)" fill="#E92229"/><rect width="9.35874" height="2.83895" transform="matrix(1 0 -0.0697565 0.997564 104.783 16.3745)" fill="#E92229"/><path d="M130.153 10.3831L132.437 10.3831C132.86 10.3831 133.215 10.6575 133.313 11.0607L133.567 12.1055C133.601 12.2438 133.697 12.3554 133.828 12.4094L134.567 12.7148C134.745 12.7884 134.853 12.9656 134.839 13.1627L134.665 15.6463C134.66 15.7263 134.59 15.7912 134.51 15.7912L129.775 15.7912L130.153 10.3831Z" fill="#E92229"/><path d="M123.453 8.91218C123.458 8.83218 123.528 8.76733 123.608 8.76733H130.513C130.593 8.76733 130.654 8.83218 130.648 8.91218L130.167 15.7913H123.117C123.037 15.7913 122.976 15.7264 122.982 15.6464L123.453 8.91218Z" fill="#E92229"/><circle cx="1.12769" cy="1.12769" r="1.12769" transform="matrix(1 0 -0.0697565 0.997564 131.034 14.7229)" fill="#E92229"/><circle cx="1.12769" cy="1.12769" r="1.12769" transform="matrix(1 0 -0.0697565 0.997564 124.45 14.7229)" fill="#E92229"/><path d="M171.432 4.63892C166.836 4.63892 163.541 8.14165 163.541 12.4197C163.541 16.6977 166.836 20.2005 171.432 20.2005C176.029 20.2005 179.324 16.67 179.324 12.4197C179.324 8.16934 176.029 4.63892 171.432 4.63892ZM171.432 16.6562C169.162 16.6562 167.5 14.8564 167.5 12.4197C167.5 9.98301 169.162 8.18318 171.432 8.18318C173.703 8.18318 175.364 9.98301 175.364 12.4197C175.364 14.8564 173.703 16.6562 171.432 16.6562Z" fill="#ED0E00"/><path d="M185.193 12.4197C185.193 9.95532 187.09 8.18318 189.596 8.18318C191.258 8.18318 192.351 8.61237 193.417 9.27692V5.49729C192.282 4.9435 190.953 4.63892 189.555 4.63892C184.792 4.63892 181.234 7.82322 181.234 12.4197C181.234 17.0162 184.82 20.2005 189.568 20.2005C191.036 20.2005 192.517 19.8543 193.667 19.259V15.4517C192.49 16.3516 191.161 16.6423 189.735 16.6423C187.132 16.6423 185.18 14.9118 185.18 12.4058" fill="#ED0E00"/><path d="M208.078 4.94336H195.23V8.32149H199.716V19.8957H203.565V8.32149H208.078V4.94336Z" fill="#ED0E00"/><path d="M157.519 19.8816V8.46012H152.486V19.8816H148.535V4.97021H161.456V19.8816H157.519Z" fill="#ED0E00"/></svg>