<svg width="68" height="42" viewBox="0 0 68 42" fill="none" xmlns="http://www.w3.org/2000/svg">
<path d="M54.8232 13.4281H50.5598L51.8443 0.914485C51.8467 0.891817 51.8471 0.869485 51.8472 0.847153C51.8472 0.845246 51.8475 0.84345 51.8475 0.841542C51.8475 0.841205 51.8475 0.840981 51.8475 0.840645C51.8475 0.500055 51.6053 0.199865 51.2494 0.0693527C51.2464 0.0682305 51.2435 0.0668841 51.2404 0.0657619C51.2183 0.0579065 51.1954 0.0511729 51.1724 0.0446641C51.1638 0.0423074 51.1556 0.0393896 51.147 0.0371451C51.1283 0.0323197 51.1089 0.0285042 51.0898 0.0245765C51.0763 0.0218832 51.0633 0.018629 51.0497 0.0163846C51.0329 0.0135791 51.0154 0.0117838 50.9982 0.00965166C50.9821 0.00763169 50.9662 0.00527471 50.95 0.00404029C50.9472 0.00381585 50.9447 0.0033666 50.9419 0.00314216C50.9244 0.00179552 50.9072 0.00202002 50.8899 0.00145892C50.8783 0.00112226 50.8669 0 50.8553 0H50.8428C50.8418 0 50.8407 0 50.8398 0H30.5543C30.0067 0 29.5623 0.377061 29.5623 0.841654C29.5623 1.30512 30.0067 1.68331 30.5543 1.68331H49.774L47.7998 20.9151C47.7996 20.9166 47.7996 20.918 47.7993 20.9195L47.3012 25.772H12.832L13.4085 20.7223H19.9716C20.5196 20.7223 20.9636 20.3455 20.9636 19.8807C20.9636 19.4158 20.5196 19.039 19.9716 19.039H13.6008L14.8182 8.37861H25.2638C25.8117 8.37861 26.2557 8.00177 26.2557 7.53696C26.2557 7.07214 25.8117 6.6953 25.2638 6.6953H15.0105L15.583 1.68331H26.5864C27.1326 1.68331 27.5784 1.30512 27.5784 0.841654C27.5784 0.377061 27.1326 0 26.5864 0H14.6826C14.6821 0 14.6817 0.000112159 14.6812 0.000112159C14.2152 -6.16499e-08 13.811 0.278308 13.7133 0.664122C13.7126 0.666928 13.7114 0.669621 13.7108 0.672426C13.7057 0.693411 13.7024 0.714845 13.6991 0.736392C13.6982 0.743237 13.6965 0.749746 13.6957 0.756591C13.6955 0.757938 13.6951 0.759172 13.695 0.760519L13.0173 6.6953H0.99198C0.44401 6.6953 0 7.07214 0 7.53696C0 8.00177 0.44401 8.37861 0.99198 8.37861H12.825L11.6076 19.039H8.06837C7.5204 19.039 7.07639 19.4158 7.07639 19.8807C7.07639 20.3455 7.5204 20.7223 8.06837 20.7223H11.4154L10.7525 26.5265C10.7524 26.5274 10.7524 26.5283 10.7523 26.5291L9.72736 35.5043C9.72723 35.5053 9.72709 35.5065 9.72696 35.5074L9.72657 35.5106C9.72524 35.5223 9.72537 35.5337 9.72458 35.5454C9.72365 35.5609 9.7218 35.576 9.7218 35.5918C9.7218 35.5924 9.72194 35.5931 9.72194 35.5939C9.72194 35.6155 9.72379 35.6369 9.72564 35.6582C9.72643 35.665 9.72617 35.672 9.72709 35.6787C9.72974 35.7005 9.7341 35.7219 9.73873 35.7433C9.74006 35.7495 9.74072 35.7559 9.74217 35.7621C9.74601 35.7783 9.75143 35.7939 9.75646 35.8097C9.7599 35.8208 9.76267 35.8321 9.76664 35.843C9.76783 35.8461 9.76942 35.849 9.77048 35.8521C9.81849 35.9773 9.89996 36.0898 10.0063 36.1816C10.0083 36.1833 10.0099 36.1852 10.0119 36.1867C10.0224 36.1957 10.0339 36.2038 10.0451 36.2123C10.1134 36.2655 10.1907 36.3106 10.2752 36.346C10.2928 36.3534 10.3101 36.3611 10.3281 36.3675C10.3335 36.3696 10.3393 36.3709 10.3449 36.3727C10.3698 36.3811 10.3948 36.3892 10.4206 36.396C10.4229 36.3966 10.4252 36.3969 10.4276 36.3976C10.4569 36.405 10.4866 36.4115 10.5168 36.4168C10.5208 36.4175 10.5249 36.4177 10.5287 36.4184C10.5576 36.423 10.5865 36.4269 10.616 36.4294C10.6167 36.4294 10.6172 36.4295 10.6179 36.4296C10.6504 36.4323 10.6827 36.4336 10.7147 36.4336C10.7151 36.4336 10.7156 36.4335 10.7162 36.4335H15.1322C15.6199 39.5704 18.7896 42 22.6179 42C26.4461 42 29.6158 39.5704 30.1034 36.4335H46.0147C46.5024 39.5704 49.672 42 53.5003 42C57.3284 42 60.4984 39.5704 60.9862 36.4335H65.4032C65.4039 36.4335 65.4047 36.4336 65.4054 36.4336C65.4384 36.4336 65.471 36.432 65.5032 36.4293C65.5091 36.4288 65.5146 36.4278 65.5204 36.4272C65.5462 36.4247 65.5719 36.4216 65.597 36.4174C65.6078 36.4156 65.6183 36.4131 65.629 36.411C65.6485 36.4072 65.668 36.4031 65.6871 36.3983C65.7 36.395 65.7126 36.3912 65.7253 36.3875C65.7416 36.3828 65.7578 36.3779 65.7738 36.3724C65.7876 36.3678 65.8007 36.3627 65.8141 36.3577C65.8286 36.3519 65.8432 36.3461 65.8573 36.3399C65.8708 36.3341 65.8838 36.328 65.8967 36.3218C65.9103 36.315 65.9238 36.3081 65.9372 36.3009C65.9496 36.2941 65.9621 36.2873 65.974 36.2801C65.9874 36.2721 66.0003 36.2637 66.0134 36.2552C66.0242 36.2479 66.0352 36.2407 66.0458 36.2331C66.0594 36.2233 66.0722 36.2131 66.0852 36.2027C66.0942 36.1954 66.1036 36.1882 66.1123 36.1806C66.1261 36.1687 66.1392 36.1561 66.1523 36.1434C66.1593 36.1366 66.1665 36.13 66.1733 36.123C66.1878 36.1077 66.2011 36.092 66.2143 36.0762C66.2188 36.0707 66.2238 36.0656 66.2282 36.0599C66.2443 36.0394 66.2595 36.0183 66.2735 35.9965C66.2746 35.9952 66.2757 35.994 66.2763 35.9925C66.2913 35.9692 66.305 35.9453 66.3173 35.9206C66.3208 35.9135 66.3234 35.9062 66.3267 35.8991C66.3348 35.8817 66.3427 35.8643 66.3495 35.8463C66.3538 35.8346 66.357 35.8226 66.3608 35.8108C66.3652 35.7968 66.3698 35.7829 66.3735 35.7686C66.3768 35.7559 66.379 35.7429 66.3815 35.73C66.3837 35.7187 66.3866 35.7076 66.3883 35.696C66.4304 35.4101 67.2072 30.1224 67.5541 26.7032C67.5545 26.7 67.5546 26.6966 67.555 26.6933C67.6549 25.7077 67.7189 24.8777 67.7189 24.3696C67.7189 18.3365 61.934 13.4281 54.8232 13.4281ZM50.3869 15.1116H54.4452L53.9268 20.1611H49.8686L50.3869 15.1116ZM22.6182 40.3166C19.5474 40.3166 17.0492 38.197 17.0492 35.5916C17.0492 32.9863 19.5476 30.8667 22.6182 30.8667C25.6888 30.8667 28.1871 32.9863 28.1871 35.5916C28.1871 38.197 25.6888 40.3166 22.6182 40.3166ZM53.5003 40.3166C50.4296 40.3166 47.9316 38.197 47.9316 35.5916C47.9316 32.9863 50.4298 30.8667 53.5003 30.8667C56.571 30.8667 59.0693 32.9863 59.0693 35.5916C59.0693 38.197 56.571 40.3166 53.5003 40.3166ZM64.5267 34.7497H60.9864C60.4989 31.6125 57.329 29.1828 53.5005 29.1828C49.6723 29.1828 46.5024 31.6126 46.0149 34.7497H30.1038C29.6163 31.6125 26.4466 29.1828 22.6182 29.1828C18.7898 29.1828 15.6199 31.6126 15.1323 34.7497H11.8067L12.6398 27.4549H48.2102V27.4553C48.2108 27.4553 48.2112 27.4553 48.2117 27.4553C48.2449 27.4553 48.2778 27.4537 48.3104 27.4509C48.3164 27.4505 48.3224 27.4494 48.3285 27.4487C48.3544 27.4461 48.3802 27.443 48.4056 27.4387C48.4166 27.4368 48.4273 27.4342 48.4381 27.432C48.458 27.4279 48.4778 27.424 48.4971 27.4191C48.5103 27.4157 48.5229 27.4117 48.5357 27.4078C48.5524 27.4029 48.5691 27.3981 48.5852 27.3925C48.5991 27.3876 48.6125 27.3823 48.6259 27.3769C48.6406 27.3712 48.6553 27.3654 48.6695 27.3591C48.6829 27.3531 48.6962 27.3466 48.7095 27.3401C48.7232 27.3333 48.7366 27.3265 48.7499 27.3193C48.7627 27.3122 48.7749 27.3048 48.7872 27.2974C48.8003 27.2896 48.813 27.2815 48.8257 27.2731C48.837 27.2653 48.8483 27.2574 48.8594 27.2492C48.872 27.24 48.8843 27.2305 48.8962 27.2208C48.9062 27.2126 48.9163 27.2042 48.9261 27.1955C48.938 27.185 48.9495 27.1741 48.9608 27.163C48.9697 27.1542 48.9784 27.1455 48.9869 27.1365C48.9979 27.1247 49.0083 27.1126 49.0186 27.1004C49.0264 27.0912 49.034 27.082 49.0414 27.0725C49.051 27.0599 49.0603 27.0468 49.0692 27.0336C49.0759 27.0237 49.0828 27.0138 49.0889 27.0037C49.0972 26.9905 49.1043 26.977 49.1119 26.9635C49.1177 26.9526 49.1237 26.9419 49.1289 26.9307C49.1354 26.9174 49.1409 26.9039 49.1465 26.8903C49.1514 26.8783 49.1566 26.8663 49.161 26.8539C49.1653 26.8409 49.1689 26.8276 49.1729 26.8143C49.1767 26.801 49.1809 26.7877 49.184 26.7741C49.187 26.7609 49.1889 26.7474 49.1912 26.734C49.1936 26.72 49.1964 26.7064 49.198 26.6922C49.1982 26.6902 49.1988 26.6883 49.1989 26.6863L49.6961 21.844H54.8229C57.8622 21.844 59.233 23.1801 60.6841 24.5947C61.8814 25.7619 63.2182 27.0642 65.4905 27.3819C65.2019 29.9709 64.7354 33.2944 64.5267 34.7497ZM65.6601 25.6953C64.186 25.4403 63.2791 24.561 62.1804 23.49C60.8063 22.1507 59.1288 20.5162 55.913 20.2116L56.4262 15.2124C61.6856 15.8724 65.735 19.7269 65.735 24.3698C65.735 24.6853 65.7072 25.1436 65.6601 25.6953Z" fill="#373737"/>
<path d="M22.6182 32.5055C20.6127 32.5055 18.9809 33.8898 18.9809 35.5915C18.9809 37.2932 20.6127 38.6776 22.6182 38.6776C24.6237 38.6776 26.2555 37.2932 26.2555 35.5915C26.2555 33.8899 24.6237 32.5055 22.6182 32.5055ZM22.6182 36.9943C21.7065 36.9943 20.9649 36.3651 20.9649 35.5915C20.9649 34.818 21.7065 34.1888 22.6182 34.1888C23.5299 34.1888 24.2715 34.818 24.2715 35.5915C24.2715 36.3651 23.5298 36.9943 22.6182 36.9943Z" fill="#373737"/>
<path d="M53.5003 32.5055C51.4948 32.5055 49.863 33.8898 49.863 35.5915C49.863 37.2932 51.4948 38.6776 53.5003 38.6776C55.5058 38.6776 57.1375 37.2932 57.1375 35.5915C57.1375 33.8899 55.5058 32.5055 53.5003 32.5055ZM53.5003 36.9943C52.5886 36.9943 51.847 36.3651 51.847 35.5915C51.847 34.818 52.5886 34.1888 53.5003 34.1888C54.412 34.1888 55.1536 34.818 55.1536 35.5915C55.1536 36.3651 54.412 36.9943 53.5003 36.9943Z" fill="#373737"/>
<path d="M9.39075 13.4283H4.54115C3.99318 13.4283 3.54917 13.8051 3.54917 14.27C3.54917 14.7348 3.99318 15.1116 4.54115 15.1116H9.39075C9.93872 15.1116 10.3827 14.7348 10.3827 14.27C10.3827 13.8051 9.93872 13.4283 9.39075 13.4283Z" fill="#373737"/>
</svg>
