<svg width="62" height="49" viewBox="0 0 62 49" fill="none" xmlns="http://www.w3.org/2000/svg">
<path d="M58.1126 21.1134H54.9924C54.8146 20.5667 54.4322 20.0841 53.903 19.7384C53.3738 19.3928 52.7265 19.2029 52.059 19.1976H48.7282V12.2766C48.732 12.1472 48.6951 12.0192 48.6215 11.9058C48.5478 11.7924 48.44 11.6977 48.3091 11.6314L24.8122 0.0998569C24.6798 0.0344526 24.5293 0 24.3761 0C24.223 0 24.0725 0.0344526 23.9401 0.0998569L0.435928 11.6314C0.302935 11.6969 0.192614 11.7911 0.116082 11.9043C0.0395504 12.0176 -0.000487234 12.146 4.47502e-06 12.2766V35.3399C8.38512e-06 35.4707 0.0405265 35.5991 0.117487 35.7124C0.194447 35.8257 0.305137 35.9197 0.438433 35.9851L23.945 47.5167C24.0783 47.5821 24.2295 47.6165 24.3834 47.6165C24.5413 47.6166 24.6966 47.5822 24.8344 47.5167L37.2038 41.4543V45.8368C37.2025 46.254 37.2987 46.6673 37.4867 47.0528C37.6746 47.4382 37.9507 47.7882 38.299 48.0824C38.6472 48.3765 39.0607 48.6091 39.5154 48.7666C39.9701 48.9241 40.4571 49.0034 40.9481 48.9999H58.1126C58.6049 49.0037 59.0932 48.9249 59.5495 48.7678C60.0058 48.6107 60.421 48.3784 60.7713 48.0845C61.1215 47.7905 61.3999 47.4405 61.5904 47.0548C61.7808 46.669 61.8796 46.2551 61.8811 45.8368V24.3259C61.8805 23.4759 61.4837 22.6606 60.7774 22.0586C60.0712 21.4565 59.113 21.1167 58.1126 21.1134ZM52.0902 20.6877C52.4278 20.6877 52.7515 20.8016 52.9902 21.0045C53.2289 21.2073 53.363 21.4824 53.363 21.7692V21.8414C53.363 22.1282 53.2289 22.4033 52.9902 22.6061C52.7515 22.8089 52.4278 22.9229 52.0902 22.9229H46.9947C46.6571 22.9229 46.3333 22.8089 46.0947 22.6061C45.8559 22.4033 45.7219 22.1282 45.7219 21.8414V21.7692C45.7219 21.4824 45.8559 21.2073 46.0947 21.0045C46.3333 20.8016 46.6571 20.6877 46.9947 20.6877H52.0902ZM24.3834 1.6054L34.1508 6.39697L12.3995 17.0675L2.63221 12.2759L24.3834 1.6054ZM23.5499 45.5809L1.75372 34.9097V13.5655L23.5499 24.2367V45.5809ZM24.3834 22.9463L14.1532 17.9277L35.9046 7.2573L46.1352 12.2759L24.3834 22.9463ZM37.2038 24.3259V39.7338L25.3036 45.5809V24.2367L46.9745 13.5655V19.1976H47.0017C46.3342 19.2029 45.6869 19.3928 45.1577 19.7384C44.6285 20.0841 44.2461 20.5667 44.0683 21.1134H40.9481C39.9502 21.1176 38.9951 21.4583 38.2929 22.0608C37.5908 22.6632 37.199 23.478 37.2038 24.3259ZM60.1274 45.8368C60.1262 46.0595 60.0729 46.2798 59.9706 46.4848C59.8684 46.6899 59.7192 46.8756 59.5318 47.0313C59.3443 47.1869 59.1223 47.3094 58.8787 47.3915C58.6351 47.4737 58.3747 47.5139 58.1126 47.5097H40.9481C40.6873 47.5135 40.4283 47.4729 40.1862 47.3904C39.9441 47.3078 39.7239 47.1851 39.5385 47.0292C39.353 46.8734 39.2061 46.6876 39.1063 46.4828C39.0066 46.278 38.956 46.0584 38.9575 45.8368V24.3259C38.9549 24.1017 39.0043 23.8793 39.1029 23.6713C39.2016 23.4633 39.3475 23.2739 39.5324 23.114C39.7173 22.954 39.9375 22.8266 40.1805 22.739C40.4234 22.6514 40.6842 22.6054 40.9481 22.6036H44.1025C44.2906 23.1309 44.6748 23.5923 45.1974 23.9185C45.7201 24.2448 46.3532 24.4182 47.0017 24.413H52.059C52.7075 24.4183 53.3406 24.2448 53.8632 23.9186C54.3859 23.5923 54.77 23.1309 54.958 22.6036H58.1126C58.648 22.6064 59.1604 22.7891 59.5379 23.1118C59.9153 23.4345 60.1272 23.871 60.1274 24.3259V45.8368Z" fill="#373737"/>
<path d="M41.9575 31.8635H42.8753C43.1079 31.8635 43.3309 31.785 43.4953 31.6453C43.6598 31.5056 43.7522 31.3161 43.7522 31.1185C43.7522 30.9209 43.6598 30.7314 43.4953 30.5916C43.3309 30.4519 43.1079 30.3734 42.8753 30.3734H42.8407V28.3511H45.2592C45.3143 28.5009 45.4256 28.6313 45.5762 28.7221C45.7268 28.813 45.9083 28.8594 46.0929 28.8542C46.3257 28.8548 46.5493 28.7768 46.7146 28.6375C46.8798 28.4981 46.9733 28.3087 46.9745 28.1109V27.6096C46.9725 27.4108 46.8783 27.2207 46.7124 27.0805C46.5464 26.9404 46.3221 26.8615 46.0881 26.861H41.9575C41.8424 26.8615 41.7287 26.8813 41.6226 26.9192C41.5166 26.9571 41.4204 27.0124 41.3396 27.0819C41.2587 27.1515 41.1948 27.2338 41.1514 27.3244C41.1081 27.4149 41.0862 27.5118 41.087 27.6096V31.1193C41.0863 31.2168 41.1083 31.3135 41.1518 31.4038C41.1952 31.494 41.2592 31.5761 41.3401 31.6453C41.421 31.7144 41.5172 31.7693 41.6231 31.8068C41.7291 31.8442 41.8427 31.8635 41.9575 31.8635Z" fill="#373737"/>
<path d="M41.9639 38.6755H46.0976C46.3302 38.6755 46.5532 38.597 46.7177 38.4573C46.8821 38.3175 46.9745 38.128 46.9745 37.9304V34.418C46.9745 34.2204 46.8821 34.0309 46.7177 33.8912C46.5532 33.7515 46.3302 33.673 46.0976 33.673H41.9639C41.7313 33.673 41.5083 33.7515 41.3438 33.8912C41.1794 34.0309 41.087 34.2204 41.087 34.418V37.9304C41.087 38.128 41.1794 38.3175 41.3438 38.4573C41.5083 38.597 41.7313 38.6755 41.9639 38.6755ZM42.8407 35.1631H45.2208V37.1854H42.8407V35.1631Z" fill="#373737"/>
<path d="M42.8755 43.9973H42.8408V41.975H45.2119C45.2164 42.171 45.3111 42.3576 45.4757 42.4949C45.6403 42.6321 45.8617 42.7091 46.0923 42.7093C46.323 42.7095 46.5445 42.6329 46.7094 42.4959C46.8744 42.3589 46.9695 42.1724 46.9745 41.9765V41.2586C46.9736 41.0572 46.8807 40.8639 46.7153 40.7196C46.55 40.5752 46.3251 40.4911 46.0881 40.4849H41.9575C41.7222 40.4916 41.4993 40.5764 41.3366 40.721C41.174 40.8656 41.0844 41.0586 41.087 41.2586V44.7684C41.0869 44.8646 41.1095 44.9598 41.1536 45.0484C41.1976 45.1371 41.2621 45.2173 41.3432 45.2844C41.4244 45.3514 41.5206 45.4039 41.6261 45.4388C41.7317 45.4737 41.8443 45.4902 41.9575 45.4874H42.8755C43.108 45.4874 43.331 45.4089 43.4955 45.2692C43.6599 45.1295 43.7523 44.94 43.7523 44.7424C43.7523 44.5448 43.6599 44.3553 43.4955 44.2155C43.331 44.0758 43.108 43.9973 42.8755 43.9973Z" fill="#373737"/>
<path d="M48.107 27.7756L45.5391 29.9575L44.7579 29.2937C44.6765 29.2245 44.5798 29.1696 44.4734 29.1322C44.3671 29.0947 44.253 29.0755 44.1379 29.0755C44.0227 29.0755 43.9087 29.0947 43.8023 29.1322C43.6959 29.1696 43.5992 29.2245 43.5178 29.2937C43.4364 29.3629 43.3718 29.445 43.3277 29.5354C43.2836 29.6258 43.261 29.7227 43.261 29.8206C43.261 29.9184 43.2836 30.0153 43.3277 30.1057C43.3718 30.1961 43.4364 30.2782 43.5178 30.3474L44.9191 31.538C45.0006 31.6072 45.0972 31.6621 45.2036 31.6996C45.31 31.737 45.424 31.7563 45.5392 31.7563C45.6544 31.7563 45.7684 31.737 45.8748 31.6996C45.9812 31.6621 46.0778 31.6072 46.1593 31.538L49.3475 28.829C49.512 28.6893 49.6044 28.4997 49.6044 28.3021C49.6044 28.1045 49.512 27.915 49.3475 27.7753C49.1831 27.6355 48.96 27.557 48.7275 27.557C48.4949 27.557 48.2715 27.6359 48.107 27.7756Z" fill="#373737"/>
<path d="M48.107 41.5323L45.5391 43.7143L44.7579 43.0504C44.6765 42.9813 44.5798 42.9264 44.4734 42.8889C44.3671 42.8515 44.253 42.8322 44.1379 42.8322C44.0227 42.8322 43.9087 42.8515 43.8023 42.8889C43.6959 42.9264 43.5992 42.9813 43.5178 43.0504C43.4364 43.1196 43.3718 43.2018 43.3277 43.2922C43.2836 43.3826 43.261 43.4795 43.261 43.5773C43.261 43.6751 43.2836 43.772 43.3277 43.8624C43.3718 43.9528 43.4364 44.035 43.5178 44.1042L44.9191 45.2948C45.0006 45.364 45.0972 45.4188 45.2036 45.4563C45.31 45.4937 45.424 45.513 45.5392 45.513C45.6544 45.513 45.7684 45.4937 45.8748 45.4563C45.9812 45.4188 46.0778 45.364 46.1593 45.2948L49.3475 42.5857C49.512 42.446 49.6044 42.2565 49.6044 42.0589C49.6044 41.8613 49.512 41.6717 49.3475 41.532C49.1831 41.3923 48.96 41.3138 48.7275 41.3138C48.4949 41.3138 48.2715 41.3926 48.107 41.5323Z" fill="#373737"/>
<path d="M57.1031 28.6704H51.5956C51.3631 28.6704 51.1401 28.7489 50.9756 28.8887C50.8112 29.0284 50.7188 29.2179 50.7188 29.4155C50.7188 29.6131 50.8112 29.8026 50.9756 29.9423C51.1401 30.0821 51.3631 30.1605 51.5956 30.1605H57.1031C57.3356 30.1605 57.5587 30.0821 57.7231 29.9423C57.8875 29.8026 57.9799 29.6131 57.9799 29.4155C57.9799 29.2179 57.8875 29.0284 57.7231 28.8887C57.5587 28.7489 57.3356 28.6704 57.1031 28.6704Z" fill="#373737"/>
<path d="M57.1031 35.4824H51.5956C51.3631 35.4824 51.1401 35.5609 50.9756 35.7006C50.8112 35.8403 50.7188 36.0298 50.7188 36.2274C50.7188 36.425 50.8112 36.6146 50.9756 36.7543C51.1401 36.894 51.3631 36.9725 51.5956 36.9725H57.1031C57.3356 36.9725 57.5587 36.894 57.7231 36.7543C57.8875 36.6146 57.9799 36.425 57.9799 36.2274C57.9799 36.0298 57.8875 35.8403 57.7231 35.7006C57.5587 35.5609 57.3356 35.4824 57.1031 35.4824Z" fill="#373737"/>
<path d="M57.1031 42.2943H51.5956C51.3631 42.2943 51.1401 42.3728 50.9756 42.5126C50.8112 42.6523 50.7188 42.8418 50.7188 43.0394C50.7188 43.237 50.8112 43.4265 50.9756 43.5662C51.1401 43.706 51.3631 43.7844 51.5956 43.7844H57.1031C57.3356 43.7844 57.5587 43.706 57.7231 43.5662C57.8875 43.4265 57.9799 43.237 57.9799 43.0394C57.9799 42.8418 57.8875 42.6523 57.7231 42.5126C57.5587 42.3728 57.3356 42.2943 57.1031 42.2943Z" fill="#373737"/>
</svg>
