<svg width="59" height="51" viewBox="0 0 59 51" fill="none" xmlns="http://www.w3.org/2000/svg">
<path d="M39.4489 31.3792C39.9563 31.3858 40.438 31.5671 40.7805 31.8802L50.8337 40.9915L52.3113 39.8479L45.5072 33.6831H45.5313V10.947C45.5281 8.62287 43.2767 6.73936 40.4987 6.73662H36.4726V8.42077H40.4987C42.1664 8.42077 43.5183 9.55179 43.5183 10.947V11.7891H36.4726V13.4732H43.5183V31.8802L42.2581 30.7358C41.5456 30.0865 40.5456 29.7105 39.4922 29.6959C39.2247 29.6862 38.9569 29.7005 38.693 29.7388L39.467 27.1503L40.2783 24.4202H41.5052V22.7361H39.4922C39.0302 22.7362 38.6277 22.9993 38.5159 23.3744L37.7006 26.1044H22.3813C21.8255 26.1045 21.3749 26.4816 21.375 26.9467C21.375 27.0153 21.3851 27.0836 21.405 27.1503L23.418 33.8869C23.5299 34.2619 23.9324 34.5251 24.3944 34.5252H36.0358C36.1697 34.7281 36.3293 34.9184 36.5119 35.0927L37.301 35.8354C37.1158 36.067 36.8057 36.207 36.4726 36.2093H23.3878V37.8935H36.4726C37.2968 37.8904 38.0837 37.6057 38.6507 37.1053L42.392 40.6269C41.6825 42.8062 42.0305 45.1317 43.3603 47.0974C42.9585 48.1358 41.8033 48.8395 40.4987 48.8405H20.3683C18.7006 48.8405 17.3487 47.7095 17.3487 46.3142V45.4722H40.4987V43.788H17.3487V20.2099H15.3356V46.3142C15.3389 48.6384 17.5903 50.5219 20.3683 50.5246H40.4987C42.1748 50.5246 43.7409 49.8267 44.6758 48.6628C45.0097 48.9722 45.3692 49.2614 45.7518 49.5285L46.9002 50.3301L48.1886 49.035L47.0411 48.2342C44.398 46.4065 43.3766 43.4039 44.4735 40.6858C44.5875 40.4004 44.5107 40.0858 44.2722 39.8606L38.0186 33.9744C37.3643 33.357 37.3969 32.4202 38.0931 31.8356C38.4585 31.5438 38.9438 31.3804 39.4489 31.3792ZM24.1739 29.4727L23.6707 27.7885H26.5252L26.7768 29.4727H24.1739ZM25.1804 32.841L24.6772 31.1569H27.0284L27.2801 32.841H25.1804ZM31.5578 32.841H29.3092L29.0576 31.1569H31.8094L31.5578 32.841ZM32.061 29.4727H28.8059L28.5543 27.7885H32.3127L32.061 29.4727ZM35.5345 32.841H33.5869L33.8386 31.1569H36.1707C35.7762 31.6581 35.5561 32.2411 35.5345 32.841ZM36.6931 29.4727H34.0902L34.3418 27.7885H37.1963L36.6931 29.4727Z" fill="#373737"/>
<path d="M25.4009 42.1039C26.5126 42.1039 27.4139 41.3498 27.4139 40.4197C27.4139 39.4896 26.5126 38.7355 25.4009 38.7355C24.2891 38.7355 23.3878 39.4896 23.3878 40.4197C23.3878 41.3498 24.2891 42.1039 25.4009 42.1039Z" fill="#373737"/>
<path d="M35.4661 42.1039C36.5779 42.1039 37.4791 41.3498 37.4791 40.4197C37.4791 39.4896 36.5779 38.7355 35.4661 38.7355C34.3543 38.7355 33.4531 39.4896 33.4531 40.4197C33.4531 41.3498 34.3543 42.1039 35.4661 42.1039Z" fill="#373737"/>
<path d="M30.4335 0H4.26389C2.04035 0 0.237793 1.50806 0.237793 3.36831V15.1574C0.237793 17.0176 2.04035 18.5257 4.26389 18.5257H30.4335C32.657 18.5257 34.4596 17.0176 34.4596 15.1574V3.36831C34.4596 1.50806 32.657 0 30.4335 0ZM32.4465 15.1574C32.4465 16.0876 31.5453 16.8415 30.4335 16.8415H4.26389C3.15205 16.8415 2.25084 16.0876 2.25084 15.1574V3.36831C2.25084 2.43813 3.15205 1.68415 4.26389 1.68415H30.4335C31.5453 1.68415 32.4465 2.43813 32.4465 3.36831V15.1574Z" fill="#373737"/>
<path d="M22.3813 4.21039H4.26389V5.89454H22.3813V4.21039Z" fill="#373737"/>
<path d="M28.9574 9.61231C28.0127 9.14749 26.841 9.14749 25.8961 9.61231C25.4414 9.38643 24.9232 9.2658 24.3944 9.26285C22.7267 9.26285 21.3748 10.3939 21.3748 11.7891C21.3748 13.1843 22.7267 14.3153 24.3944 14.3153C24.9229 14.3129 25.4413 14.1929 25.8961 13.9675C27.3336 14.6748 29.1843 14.2732 30.0296 13.0705C30.875 11.8678 30.3949 10.3196 28.9574 9.61231ZM24.3944 12.6312C23.8385 12.6312 23.3878 12.2541 23.3878 11.7891C23.3878 11.324 23.8385 10.947 24.3944 10.947C24.9502 10.947 25.4009 11.324 25.4009 11.7891C25.4009 12.2541 24.9502 12.6312 24.3944 12.6312ZM27.4139 12.6312C27.3539 12.6287 27.2943 12.6217 27.2358 12.6101C27.4727 12.081 27.4727 11.498 27.2358 10.9689C27.2943 10.9573 27.3539 10.95 27.4139 10.947C27.9698 10.947 28.4204 11.324 28.4204 11.7891C28.4204 12.2541 27.9698 12.6312 27.4139 12.6312Z" fill="#373737"/>
<path d="M6.27693 9.26285H4.26389V10.947H6.27693V9.26285Z" fill="#373737"/>
<path d="M10.303 9.26285H8.28998V10.947H10.303V9.26285Z" fill="#373737"/>
<path d="M14.3291 9.26285H12.3161V10.947H14.3291V9.26285Z" fill="#373737"/>
<path d="M18.3552 9.26285H16.3422V10.947H18.3552V9.26285Z" fill="#373737"/>
<path d="M18.3552 12.6312H4.26389V14.3153H18.3552V12.6312Z" fill="#373737"/>
<path d="M56.742 32.5042L48.2872 24.6948L46.7955 25.8248L55.2554 33.6419C56.1229 34.4201 56.6046 35.445 56.6031 36.5091V50.5247H58.6161V36.5091C58.6206 35.0237 57.9507 33.5923 56.742 32.5042Z" fill="#373737"/>
<path d="M32.8944 21.1934L31.44 22.0043V20.2099H29.427V22.0043L27.9725 21.1934L26.8553 22.5946L29.8749 24.2788C30.2131 24.4676 30.6539 24.4676 30.9921 24.2788L34.0117 22.5946L32.8944 21.1934Z" fill="#373737"/>
</svg>
