<svg xmlns="http://www.w3.org/2000/svg" viewBox="0 0 20 20" style="enable-background:new 0 0 20 20" xml:space="preserve"><path d="M18.6 1.4C17.2 0 14.9 0 10.4 0h-.8C5.1 0 2.8 0 1.4 1.4 0 2.8 0 5.1 0 9.6v.8c0 4.5 0 6.8 1.4 8.2C2.8 20 5.1 20 9.6 20h.8c4.5 0 6.8 0 8.2-1.4 1.4-1.4 1.4-3.7 1.4-8.2v-.8c0-4.5 0-6.8-1.4-8.2zm-4.3 13c-.5-1.6-1.8-2.8-3.5-3v3h-.2c-4.5 0-7.2-3.1-7.2-8.3h2.3c.1 3.8 1.8 5.4 3.1 5.7V6.1H11v3.3c1.3-.1 2.7-1.6 3.2-3.3h2.2c-.4 2-1.9 3.5-2.9 4.2 1.1.5 2.8 1.8 3.4 4.2h-2.6z" style="fill:#cd2d32"/></svg>