<svg xmlns="http://www.w3.org/2000/svg" viewBox="0 0 20 20" style="enable-background:new 0 0 20 20" xml:space="preserve"><path d="M17.9 2C16.3.4 14 0 10 0S3.7.4 2.1 2C.4 3.6 0 6 0 9.9v.1c0 4 .4 6.4 2.1 8 1.6 1.6 3.9 2 7.9 2s6.3-.4 7.9-2c1.6-1.7 2.1-4 2.1-7.9v-.2c0-3.9-.4-6.2-2.1-7.9zm-.3 7.9v.3c0 .1-.1.1-.1.1-2.7.1-4.4.4-5.6 1.6-1.1 1.1-1.5 2.9-1.6 5.6 0 .1-.1.1-.1.1h-.3c-.1 0-.1-.1-.1-.1-.1-2.7-.4-4.4-1.6-5.6-1.1-1.1-2.9-1.5-5.6-1.6-.1 0-.1-.1-.1-.1v-.3c0-.1.1-.1.1-.1 2.7-.1 4.4-.4 5.6-1.6 1.1-1.1 1.5-2.9 1.6-5.6 0-.1.1-.1.1-.1h.3c.1 0 .1.1.1.1.1 2.7.4 4.4 1.6 5.6 1.1 1.1 2.9 1.5 5.6 1.6.1-.1.1 0 .1.1z" style="fill:#cd2d32"/></svg>