<svg width="28" height="36" viewBox="0 0 28 36" fill="none" xmlns="http://www.w3.org/2000/svg">
<path d="M25.3258 17.0328L20.2066 11.9381V3.16406C20.2066 1.4194 18.7803 0 17.0272 0H3.17936C1.42626 0 0 1.4194 0 3.16406V32.8359C0 34.5806 1.42626 36 3.17936 36H24.799C25.3039 36 25.7386 35.6456 25.838 35.153L27.813 25.3692C28.4299 22.313 27.5001 19.1966 25.3258 17.0328ZM3.17936 2.10938H17.0272C17.6116 2.10938 18.087 2.58251 18.087 3.16406V16.7681C16.7872 15.4922 14.6989 15.4992 13.4079 16.7839C12.1141 18.0693 12.1079 20.156 13.3992 21.4498L17.4586 25.6498C16.5786 26.3034 15.4386 27.4442 14.6198 29.3203H2.11957V3.16406C2.11957 2.58251 2.59492 2.10938 3.17936 2.10938ZM2.11957 32.8359V31.4297H13.9347C13.7667 32.1692 13.6479 32.987 13.5955 33.8906H3.17936C2.59492 33.8906 2.11957 33.4175 2.11957 32.8359ZM25.7349 24.9538L23.931 33.8906C22.2268 33.8906 17.4697 33.8906 15.72 33.8906C15.8729 31.6504 16.5208 29.773 17.6168 28.4179C18.5254 27.2943 19.4505 26.8915 19.5242 26.8607C20.2176 26.6137 20.4655 25.7179 19.9106 25.1439C14.8997 19.9593 14.9151 19.9751 14.906 19.9662C14.4406 19.503 14.4332 18.7459 14.906 18.2761C15.3733 17.8112 16.1327 17.8099 16.6015 18.2727C18.842 20.5533 17.7525 19.4589 21.6733 23.3608C22.0871 23.7727 22.7581 23.7727 23.172 23.3608C23.5859 22.9489 23.5859 22.2811 23.172 21.8692L20.2066 18.9181V14.9213L23.827 18.5243C25.4985 20.1878 26.2118 22.5913 25.7349 24.9538Z" fill="black"/>
</svg>
