<svg width="30" height="30" viewBox="0 0 30 30" fill="none" xmlns="http://www.w3.org/2000/svg">
<path d="M29.3167 25.4765H28.2651V23.1135C28.2651 22.7422 27.9369 22.4384 27.5686 22.4384H26.0548V12.0412H27.9704C28.3321 12.0479 28.6335 11.7576 28.6402 11.393C28.6469 11.1905 28.5532 10.988 28.3924 10.8597L15.4253 0.151907C15.1774 -0.0506358 14.8225 -0.0506358 14.5746 0.151907L1.6075 10.8732C1.38647 11.0487 1.30609 11.3458 1.39986 11.6091C1.49363 11.8724 1.74815 12.0479 2.02946 12.0412H3.95176V22.4384H2.43804C2.06965 22.4384 1.74145 22.7422 1.74145 23.1135V25.4765H0.689884C0.321499 25.4765 0 25.7533 0 26.1247V29.3451C0 29.7164 0.321499 30 0.689884 30H29.31C29.6784 30 29.9999 29.7164 29.9999 29.3451V26.1247C30.0066 25.7533 29.6851 25.4765 29.3167 25.4765ZM3.90488 10.6909L15.0033 1.52245L26.1017 10.6909H3.90488ZM24.7153 12.0412V22.4384H23.5766V12.0412H24.7153ZM22.237 12.0412V22.4384H20.0937V12.0412H22.237ZM18.7541 12.0412V22.4384H17.6155V12.0412H18.7541ZM16.2759 12.0412V22.4384H13.7307V12.0412H16.2759ZM12.3911 12.0412V22.4384H11.2525V12.0412H12.3911ZM9.91289 12.0412V22.4384H7.76957V12.0412H9.91289ZM6.42999 12.0412V22.4384H5.29134V12.0412H6.42999ZM3.08103 23.7887H26.9256V25.4765H3.08103V23.7887ZM28.667 28.6497H1.33958V26.8268H28.667V28.6497Z" fill="black"/>
<path d="M15.0033 4.5875C13.5499 4.5875 12.371 5.77576 12.371 7.24082C12.371 8.70588 13.5499 9.89413 15.0033 9.89413C16.4568 9.89413 17.6356 8.70588 17.6356 7.24082C17.6356 7.24082 17.6356 7.24082 17.6356 7.23407C17.6356 5.77576 16.4568 4.5875 15.0033 4.5875ZM15.0033 8.54385C14.2866 8.54385 13.7106 7.96322 13.7106 7.24082C13.7106 6.51841 14.2866 5.93779 15.0033 5.93779C15.72 5.93779 16.296 6.51841 16.296 7.24082C16.296 7.95647 15.72 8.54385 15.0033 8.54385Z" fill="black"/>
</svg>
