<svg width="26" height="26" viewBox="0 0 26 26" fill="none" xmlns="http://www.w3.org/2000/svg">
<path d="M8.66711 13.0001C6.27716 13.0001 4.33356 11.0566 4.33356 8.66675C4.33356 6.27689 6.27716 4.33337 8.66711 4.33337C11.0571 4.33337 13.0007 6.27689 13.0007 8.66675C13.0007 11.0566 11.0571 13.0001 8.66711 13.0001ZM8.66711 5.95839C7.1742 5.95839 5.95864 7.17282 5.95864 8.66675C5.95864 10.1607 7.1742 11.3751 8.66711 11.3751C10.16 11.3751 11.3756 10.1607 11.3756 8.66675C11.3756 7.17282 10.16 5.95839 8.66711 5.95839Z" fill="black"/>
<path d="M8.66712 17.3335C3.88828 17.3335 0 13.4454 0 8.66675C0 3.88812 3.88828 0 8.66712 0C13.4459 0 17.3342 3.88812 17.3342 8.66675V10.0209C17.3342 11.6644 15.9984 13.0001 14.3549 13.0001C12.7114 13.0001 11.3756 11.6644 11.3756 10.0209V5.14588C11.3756 4.69738 11.7396 4.33337 12.1881 4.33337C12.6367 4.33337 13.0007 4.69738 13.0007 5.14588V10.0209C13.0007 10.7673 13.6085 11.3751 14.3549 11.3751C15.1014 11.3751 15.7091 10.7673 15.7091 10.0209V8.66675C15.7091 4.78404 12.55 1.62501 8.66712 1.62501C4.78425 1.62501 1.62508 4.78404 1.62508 8.66675C1.62508 12.5494 4.78425 15.7085 8.66712 15.7085C9.11564 15.7085 9.47966 16.0725 9.47966 16.521C9.47966 16.9695 9.11564 17.3335 8.66712 17.3335Z" fill="black"/>
<path d="M20.2951 14.624C19.9105 15.0086 19.9127 15.6326 20.2995 16.0194L20.6494 16.3693C20.7133 16.4332 20.7144 16.5383 20.6505 16.6022C20.5866 16.6662 20.4826 16.6662 20.4176 16.6012L19.6018 15.7854C19.215 15.3986 18.591 15.3976 18.2064 15.7811C17.8218 16.1656 17.8239 16.7897 18.2107 17.1764L19.0265 17.9922C19.0904 18.0561 19.0915 18.1612 19.0276 18.2251C18.9636 18.289 18.8596 18.289 18.7946 18.224L17.5119 16.9413C17.1251 16.5546 16.5011 16.5535 16.1165 16.937C15.7319 17.3216 15.7341 17.9456 16.1208 18.3323L17.4036 19.615C17.4675 19.6789 17.4686 19.784 17.4047 19.8479C17.3407 19.9118 17.2367 19.9118 17.1717 19.8468L12.6247 15.3001C12.238 14.9133 11.6139 14.9122 11.2293 15.2957C10.8447 15.6803 10.8469 16.3043 11.2337 16.6911L16.7059 22.163C15.9887 22.0515 14.7818 22.0038 14.0407 22.7437C13.3452 23.4392 13.3636 23.9202 13.5792 24.1369C14.1675 24.7251 14.6203 23.7956 17.3006 25.0761C19.9809 26.3577 21.7035 26.2516 22.8812 25.0935L24.5041 23.4706C24.4954 23.4793 24.5128 23.462 24.5041 23.4706C26.1541 21.8207 26.6265 19.5652 24.9613 17.9012C24.958 17.8979 24.9559 17.8957 24.9526 17.8925L21.6884 14.6284C21.3038 14.2416 20.6797 14.2405 20.2951 14.624Z" fill="black"/>
</svg>
