<svg width="44" height="44" viewBox="0 0 44 44" fill="none" xmlns="http://www.w3.org/2000/svg">
<path d="M27.1562 22.3438C26.6818 22.3438 26.2968 22.7288 26.2968 23.2031C26.2968 23.6775 26.6818 24.0625 27.1562 24.0625C27.6305 24.0625 28.0156 23.6775 28.0156 23.2031C28.0156 22.7288 27.6305 22.3438 27.1562 22.3438Z" fill="black"/>
<path d="M8.78 31.7784L0.186253 42.6065C-0.0188552 42.8647 -0.0577956 43.2175 0.0855454 43.5143C0.228886 43.8113 0.529667 44 0.859318 44H43.1405C43.4702 44 43.771 43.8113 43.9143 43.5143C44.058 43.2175 44.0187 42.8647 43.8136 42.6065L35.2199 31.7784C35.057 31.573 34.809 31.4531 34.5468 31.4531H27.0189L33.4457 21.3729C34.9533 19.1127 35.7499 16.4768 35.7499 13.75C35.7499 6.16837 29.5819 0 21.9999 0C14.418 0 8.24994 6.16837 8.24994 13.75C8.24994 16.4768 9.04654 19.1124 10.5541 21.3729L16.981 31.4531H9.45306C9.19089 31.4531 8.94314 31.573 8.78 31.7784ZM5.57144 38.5859H10.7676L7.83502 42.2812H2.63849L5.57144 38.5859ZM18.077 33.1719L20.4329 36.8672H14.326L17.2589 33.1719H18.077ZM25.9232 33.1719H26.7413L29.6739 36.8672H23.5673L25.9232 33.1719ZM31.0381 38.5859L33.9707 42.2812H10.0291L12.9621 38.5859H31.0381ZM36.1652 42.2812L33.2322 38.5859H38.4288L41.3614 42.2812H36.1652ZM37.0645 36.8672H31.8683L28.9354 33.1719H34.1319L37.0645 36.8672ZM11.9889 20.4263C10.6673 18.4477 9.96869 16.1391 9.96869 13.75C9.96869 7.11603 15.366 1.71875 21.9999 1.71875C28.6339 1.71875 34.0312 7.11603 34.0312 13.75C34.0312 16.1391 33.3326 18.4477 32.0113 20.4263C32.0076 20.4313 32.0046 20.4363 32.0012 20.4414C31.4369 21.3266 22.4347 35.4465 21.9999 36.128C20.9066 34.4129 13.1121 22.1877 11.9986 20.4414C11.9956 20.4363 11.9922 20.4313 11.9889 20.4263ZM15.0645 33.1719L12.1319 36.8672H6.93536L9.86831 33.1719H15.0645Z" fill="black"/>
<path d="M21.9999 22.3438C26.7178 22.3438 30.5937 18.5232 30.5937 13.75C30.5937 9.01135 26.7386 5.15625 21.9999 5.15625C17.2613 5.15625 13.4062 9.01135 13.4062 13.75C13.4062 18.5246 17.2834 22.3438 21.9999 22.3438ZM21.9999 6.875C25.7909 6.875 28.8749 9.95901 28.8749 13.75C28.8749 17.5762 25.7661 20.625 21.9999 20.625C18.2328 20.625 15.1249 17.5762 15.1249 13.75C15.1249 9.95901 18.2089 6.875 21.9999 6.875Z" fill="black"/>
<path d="M25.6197 25.2764C25.2135 25.0313 24.6851 25.1622 24.4401 25.5688L21.2638 30.8385C21.0187 31.245 21.1496 31.773 21.5561 32.0181C21.9643 32.2642 22.4917 32.1306 22.7358 31.7257L25.9121 26.456C26.1572 26.0495 26.0262 25.5214 25.6197 25.2764Z" fill="black"/>
</svg>
