<svg width="26" height="25" viewBox="0 0 26 25" fill="none" xmlns="http://www.w3.org/2000/svg">
<path d="M21.9206 6.3887V0H4.07943V6.3887L0 9.3925V25H26V9.3925L21.9206 6.3887ZM9.24182 17.0057L1.52344 22.6889V11.3225L9.24182 17.0057ZM13 16.1684L22.8613 23.4295H3.1387L13 16.1684ZM16.7582 17.0057L24.4766 11.3225V22.6889L16.7582 17.0057ZM23.9278 9.79658L21.9206 11.2745V8.31866L23.9278 9.79658ZM20.3971 1.57048V12.3963L15.4477 16.0407L13 14.2385L10.5523 16.0407L5.60287 12.3963V1.57048H20.3971ZM4.07943 11.2746L2.07224 9.79663L4.07943 8.31871V11.2746Z" fill="black"/>
<path d="M7.75511 3.60454H12.9999V5.17501H7.75511V3.60454Z" fill="black"/>
<path d="M7.75511 7.20904H18.2448V8.77951H7.75511V7.20904Z" fill="black"/>
<path d="M7.75511 10.8136H18.2448V12.384H7.75511V10.8136Z" fill="black"/>
</svg>
