<svg width="28" height="28" viewBox="0 0 28 28" fill="none" xmlns="http://www.w3.org/2000/svg">
<path d="M23.8995 4.10052C21.2553 1.45627 17.7395 0 14 0C10.2605 0 6.74472 1.45627 4.10047 4.10052C1.45622 6.74477 0 10.2605 0 14C0 17.7395 1.45622 21.2553 4.10047 23.8995C6.74472 26.5437 10.2605 28 14 28C17.7395 28 21.2553 26.5437 23.8995 23.8995C26.5438 21.2552 28 17.7395 28 14C28 10.2605 26.5438 6.74472 23.8995 4.10052ZM14 26.3432C7.19398 26.3432 1.65681 20.806 1.65681 14C1.65681 7.19398 7.19398 1.65681 14 1.65681C20.806 1.65681 26.3432 7.19398 26.3432 14C26.3432 20.806 20.806 26.3432 14 26.3432Z" fill="black"/>
<path d="M14 2.74794C13.9694 2.74794 13.939 2.74887 13.9085 2.74909C13.9008 2.74887 13.8933 2.74794 13.8855 2.74794C13.8725 2.74794 13.8598 2.74925 13.847 2.74985C7.7298 2.83188 2.77577 7.81922 2.74854 13.9493C2.74848 13.9536 2.74788 13.9578 2.74788 13.962C2.74788 13.9646 2.74827 13.9671 2.74827 13.9696C2.74827 13.9798 2.74788 13.9899 2.74788 13.9999C2.74788 20.2044 7.79548 25.252 13.9999 25.252C20.2044 25.252 25.2521 20.2044 25.2521 14C25.2521 7.79559 20.2045 2.74794 14 2.74794ZM14.8284 23.5591V22.5089C14.8284 22.0514 14.4575 21.6805 14 21.6805C13.5425 21.6805 13.1716 22.0514 13.1716 22.5089V23.5591C8.52764 23.16 4.81841 19.4394 4.43745 14.7904H5.33848C5.796 14.7904 6.16689 14.4195 6.16689 13.962C6.16689 13.5045 5.796 13.1336 5.33848 13.1336H4.44429C4.8557 8.55821 8.49204 4.89836 13.0571 4.45107V5.30059C13.0571 5.7581 13.428 6.12899 13.8855 6.12899C14.3431 6.12899 14.7139 5.7581 14.7139 5.30059V4.43127C19.3476 4.77373 23.0766 8.42116 23.5455 13.0192H22.547C22.0895 13.0192 21.7186 13.3901 21.7186 13.8476C21.7186 14.3051 22.0895 14.676 22.547 14.676H23.5712C23.2422 19.3782 19.5104 23.1568 14.8284 23.5591Z" fill="black"/>
<path d="M17.3533 10.6466C17.0299 10.323 16.5054 10.323 16.1819 10.6466L14 12.8285L9.76812 8.59666C9.44464 8.27312 8.92013 8.27312 8.5966 8.59666C8.27307 8.92019 8.27307 9.44464 8.5966 9.76817L13.4142 14.5858C13.5696 14.7411 13.7802 14.8284 13.9999 14.8284C14.2196 14.8284 14.4304 14.7411 14.5857 14.5858L17.3533 11.8181C17.6769 11.4946 17.6769 10.9701 17.3533 10.6466Z" fill="black"/>
</svg>
