<svg width="19" height="18" viewBox="0 0 19 18" fill="none" xmlns="http://www.w3.org/2000/svg">
<path fill-rule="evenodd" clip-rule="evenodd" d="M17.8394 3.30767C18.0469 3.30767 18.2427 3.40298 18.3704 3.56639C18.498 3.72979 18.5437 3.94267 18.494 4.14403L16.8531 10.7749C16.7787 11.0757 16.5086 11.287 16.1986 11.287H5.70139C5.3894 11.287 5.11807 11.073 5.04547 10.7693L2.85389 1.59935H1.16084C0.788397 1.59935 0.486511 1.29747 0.486511 0.925024C0.486511 0.552581 0.788397 0.250697 1.16084 0.250732H3.38615C3.69814 0.250732 3.96947 0.464945 4.04207 0.768378L4.64898 3.30767H17.8394ZM6.23365 9.93838H15.671L16.9778 4.65632H4.97128L6.23365 9.93838Z" fill="#373737"/>
<path fill-rule="evenodd" clip-rule="evenodd" d="M14.2478 13C13.0083 13 12 14.0084 12 15.2478C12 16.4872 13.0084 17.4955 14.2478 17.4955C15.4872 17.4955 16.4955 16.4872 16.4955 15.2478C16.4955 14.0084 15.4872 13 14.2478 13ZM13.3486 15.2478C13.3486 15.7436 13.7519 16.1469 14.2478 16.1469C14.7436 16.1469 15.1469 15.7436 15.1469 15.2478C15.1469 14.7519 14.7436 14.3487 14.2478 14.3487C13.7519 14.3487 13.3486 14.7519 13.3486 15.2478Z" fill="#373737"/>
<path fill-rule="evenodd" clip-rule="evenodd" d="M7.24776 13C6.00831 13 4.99999 14.0084 4.99999 15.2478C4.99999 16.4872 6.00835 17.4955 7.24776 17.4955C8.48717 17.4955 9.49553 16.4872 9.49553 15.2478C9.49553 14.0084 8.48717 13 7.24776 13ZM6.34865 15.2478C6.34865 15.7436 6.7519 16.1469 7.24776 16.1469C7.74361 16.1469 8.14687 15.7436 8.14687 15.2478C8.14687 14.7519 7.74361 14.3487 7.24776 14.3487C6.7519 14.3487 6.34865 14.7519 6.34865 15.2478Z" fill="#373737"/>
</svg>
