<svg width="24" height="24" viewBox="0 0 24 24" fill="none" xmlns="http://www.w3.org/2000/svg">
<path fill-rule="evenodd" clip-rule="evenodd" d="M12 22.4C17.7438 22.4 22.4 17.7438 22.4 12C22.4 6.25624 17.7438 1.6 12 1.6C6.25624 1.6 1.6 6.25624 1.6 12C1.6 17.7438 6.25624 22.4 12 22.4ZM12 24C18.6274 24 24 18.6274 24 12C24 5.37258 18.6274 0 12 0C5.37258 0 0 5.37258 0 12C0 18.6274 5.37258 24 12 24Z" fill="white"/>
<path fill-rule="evenodd" clip-rule="evenodd" d="M17.3773 7.73108L12.5377 12.6932C12.2407 12.9977 11.7592 12.9977 11.4623 12.6932L6.62273 7.73108C6.32576 7.42658 6.32576 6.93288 6.62273 6.62838C6.91971 6.32387 7.40121 6.32387 7.69819 6.62838L12 11.0392L16.3018 6.62838C16.5988 6.32387 17.0803 6.32387 17.3773 6.62838C17.6742 6.93288 17.6742 7.42658 17.3773 7.73108Z" fill="white"/>
<path fill-rule="evenodd" clip-rule="evenodd" d="M6.62275 16.2689L11.4623 11.3068C11.7593 11.0023 12.2408 11.0023 12.5377 11.3068L17.3773 16.2689C17.6742 16.5734 17.6742 17.0671 17.3773 17.3716C17.0803 17.6761 16.5988 17.6761 16.3018 17.3716L12 12.9608L7.6982 17.3716C7.40122 17.6761 6.91972 17.6761 6.62275 17.3716C6.32577 17.0671 6.32577 16.5734 6.62275 16.2689Z" fill="white"/>
</svg>
