<svg width="29" height="28" viewBox="0 0 29 28" fill="none" xmlns="http://www.w3.org/2000/svg">
<path d="M28.8327 5.34038C28.6667 5.0963 28.3995 4.94544 28.1094 4.93272L10.1204 4.13724C9.60426 4.11407 9.17294 4.52286 9.15088 5.0499C9.12894 5.57673 9.52677 6.02188 10.0404 6.04451L26.8115 6.7862L23.514 17.3411H8.8395L6.18833 2.53204C6.13005 2.20747 5.91284 1.93669 5.61327 1.81612L1.27111 0.0661058C0.79255 -0.126106 0.252531 0.115041 0.0645852 0.605391C-0.123036 1.09601 0.111961 1.65034 0.590262 1.84315L4.45113 3.39915L7.14909 18.4682C7.2304 18.9212 7.61525 19.2502 8.06441 19.2502H8.51195L7.49 22.1623C7.40446 22.4063 7.4397 22.6772 7.58527 22.8891C7.73064 23.1011 7.96707 23.2272 8.21946 23.2272H8.93626C8.49209 23.7343 8.21946 24.402 8.21946 25.1363C8.21946 26.7154 9.47193 28 11.0109 28C12.5498 28 13.8023 26.7154 13.8023 25.1363C13.8023 24.4021 13.5296 23.7343 13.0855 23.2272H19.1715C18.7272 23.7343 18.4546 24.402 18.4546 25.1363C18.4546 26.7154 19.7067 28 21.246 28C22.7853 28 24.0374 26.7154 24.0374 25.1363C24.0374 24.4021 23.7648 23.7343 23.3208 23.2272H24.1925C24.6208 23.2272 24.9679 22.8711 24.9679 22.4318C24.9679 21.9924 24.6208 21.6363 24.1925 21.6363H9.32273L10.16 19.2499H24.1924C24.5971 19.2499 24.9551 18.9818 25.0784 18.5868L28.9553 6.17747C29.0444 5.89424 28.9987 5.58459 28.8327 5.34038ZM11.0109 26.4094C10.3267 26.4094 9.77027 25.8386 9.77027 25.1367C9.77027 24.4347 10.3267 23.8639 11.0109 23.8639C11.6952 23.8639 12.2515 24.4347 12.2515 25.1367C12.2515 25.8386 11.6952 26.4094 11.0109 26.4094ZM21.246 26.4094C20.5618 26.4094 20.0054 25.8386 20.0054 25.1367C20.0054 24.4347 20.5618 23.8639 21.246 23.8639C21.9302 23.8639 22.4866 24.4347 22.4866 25.1367C22.4866 25.8386 21.9302 26.4094 21.246 26.4094Z" fill="#1F1F1F"/>
</svg>
