<svg width="39" height="27" viewBox="0 0 39 27" fill="none" xmlns="http://www.w3.org/2000/svg">
<path d="M37.6761 12.0334L35.0204 10.898L32.7653 6.56291C32.1558 5.37591 30.9193 4.63618 29.5697 4.64479H25.6863V3.561C25.6863 1.59987 24.1016 0 22.1164 0H3.55275C1.56752 0 0.000231679 1.60847 0.000231679 3.561V20.1618C-0.0171826 21.3574 0.949311 22.338 2.15961 22.3552C2.16831 22.3552 2.17702 22.3552 2.19443 22.3552H2.65591C2.65591 22.4412 2.64721 22.4756 2.64721 22.5272C2.6385 24.9872 4.64985 26.9914 7.1401 27C9.63034 27.0086 11.6591 25.0216 11.6678 22.5616C11.6678 22.5444 11.6678 22.5358 11.6678 22.5186C11.6678 22.4584 11.6678 22.4326 11.6591 22.3466H26.6615C26.6615 22.4326 26.6615 22.467 26.6615 22.5186C26.6528 24.9786 28.6642 26.9828 31.1544 26.9914C33.6447 27 35.6734 25.013 35.6822 22.553C35.6822 22.5358 35.6822 22.5272 35.6822 22.51C35.6822 22.4498 35.6822 22.424 35.6822 22.338H36.8054C38.0157 22.338 38.9996 21.366 38.9996 20.1704C38.9996 20.1618 38.9996 20.1532 38.9996 20.136V14.029C39.017 13.186 38.4946 12.3861 37.6761 12.0334ZM7.16622 25.2883C5.63376 25.2883 4.39734 24.0669 4.39734 22.553C4.39734 21.0392 5.63376 19.8178 7.16622 19.8178C8.69868 19.8178 9.9351 21.0392 9.9351 22.553C9.9351 24.0583 8.68997 25.2883 7.16622 25.2883ZM23.9449 20.6521H11.2499C10.5185 19.078 8.91636 18.0717 7.16622 18.0803C5.40738 18.0717 3.81397 19.0694 3.08256 20.6521H2.19443C1.92451 20.6521 1.74166 20.4457 1.74166 20.179V15.7493H23.9449V20.6521ZM23.9449 14.029H1.74166V3.5696C1.74166 2.56323 2.53401 1.72889 3.55275 1.72889H22.1164C23.1351 1.73749 23.9536 2.56323 23.9449 3.561V14.029ZM25.6863 6.37368H29.5697C30.2576 6.36508 30.9019 6.73494 31.2241 7.34564L32.9655 10.6744H25.6863V6.37368ZM31.1806 25.2883C29.6481 25.2883 28.4117 24.0669 28.4117 22.553C28.4117 21.0392 29.6481 19.8178 31.1806 19.8178C32.713 19.8178 33.9494 21.0392 33.9494 22.553C33.9494 24.0583 32.713 25.2883 31.1806 25.2883ZM37.2669 20.179C37.2669 20.4457 37.084 20.6521 36.8141 20.6521H35.2642C34.2106 18.4243 31.5288 17.461 29.2737 18.5017C28.3159 18.9404 27.541 19.7059 27.0969 20.6521H25.6863V12.3947H34.2193L36.9882 13.5989C37.1624 13.6849 37.2756 13.8741 37.2669 14.0634V20.179Z" fill="#1F1F1F"/>
</svg>
