<svg width="38" height="27" viewBox="0 0 38 27" fill="none" xmlns="http://www.w3.org/2000/svg">
<path d="M32.9916 17.8747C31.9043 17.1655 30.4784 17.1655 29.3823 17.8747C28.8476 17.5244 28.2237 17.3449 27.5821 17.3449C25.7997 17.3449 24.3649 18.7291 24.3649 20.4294C24.3649 22.1297 25.7997 23.5225 27.5821 23.5225C28.2237 23.5225 28.8476 23.343 29.3823 22.9927C30.8527 23.9497 32.8579 23.5737 33.856 22.1639C34.8541 20.7541 34.462 18.8316 32.9916 17.8747ZM32.2697 21.3266C31.7617 21.9076 30.8616 21.9845 30.2556 21.4975C30.1843 21.4462 30.1309 21.3864 30.0685 21.318C29.8992 21.1215 29.6407 21.0104 29.3823 21.019C29.1149 21.019 28.8654 21.1301 28.6961 21.3266C28.4287 21.6427 28.0188 21.8307 27.591 21.8222C26.7979 21.8222 26.1473 21.207 26.1473 20.4465C26.1384 19.6775 26.78 19.0623 27.5821 19.0623C28.0099 19.0623 28.4198 19.2503 28.6872 19.5665C28.9991 19.9339 29.5605 19.9937 29.9437 19.6946C29.9883 19.6604 30.0328 19.6177 30.0774 19.5665C30.5854 18.9854 31.4855 18.9085 32.0915 19.3956C32.6975 19.8826 32.7777 20.7456 32.2697 21.3266Z" fill="#1F1F1F"/>
<path d="M37.9644 10.6291C37.9644 10.5522 38 10.4668 38 10.3813C38 10.2959 37.9644 10.219 37.9644 10.1421V8.31361C37.9644 6.3057 36.2444 4.69937 34.1501 4.69937H33.0629V3.66551C33.0629 1.65759 31.3963 0 29.3021 0H3.77864C1.68437 0 3.52019e-05 1.65759 3.52019e-05 3.66551V18.6864C-0.00887661 20.6772 1.67546 22.2921 3.75191 22.3006C3.76082 22.3006 3.76973 22.3006 3.77864 22.3006H4.81241V23.3345C4.82133 25.3509 6.51457 26.9915 8.61776 27H34.1501C36.2533 26.9829 37.9554 25.3509 37.9644 23.3345V14.6364C37.9644 14.5595 38 14.4741 38 14.3972C38 14.3203 37.9644 14.2348 37.9644 14.1579V10.6291ZM4.81241 8.31361V20.5918H3.77864C2.6914 20.6003 1.79131 19.763 1.7824 18.7206C1.7824 18.712 1.7824 18.7035 1.7824 18.6949V3.66551C1.7824 2.60601 2.66467 1.70886 3.77864 1.70886H29.311C30.425 1.70886 31.2894 2.60601 31.2894 3.66551V4.69937H8.61776C6.52348 4.69937 4.81241 6.3057 4.81241 8.31361ZM36.182 23.3345C36.1731 24.4111 35.273 25.2826 34.1501 25.2911H8.61776C7.49487 25.2826 6.59478 24.4111 6.59478 23.3345V15.2089H36.182V23.3345ZM36.182 13.5H6.59478V11.2785H36.182V13.5ZM36.1909 9.56962H6.59478V8.31361C6.60369 7.25411 7.50378 6.39968 8.61776 6.40823H34.159C35.273 6.40823 36.1909 7.24557 36.1909 8.31361V9.56962Z" fill="#1F1F1F"/>
</svg>
