<svg width="42" height="42" viewBox="0 0 42 42" fill="none" xmlns="http://www.w3.org/2000/svg">
<g clip-path="url(#clip0)">
<path d="M34.0863 21.2953L30.0996 19.8433C29.9765 19.7941 29.8289 19.7695 29.6813 19.7695H4.13672C3.44758 19.7695 2.90625 20.3109 2.90625 21V38.3086C2.90625 40.3511 4.555 42 6.59766 42H31.2071C33.2497 42 34.8985 40.3511 34.8985 38.3086V22.4519C34.8985 21.9352 34.5785 21.4676 34.0863 21.2953Z" fill="#FC1A40"/>
<path d="M34.8985 22.4519V38.3086C34.8985 40.3511 33.2497 42 31.2071 42H18.9023V19.7695H29.6813C29.8289 19.7695 29.9766 19.7941 30.0995 19.8433L34.0863 21.2953C34.5785 21.4676 34.8985 21.9352 34.8985 22.4519Z" fill="#C60034"/>
<path d="M34.4561 8.02167C34.0378 6.32362 32.7826 4.9948 31.0846 4.45331C29.4112 3.93643 27.6146 4.30565 26.3104 5.48682L23.4556 7.99706L22.8897 4.2319C22.619 2.50924 21.5115 1.05721 19.8628 0.368224C19.5429 0.245095 19.2229 0.146657 18.903 0.0974382C17.5495 -0.173265 16.1468 0.122048 15.0146 0.95885C13.5135 2.04166 12.7507 3.86276 12.9967 5.68378C13.2675 7.50487 14.4979 9.05527 16.2451 9.6705L18.903 10.6303L22.1761 11.8361C22.2007 11.8361 22.2007 11.8361 22.2007 11.8361L27.8855 13.9279C28.4514 14.1248 29.042 14.2233 29.608 14.2233C30.8141 14.2233 31.9952 13.7802 32.9304 12.9436C34.3084 11.7131 34.8991 9.81808 34.4561 8.02167Z" fill="#FE9923"/>
<path d="M32.9297 12.9436C31.9946 13.7803 30.8133 14.2234 29.6074 14.2234C29.0414 14.2234 28.4508 14.1249 27.8848 13.9279L22.2 11.8362C22.2 11.8362 22.2 11.8362 22.1754 11.8362L18.9023 10.6303V0.0974121C19.2223 0.146713 19.5422 0.245069 19.8621 0.368198C21.5109 1.05718 22.6184 2.50922 22.889 4.23188L23.4549 7.99704L26.3097 5.48679C27.6139 4.30562 29.4105 3.9364 31.0839 4.45328C32.782 4.99477 34.037 6.3236 34.4554 8.02165C34.8985 9.81813 34.3078 11.7131 32.9297 12.9436Z" fill="#FE8821"/>
<path d="M39.1067 19.2033L37.4333 23.8299C37.2363 24.3221 36.7688 24.6174 36.2766 24.6174C36.1289 24.6174 35.9813 24.5928 35.8583 24.5436L23.1351 19.9171L21.9786 16.1026L18.9024 16.7916L16.1954 17.4068L3.47229 12.7803C2.83245 12.5342 2.51261 11.8205 2.73401 11.2053L4.43206 6.57885C4.75198 5.64369 5.44113 4.90524 6.32707 4.48697C7.21301 4.06869 8.22191 4.01939 9.15707 4.36392L18.9025 7.90767L19.567 8.15369C19.567 8.15369 22.2248 12.9772 22.2987 12.9772C22.348 12.9772 23.4061 12.3866 24.4397 11.8205C25.473 11.2545 26.5067 10.6639 26.5067 10.6639L36.8918 14.4537C37.827 14.7982 38.5652 15.4874 38.9835 16.3733C39.402 17.2592 39.4512 18.2682 39.1067 19.2033Z" fill="#FF3E75"/>
<path d="M39.1067 19.2034L37.4333 23.8299C37.2363 24.3221 36.7687 24.6174 36.2765 24.6174C36.1289 24.6174 35.9812 24.5928 35.8582 24.5437L23.1351 19.9171L21.9785 16.1026L18.9023 16.7916V7.90771L19.5669 8.15373C19.5669 8.15373 22.2246 12.9773 22.2985 12.9773C22.3478 12.9773 23.406 12.3866 24.4396 11.8205C25.473 11.2545 26.5067 10.664 26.5067 10.664L36.8918 14.4537C37.8269 14.7983 38.5652 15.4874 38.9835 16.3734C39.402 17.2592 39.4511 18.2683 39.1067 19.2034Z" fill="#FC1A40"/>
<path d="M15.2109 19.7695V42H22.5938V19.7695H15.2109V19.7695Z" fill="#FCBF29"/>
<path d="M19.5668 8.15381L18.9023 9.97491L16.1953 17.407L18.9023 18.3915L21.9784 19.4989L23.135 19.9172L26.5067 10.6641L19.5668 8.15381Z" fill="#FCBF29"/>
<path d="M22.5938 19.7695H18.9023V42H22.5938V19.7695Z" fill="#FE9923"/>
<path d="M26.5067 10.6641L23.1351 19.9172L21.9785 19.4988L18.9023 18.3914V9.97491L19.5668 8.15381L26.5067 10.6641Z" fill="#FE9923"/>
</g>
<defs>
<clipPath id="clip0">
<rect width="42" height="42" fill="white"/>
</clipPath>
</defs>
</svg>
