<svg width="17" height="18" viewBox="0 0 17 18" fill="none" xmlns="http://www.w3.org/2000/svg">
<path fill-rule="evenodd" clip-rule="evenodd" d="M14.6057 17.3242H2.15089C0.967507 17.3242 0 16.4483 0 15.1737V2.71829C0 1.44324 0.967507 0.567627 2.15089 0.567627H14.6057C15.7888 0.567627 16.7565 1.44324 16.7565 2.71829V15.1737C16.7565 16.4483 15.7886 17.3242 14.6057 17.3242ZM8.3942 12.1703C10.2526 12.1703 11.7592 10.7104 11.7592 8.90949C11.7592 7.10862 10.2526 5.64872 8.3942 5.64872C6.53577 5.64872 5.02921 7.10862 5.02921 8.90949C5.02921 10.7104 6.53577 12.1703 8.3942 12.1703ZM8.39423 14.1376C11.2707 14.1376 13.6026 11.8786 13.6026 9.09142C13.6026 8.59196 13.527 8.10949 13.3876 7.65376H14.8627V14.732C14.8627 15.0986 14.5629 15.398 14.1962 15.398H2.52778C2.16138 15.398 1.86176 15.0986 1.86176 14.732V7.65376H3.40084C3.26126 8.10949 3.18589 8.59196 3.18589 9.09142C3.18589 11.8786 5.51777 14.1376 8.39423 14.1376ZM14.1004 5.74364H12.2065C11.7913 5.74364 11.4519 5.40423 11.4521 4.98945V3.18378C11.4521 2.76853 11.7913 2.42936 12.2065 2.42936H14.1004C14.5154 2.42936 14.8546 2.76853 14.8546 3.18378V4.98945C14.8546 5.40446 14.5154 5.74364 14.1004 5.74364Z" fill="#CD2D32"/>
</svg>
