<svg width="11" height="17" viewBox="0 0 11 17" fill="none" xmlns="http://www.w3.org/2000/svg">
<path fill-rule="evenodd" clip-rule="evenodd" d="M10.3629 14.6684C10.3629 15.6233 9.5887 16.3975 8.63378 16.3975H2.36591C1.41107 16.3975 0.63681 15.6234 0.63681 14.6684V2.27694C0.63681 1.3221 1.41098 0.547852 2.36591 0.547852H8.63378C9.58862 0.547852 10.3629 1.32202 10.3629 2.27694V14.6684ZM5.49953 15.8169C6.03884 15.8169 6.47604 15.3797 6.47604 14.8404C6.47604 14.3011 6.03884 13.8639 5.49953 13.8639C4.96022 13.8639 4.52303 14.3011 4.52303 14.8404C4.52303 15.3797 4.96022 15.8169 5.49953 15.8169ZM2.77515 1.68736H8.22369C8.52911 1.68736 8.77744 1.92403 8.77761 2.21495V12.5143C8.77761 12.8049 8.52911 13.0419 8.22369 13.0419H2.77515C2.46957 13.0419 2.22123 12.8052 2.22123 12.5143V2.21495C2.22123 1.92428 2.46973 1.68736 2.77515 1.68736Z" fill="#373737"/>
</svg>
