<svg width="9" height="8" viewBox="0 0 9 8" fill="none" xmlns="http://www.w3.org/2000/svg">
<path d="M8.69766 2.64307C8.57158 2.54047 8.41639 2.47433 8.24883 2.4518L6.19733 2.17595L5.27988 0.455747C5.20494 0.31525 5.08899 0.199083 4.94459 0.119844C4.81062 0.0463455 4.65711 0.00747996 4.5006 0.00747996C4.34409 0.00747996 4.19056 0.0463316 4.0566 0.119844C3.9122 0.199083 3.79627 0.315237 3.72133 0.455747L2.80388 2.17597L0.752391 2.4518C0.584823 2.47433 0.429615 2.54047 0.303554 2.64307C0.18661 2.73824 0.0992464 2.86136 0.0508786 2.9991C0.0025257 3.13683 -0.00499254 3.28395 0.0291459 3.42456C0.0659599 3.57612 0.149512 3.71406 0.270776 3.82342L1.75525 5.16243L1.4048 7.05312C1.36138 7.2874 1.43108 7.5256 1.59603 7.70667C1.76221 7.88907 2.00468 7.99368 2.26125 7.99368C2.40099 7.99368 2.54085 7.96157 2.6657 7.90083L4.50061 7.00817L6.33552 7.90083C6.46038 7.96157 6.60022 7.99368 6.73996 7.99368C6.99653 7.99368 7.239 7.88907 7.40519 7.70667C7.57014 7.5256 7.63984 7.28742 7.59642 7.05312L7.24599 5.16243L8.73046 3.82342C8.85171 3.71405 8.93526 3.57612 8.97208 3.42456C9.00623 3.28395 8.99871 3.13683 8.95036 2.9991C8.90198 2.86137 8.8146 2.73826 8.69766 2.64307ZM8.28348 3.39912L6.64406 4.87792C6.59016 4.92654 6.56556 4.99658 6.57829 5.06522L6.96531 7.1533C6.99066 7.29009 6.87321 7.40117 6.73996 7.40117C6.70479 7.40117 6.66854 7.39342 6.6335 7.37638L4.60705 6.39054C4.57373 6.37433 4.53717 6.36622 4.50063 6.36622C4.46408 6.36622 4.42752 6.37433 4.39421 6.39054L2.36775 7.37638C2.33273 7.39342 2.29644 7.40117 2.26128 7.40117C2.12802 7.40117 2.01058 7.29009 2.03593 7.1533L2.42295 5.06522C2.43568 4.99658 2.41108 4.92654 2.35718 4.87792L0.717715 3.39912C0.581983 3.2767 0.656881 3.0634 0.844449 3.03817L3.11011 2.73353C3.18459 2.72351 3.24898 2.68022 3.2823 2.61776L4.29554 0.717972C4.33748 0.639328 4.41905 0.600006 4.50061 0.600006C4.58219 0.600006 4.66374 0.639342 4.70567 0.717972L5.71891 2.61776C5.75223 2.68021 5.8166 2.72351 5.8911 2.73353L8.15675 3.03817C8.34433 3.0634 8.41921 3.2767 8.28348 3.39912Z" fill="#CD2D32"/>
<path d="M6.73932 7.99999C6.59837 7.99999 6.45733 7.96761 6.33142 7.90634L4.49999 7.01536L2.66856 7.90635C2.54263 7.96762 2.40158 8 2.26063 8C2.00184 8 1.7573 7.8945 1.58968 7.71053C1.42331 7.52792 1.35302 7.28765 1.39681 7.05135L1.74658 5.16426L0.264919 3.82778C0.142624 3.71748 0.0583693 3.57836 0.0212266 3.42549C-0.0132108 3.28366 -0.00563282 3.13528 0.0431385 2.99638C0.0919249 2.85747 0.180051 2.7333 0.297996 2.63731C0.425149 2.53382 0.581701 2.46712 0.750705 2.44439L2.79831 2.16907L3.71402 0.452112C3.78961 0.310398 3.90654 0.193249 4.0522 0.113319C4.18732 0.0391836 4.34215 0 4.5 0C4.65784 0 4.81269 0.0391836 4.94781 0.113319C5.09345 0.193235 5.21039 0.310398 5.28598 0.452112L6.20169 2.16907L8.24931 2.44439C8.4183 2.4671 8.57483 2.53381 8.70199 2.63731C8.81995 2.7333 8.90808 2.85747 8.95685 2.99639C9.00564 3.13531 9.01322 3.28369 8.97876 3.4255C8.94163 3.57838 8.85736 3.71748 8.73505 3.8278L7.2534 5.16426L7.60316 7.05135C7.64696 7.28765 7.57666 7.52792 7.41028 7.71053C7.24265 7.89448 6.99809 7.99999 6.73932 7.99999ZM4.49997 6.99976L4.50346 7.00145L6.33835 7.89411C6.46213 7.95433 6.60079 7.98615 6.7393 7.98615C6.99366 7.98615 7.23405 7.88244 7.39883 7.70161C7.56234 7.52211 7.63144 7.28595 7.5884 7.05369L7.23731 5.1594L8.72461 3.81786C8.84481 3.70943 8.92764 3.57269 8.96413 3.42245C8.998 3.28306 8.99056 3.13719 8.94261 3.00064C8.89466 2.86408 8.80804 2.74202 8.6921 2.64767C8.56711 2.54595 8.41325 2.48038 8.24712 2.45806L6.19172 2.1817L6.18999 2.17843L5.27256 0.458198C5.19826 0.318891 5.08332 0.203747 4.94017 0.125186C4.80735 0.0523094 4.65515 0.0137896 4.49999 0.0137896C4.34482 0.0137896 4.19261 0.0523094 4.0598 0.125186C3.91666 0.203733 3.80172 0.318891 3.72742 0.458198L2.80822 2.18167L0.752842 2.45804C0.586723 2.48038 0.432846 2.54594 0.307861 2.64765C0.191934 2.74201 0.105302 2.86406 0.0573529 3.00062C0.00940364 3.13718 0.00196014 3.28303 0.0358146 3.42243C0.0723147 3.57269 0.15515 3.70943 0.275367 3.81786L1.76265 5.1594L1.76199 5.163L1.41155 7.05369C1.3685 7.28595 1.4376 7.52211 1.60113 7.70161C1.76589 7.88244 2.00626 7.98615 2.26064 7.98615C2.39917 7.98615 2.53782 7.95432 2.66161 7.89411L4.49997 6.99976ZM6.73932 7.40746C6.70125 7.40746 6.66427 7.39886 6.6294 7.38187L4.60294 6.39603C4.53973 6.36526 4.46032 6.36526 4.39705 6.39603L2.37059 7.38187C2.33572 7.39886 2.29873 7.40746 2.26066 7.40746C2.19105 7.40746 2.12494 7.37872 2.07926 7.32859C2.03417 7.27911 2.01595 7.21622 2.02794 7.1515L2.41495 5.06343C2.42727 4.99702 2.40348 4.92929 2.35133 4.88225L0.711873 3.40347C0.647034 3.34499 0.624135 3.25916 0.652116 3.17946C0.680096 3.09977 0.753141 3.04278 0.842762 3.03073L3.10843 2.72609C3.18048 2.71639 3.24275 2.67453 3.27498 2.61411L4.28822 0.714323C4.32829 0.639178 4.40942 0.592498 4.49999 0.592498C4.59053 0.592498 4.67168 0.639178 4.71174 0.714323L5.72498 2.61411C5.75721 2.67454 5.81947 2.71641 5.89155 2.72609L8.1572 3.03073C8.24682 3.04278 8.31988 3.09978 8.34786 3.17947C8.37584 3.25916 8.35294 3.34499 8.28809 3.40347L6.64863 4.88227C6.59648 4.92929 6.5727 4.99702 6.58502 5.06344L6.97204 7.15151C6.98402 7.21622 6.96579 7.27911 6.92069 7.32859C6.87503 7.37872 6.80892 7.40746 6.73932 7.40746ZM4.49997 6.35869C4.53812 6.35869 4.57613 6.36737 4.60988 6.38379L6.63633 7.36963C6.66905 7.38554 6.7037 7.39362 6.73932 7.39362C6.8045 7.39362 6.86647 7.36666 6.90928 7.31965C6.95149 7.27333 6.96854 7.21445 6.9573 7.15384L6.57028 5.06577C6.55714 4.99485 6.58252 4.92256 6.63822 4.87234L8.27765 3.39355C8.33838 3.33877 8.35983 3.25837 8.33363 3.18373C8.30741 3.10909 8.23899 3.0557 8.15503 3.0444L5.88938 2.73976C5.81247 2.72941 5.74598 2.68472 5.71157 2.62021L4.69833 0.720423C4.66078 0.650036 4.58478 0.606316 4.49997 0.606316C4.41515 0.606316 4.33915 0.650036 4.30161 0.720423L3.28837 2.62021C3.25396 2.68472 3.18749 2.72942 3.11056 2.73976L0.844899 3.04441C0.760958 3.0557 0.692532 3.10909 0.66633 3.18373C0.640128 3.25838 0.661577 3.33878 0.722306 3.39357L2.36174 4.87235C2.41742 4.92257 2.44282 4.99488 2.42966 5.06578L2.04265 7.15385C2.03142 7.21446 2.04847 7.27335 2.09067 7.31967C2.13349 7.36666 2.19545 7.39363 2.26063 7.39363C2.29626 7.39363 2.33091 7.38555 2.36361 7.36965L4.39007 6.3838C4.42385 6.36737 4.46184 6.35869 4.49997 6.35869Z" fill="#CD2D32"/>
<path d="M4.49997 6.35869C4.53812 6.35869 4.57613 6.36737 4.60988 6.38379L6.63633 7.36963C6.66905 7.38554 6.7037 7.39362 6.73932 7.39362C6.8045 7.39362 6.86647 7.36666 6.90928 7.31965C6.95149 7.27333 6.96854 7.21445 6.9573 7.15384L6.57028 5.06577C6.55714 4.99485 6.58252 4.92256 6.63822 4.87234L8.27765 3.39355C8.33838 3.33877 8.35983 3.25837 8.33363 3.18373C8.30741 3.10909 8.23899 3.0557 8.15503 3.0444L5.88938 2.73976C5.81247 2.72941 5.74598 2.68472 5.71157 2.62021L4.69833 0.720423C4.66078 0.650036 4.58478 0.606316 4.49997 0.606316C4.41515 0.606316 4.33915 0.650036 4.30161 0.720423L3.28837 2.62021C3.25396 2.68472 3.18749 2.72942 3.11056 2.73976L0.844899 3.04441C0.760958 3.0557 0.692532 3.10909 0.66633 3.18373C0.640128 3.25838 0.661577 3.33878 0.722306 3.39357L2.36174 4.87235C2.41742 4.92257 2.44282 4.99488 2.42966 5.06578L2.04265 7.15385C2.03142 7.21446 2.04847 7.27335 2.09067 7.31967C2.13349 7.36666 2.19545 7.39363 2.26063 7.39363C2.29626 7.39363 2.33091 7.38555 2.36361 7.36965L4.39007 6.3838C4.42385 6.36737 4.46184 6.35869 4.49997 6.35869Z" fill="#CD2D32"/>
</svg>
