<svg width="17" height="16" viewBox="0 0 17 16" fill="none" xmlns="http://www.w3.org/2000/svg">
<path fill-rule="evenodd" clip-rule="evenodd" d="M8.50009 13.8021C5.17417 13.8021 2.46811 11.0964 2.46811 7.77032C2.46811 4.44426 5.17417 1.73853 8.50009 1.73853C11.826 1.73853 14.5321 4.44426 14.5321 7.77032C14.5321 11.0964 11.826 13.8021 8.50009 13.8021ZM9.04993 7.53374H12.4934C12.8418 7.53374 13.1243 7.81622 13.1243 8.16463C13.1243 8.51304 12.8418 8.79552 12.4934 8.79552H8.41904C8.07063 8.79552 7.78814 8.51304 7.78814 8.16463V3.39352C7.78814 3.04511 8.07063 2.76263 8.41904 2.76263C8.76745 2.76263 9.04993 3.04511 9.04993 3.39352V7.53374ZM8.50009 0.108154C4.27515 0.108154 0.837875 3.5454 0.837875 7.77032C0.837875 11.9952 4.27515 15.4325 8.50009 15.4325C12.725 15.4325 16.1623 11.9952 16.1623 7.77032C16.1623 3.5454 12.725 0.108154 8.50009 0.108154Z" fill="#373737"/>
</svg>
