<svg width="23" height="25" viewBox="0 0 23 25" fill="none" xmlns="http://www.w3.org/2000/svg">
<path d="M6.79741 8.61947L8.72891 8.5477L9.14767 20.1338L7.21617 20.2053L6.79741 8.61947Z" fill="black"/>
<path d="M10.5333 8.58353H12.466V20.1697H10.5333V8.58353Z" fill="black"/>
<path d="M13.852 20.1336L14.2708 8.5474L16.2023 8.61922L15.7835 20.2053L13.852 20.1336Z" fill="black"/>
<path d="M23 3.7533V5.7115H20.986L19.3883 24.1067C19.3445 24.6123 18.9267 25 18.4258 25H4.60678C4.10585 25 3.68773 24.612 3.64425 24.1064L2.04649 5.7115H0V3.7533H23ZM5.49195 23.0418H17.5409L19.0459 5.7115H3.98662L5.49195 23.0418Z" fill="black"/>
<path d="M8.34328 0H14.657C15.5451 0 16.2676 0.73203 16.2676 1.63183V4.73237H14.3349V1.9582H8.6654V4.73237H6.73265V1.63183C6.73265 0.73203 7.45517 0 8.34328 0Z" fill="black"/>
</svg>
