<svg width="15" height="16" viewBox="0 0 15 16" fill="none" xmlns="http://www.w3.org/2000/svg">
<path fill-rule="evenodd" clip-rule="evenodd" d="M2.34007 9.759C3.04379 9.05531 3.86659 8.5131 4.76314 8.15077C3.80701 7.3611 3.1958 6.16654 3.1958 4.83136C3.1958 2.45782 5.12653 0.5271 7.50009 0.5271C9.87365 0.5271 11.8044 2.45782 11.8044 4.83136C11.8044 6.16654 11.1932 7.3611 10.237 8.15078C11.1336 8.51311 11.9564 9.05531 12.6601 9.759C14.0381 11.137 14.7974 12.9702 14.7974 14.919V15.1217H13.2835V14.919C13.2835 11.7302 10.6889 9.13563 7.50009 9.13563C4.31129 9.13563 1.71669 11.7302 1.71669 14.919V15.1217H0.202744V14.919C0.202744 12.9702 0.962087 11.137 2.34007 9.759ZM10.2904 4.83136C10.2904 6.36979 9.03851 7.62169 7.50009 7.62169C5.96168 7.62169 4.70974 6.36979 4.70974 4.83136C4.70974 3.29294 5.96168 2.04104 7.50009 2.04104C9.03851 2.04104 10.2904 3.29294 10.2904 4.83136Z" fill="#373737"/>
</svg>
