<svg width="26" height="15" viewBox="0 0 26 15" fill="none" xmlns="http://www.w3.org/2000/svg">
<path d="M22.4419 9.46126C23.2748 10.2759 24.1559 11.0425 24.9036 11.9413C25.2348 12.3389 25.547 12.75 25.7847 13.2124C26.124 13.8718 25.8176 14.5949 25.2282 14.634L21.5674 14.6333C20.622 14.7117 19.8695 14.3298 19.2352 13.6825C18.7288 13.1667 18.259 12.6157 17.7713 12.0822C17.5721 11.8633 17.3622 11.6572 17.1121 11.495C16.6131 11.1699 16.1795 11.2695 15.8936 11.7916C15.6022 12.3228 15.5356 12.9115 15.5079 13.5028C15.468 14.3671 15.2077 14.593 14.3416 14.6337C12.4909 14.7204 10.7349 14.4393 9.1028 13.505C7.66304 12.6808 6.54867 11.5177 5.57762 10.2008C3.68671 7.63364 2.23854 4.81605 0.93735 1.91755C0.6445 1.26478 0.858745 0.915509 1.57789 0.901963C2.77269 0.878898 3.96749 0.881827 5.16229 0.900865C5.64855 0.908553 5.97028 1.18716 6.15711 1.64663C6.80277 3.23738 7.59431 4.75088 8.5862 6.15455C8.85053 6.52835 9.12035 6.90105 9.5046 7.16502C9.9287 7.45644 10.2519 7.36015 10.4519 6.88604C10.5798 6.58473 10.6351 6.26255 10.6628 5.93964C10.7579 4.83362 10.7692 3.72797 10.6047 2.62634C10.5023 1.93696 10.1152 1.49177 9.42892 1.36143C9.0794 1.29517 9.13058 1.16556 9.30059 0.965667C9.59563 0.620059 9.87203 0.40625 10.4245 0.40625L14.5606 0.405518C15.2124 0.533656 15.3587 0.826545 15.4472 1.48408L15.4508 6.08682C15.4431 6.34127 15.5784 7.09545 16.0347 7.26203C16.4003 7.38285 16.6416 7.08923 16.8602 6.85748C17.8521 5.80345 18.5588 4.55941 19.1917 3.2718C19.471 2.70396 19.712 2.11635 19.9459 1.52765C20.12 1.09234 20.3905 0.878166 20.8812 0.885488L24.8641 0.890248C24.9814 0.890248 25.1006 0.891347 25.2169 0.911483C25.8881 1.02644 26.072 1.31567 25.8644 1.97137C25.5375 3.00161 24.9025 3.85977 24.2817 4.72013C23.6163 5.64126 22.9066 6.53018 22.2478 7.45534C21.6424 8.30106 21.6903 8.72684 22.4419 9.46126Z" fill="#CD2D32"/>
</svg>
