<svg width="20" height="22" viewBox="0 0 20 22" fill="none" xmlns="http://www.w3.org/2000/svg">
<path fill-rule="evenodd" clip-rule="evenodd" d="M18.9318 19.9383C18.6957 20.9158 17.8579 21.6375 16.849 21.7451C14.4591 21.9997 12.0417 22.001 9.63316 21.9997C7.22564 22.001 4.80682 21.9997 2.41768 21.7451C1.4088 21.6375 0.570608 20.9162 0.335263 19.9383C-0.000793163 18.5459 -0.000793457 17.0254 -0.000793457 15.5916C-0.000793457 14.1577 0.00344674 12.6376 0.339149 11.2449C0.574848 10.267 1.41234 9.54533 2.42121 9.4381C4.81071 9.1835 7.22918 9.18215 9.6374 9.1835C12.0449 9.18215 14.4634 9.1835 16.8529 9.4381C17.8618 9.54567 18.7 10.267 18.9364 11.2449C19.2693 12.6289 19.2692 14.1388 19.2692 15.5647V15.5916C19.2692 17.0254 19.2678 18.5459 18.9318 19.9383ZM2.80569 12.3243H1.43638V11.166H5.49591V12.3243H4.10115V19.3967H2.80569V12.3243ZM11.1866 13.8539C11.5622 13.4122 11.9619 13.1889 12.3902 13.1889C12.8531 13.1889 13.1655 13.4216 13.3206 13.8816C13.3987 14.1281 13.4386 14.5334 13.4386 15.1141V17.5562C13.4386 18.1237 13.3987 18.5321 13.3206 18.7921C13.1651 19.2487 12.8534 19.4813 12.3902 19.4813C11.9757 19.4813 11.5764 19.2615 11.1866 18.8025V19.3967H10.0222V11.1657H11.1866V13.8539ZM7.11292 18.4707C7.34685 18.4707 7.59103 18.2991 7.84934 17.9507V13.2638H9.01476V19.397H7.84934V18.728C7.38643 19.2345 6.94683 19.4813 6.5182 19.4813C6.14362 19.4813 5.88495 19.3357 5.76799 19.0247C5.70438 18.8386 5.66516 18.5459 5.66516 18.1126V13.2638H6.82987V17.7791C6.82987 18.0394 6.82987 18.175 6.84047 18.2107C6.86874 18.3834 6.95744 18.4707 7.11292 18.4707ZM14.7044 13.8175C15.0408 13.3977 15.5033 13.1889 16.0991 13.1889C16.6836 13.1889 17.1469 13.398 17.4723 13.8168C17.7165 14.1271 17.8328 14.6066 17.8328 15.2618V16.5321H15.5033V17.6199C15.5033 18.1871 15.6991 18.4704 16.0991 18.4704C16.3857 18.4704 16.5532 18.322 16.6196 18.0249C16.6299 17.9646 16.6451 17.7174 16.6451 17.2723H17.8328V17.4338C17.8328 17.7922 17.819 18.0387 17.808 18.15C17.7692 18.3962 17.6773 18.6191 17.5359 18.816C17.2137 19.2615 16.7363 19.481 16.1281 19.481C15.5189 19.481 15.0549 19.2716 14.7189 18.8528C14.4708 18.5456 14.3446 18.0627 14.3446 17.4108V15.2625C14.3446 14.6073 14.4574 14.1277 14.7044 13.8175Z" fill="#CD2D32"/>
<path d="M12.2736 17.6432C12.2736 18.1976 12.1032 18.4707 11.7668 18.4707C11.5757 18.4707 11.3809 18.3834 11.1862 18.1972V14.4596C11.3809 14.2758 11.5757 14.1888 11.7668 14.1888C12.1029 14.1888 12.2736 14.4727 12.2736 15.0257V17.6432Z" fill="#CD2D32"/>
<path d="M16.6688 15.6074H15.5041V15.0399C15.5041 14.4727 15.6995 14.1891 16.0885 14.1891C16.4737 14.1891 16.6688 14.473 16.6688 15.0399V15.6074Z" fill="#CD2D32"/>
<path fill-rule="evenodd" clip-rule="evenodd" d="M7.11044 4.35628C7.11044 3.69366 7.22847 3.20942 7.47866 2.89615C7.80411 2.47227 8.26243 2.2605 8.84903 2.2605C9.43845 2.2605 9.89642 2.47227 10.2219 2.89615C10.4685 3.20908 10.5866 3.69366 10.5866 4.35628V6.52659C10.5866 7.18551 10.4685 7.67413 10.2219 7.98403C9.89642 8.4069 9.43845 8.61833 8.84903 8.61833C8.26243 8.61833 7.80411 8.4069 7.47866 7.98403C7.22847 7.67413 7.11044 7.18517 7.11044 6.52659V4.35628ZM9.41021 6.7377C9.41021 7.31096 9.22822 7.59793 8.84905 7.59793C8.46953 7.59793 8.28719 7.3113 8.28719 6.7377V4.1307C8.28719 3.55743 8.46953 3.27147 8.84905 3.27147C9.22822 3.27147 9.41021 3.5571 9.41021 4.1307V6.7377Z" fill="#CD2D32"/>
<path d="M3.96332 0.216309L4.88986 3.48223L5.78 0.216309H7.09984L5.52982 5.16492V8.53335H4.22517V5.16492C4.10679 4.56805 3.84565 3.69366 3.42691 2.53364C3.15198 1.76176 2.8654 0.987517 2.59048 0.216309H3.96332Z" fill="#CD2D32"/>
<path d="M11.5551 2.33536H12.7287V6.89854C12.7287 7.1619 12.7287 7.29848 12.7428 7.33523C12.7686 7.50923 12.8612 7.59826 13.0188 7.59826C13.2542 7.59826 13.5012 7.42426 13.7623 7.07254V2.33536H14.939V8.53302H13.7623V7.85724C13.2937 8.3698 12.8471 8.61833 12.4177 8.61833C12.0389 8.61833 11.7774 8.47164 11.6594 8.15803C11.5944 7.9702 11.5551 7.6738 11.5551 7.23643V2.33536Z" fill="#CD2D32"/>
</svg>
