<svg width="36" height="28" viewBox="0 0 36 28" fill="none" xmlns="http://www.w3.org/2000/svg">
<path d="M4.90425 12.9437C5.04693 13.0839 5.12899 13.278 5.12899 13.4769C5.12899 13.6761 5.04694 13.8703 4.90425 14.0104C4.76187 14.1508 4.56542 14.2306 4.36493 14.2306C4.16404 14.2306 3.96759 14.1504 3.82527 14.0104L4.90425 12.9437ZM4.90425 12.9437C4.76194 12.8034 4.56552 12.7233 4.36493 12.7233M4.90425 12.9437L4.36493 12.7233M4.36493 12.7233C4.16409 12.7233 3.96767 12.8034 3.82534 12.9437L4.36493 12.7233ZM23.2812 0.992644L23.2812 0.992637C23.0526 0.869121 22.7756 0.869121 22.5469 0.992637L22.5469 0.992644L18.2615 3.30876C18.1578 3.33892 18.061 3.39113 17.9779 3.46193L11.1251 7.16579L11.125 7.1658C10.8808 7.29788 10.7281 7.55091 10.7281 7.8267V9.06305H3.1665C2.74596 9.06305 2.40244 9.39921 2.40244 9.81667C2.40244 10.2344 2.74598 10.5703 3.1665 10.5703H10.7281V12.7233H7.02092C6.60038 12.7233 6.25686 13.0595 6.25686 13.4769C6.25686 13.8947 6.6004 14.2306 7.02092 14.2306H10.7281V17.4294H5.25C4.82946 17.4294 4.48594 17.7656 4.48594 18.183C4.48594 18.6008 4.82948 18.9366 5.25 18.9366H10.7281V20.1732C10.7281 20.449 10.8808 20.7021 11.125 20.8341L11.1251 20.8342L22.5469 27.0073C22.6615 27.0692 22.7878 27.1 22.9141 27.1C23.0403 27.1 23.1667 27.0692 23.2812 27.0073L34.7031 20.8342L34.6563 20.7477L34.7031 20.8341C34.9473 20.7021 35.1 20.449 35.1 20.1732V7.8267C35.1 7.55091 34.9473 7.29788 34.7031 7.1658L34.6555 7.25376L34.7031 7.16579L23.2812 0.992644ZM30.6638 10.6709L33.5719 9.09918V19.7268L23.6781 25.0741V14.4463L26.6882 12.8195V15.4051C26.6882 15.6725 26.8315 15.9192 27.064 16.0543C27.1836 16.1239 27.318 16.1587 27.4523 16.1587C27.5785 16.1587 27.7051 16.128 27.82 16.0657C27.82 16.0657 27.82 16.0657 27.82 16.0657L30.2677 14.7399L30.2677 14.7398C30.5114 14.6077 30.6638 14.355 30.6638 14.0792V10.6709ZM12.2563 19.7268V9.09919L22.15 14.4463V25.0741L12.2563 19.7268ZM22.9141 13.1406L13.0822 7.8267L16.028 6.23457L25.8601 11.5485L22.9141 13.1406ZM27.4502 10.689L17.6181 5.37512L18.4965 4.90052L28.3283 10.2145L27.4502 10.689ZM29.1356 11.4967V13.6334L28.2163 14.1314V11.9937L29.1356 11.4967ZM29.9184 9.35499L20.0866 4.04106L22.9141 2.51302L32.7459 7.8267L29.9184 9.35499ZM2.6158 17.4294H1.66406C1.24352 17.4294 0.9 17.7656 0.9 18.183C0.9 18.6008 1.24354 18.9366 1.66406 18.9366H2.6158C3.03632 18.9366 3.37986 18.6008 3.37986 18.183C3.37986 17.7656 3.03634 17.4294 2.6158 17.4294Z" fill="#1F1F1F" stroke="#1F1F1F" stroke-width="0.2"/>
</svg>
