<svg width="30" height="43" viewBox="0 0 30 43" fill="none" xmlns="http://www.w3.org/2000/svg">
<path d="M27.8571 0H2.14286C0.928432 0 0 0.931527 0 2.15V40.85C0 42.0685 0.928432 43 2.14286 43H21.7142L30 34.6866V2.15C30 0.931527 29.0716 0 27.8571 0ZM28.5714 34.1134L22.1429 40.5634V35.8333C22.1429 35.4033 22.4285 35.1167 22.8571 35.1167H26.4286V33.6833H22.8571C21.6427 33.6833 20.7143 34.6149 20.7143 35.8333V41.5667H2.14286C1.71422 41.5667 1.42857 41.2801 1.42857 40.85V2.15C1.42857 1.71993 1.71422 1.43333 2.14286 1.43333H27.8571C28.2858 1.43333 28.5714 1.71993 28.5714 2.15V34.1134Z" fill="white"/>
<path d="M10.7143 4.3H19.2857V5.73333H10.7143V4.3Z" fill="white"/>
<path d="M5.71429 23.65H24.2857V25.0833H5.71429V23.65Z" fill="white"/>
<path d="M5.71429 27.2333H24.2857V28.6667H5.71429V27.2333Z" fill="white"/>
<path d="M5.71429 30.8167H24.2857V32.25H5.71429V30.8167Z" fill="white"/>
<path d="M5.71429 34.4H17.8571V35.8333H5.71429V34.4Z" fill="white"/>
<path d="M21.4286 19.0634V10.3199L15 7.09493L8.57143 10.3199V19.0634L15 22.2884L21.4286 19.0634ZM15 13.4732L13.2143 12.3982L17.5 9.9616L19.2857 10.8217L15 13.4732ZM15.9284 9.17319L11.8572 11.5384L10.7143 10.8217L15 8.67174L15.9284 9.17319ZM10 12.0399L14.2857 14.6917V18.8482H15.7143V14.6917L20 12.0399V18.2033L15 20.7116L10 18.2033V12.0399Z" fill="white"/>
</svg>
