<svg width="42" height="42" viewBox="0 0 42 42" fill="none" xmlns="http://www.w3.org/2000/svg">
<path d="M26.6 22.4H23.1V20.3C23.1 19.1422 22.1578 18.2 21 18.2H19.6C19.2136 18.2 18.9 18.5129 18.9 18.9V22.8102L17.2102 24.5H12.6C12.2136 24.5 11.9 24.8129 11.9 25.2V31.5C11.9 31.8871 12.2136 32.2 12.6 32.2H26.6C28.5299 32.2 30.1 30.6299 30.1 28.7V25.9C30.1 23.9701 28.5299 22.4 26.6 22.4ZM16.8 30.8H13.3V25.9H16.8V30.8ZM28.7 28.7C28.7 29.8578 27.7578 30.8 26.6 30.8H18.2V25.4898L20.0949 23.5949C20.2265 23.464 20.3 23.2862 20.3 23.1V19.6H21C21.3857 19.6 21.7 19.9136 21.7 20.3V23.1C21.7 23.4871 22.0136 23.8 22.4 23.8H26.6C27.7578 23.8 28.7 24.7422 28.7 25.9V28.7Z" fill="white"/>
<path d="M42 10.5V3.5C42 1.5701 40.4299 0 38.5 0H25.9C23.9701 0 22.4 1.5701 22.4 3.5V10.5C22.4 10.7394 22.4245 10.9739 22.4707 11.2H19.5293C19.5755 10.9739 19.6 10.7394 19.6 10.5V3.5C19.6 1.5701 18.0299 0 16.1 0H3.5C1.5701 0 0 1.5701 0 3.5V10.5C0 12.4299 1.5701 14 3.5 14V36.4H0.7C0.3136 36.4 0 36.7129 0 37.1C0 39.8013 2.198 42 4.9 42H37.1C39.802 42 42 39.8013 42 37.1C42 36.7129 41.6864 36.4 41.3 36.4H38.5V14C40.4299 14 42 12.4299 42 10.5ZM18.4128 13.1061C18.536 12.9969 18.6487 12.8786 18.7551 12.7533C18.7985 12.7022 18.8447 12.6539 18.8853 12.6H23.114C23.1546 12.6539 23.2008 12.7022 23.2442 12.7533C23.3506 12.8786 23.4633 12.9969 23.5865 13.1061C23.6509 13.1635 23.7174 13.2181 23.7853 13.2699C23.8819 13.3441 23.9806 13.4134 24.0849 13.4778C24.1948 13.5457 24.3082 13.6073 24.4258 13.6626C24.4958 13.6955 24.5658 13.727 24.6379 13.755C24.8017 13.8194 24.9704 13.8733 25.1433 13.9125C25.1888 13.9223 25.235 13.9293 25.2812 13.9377C25.4842 13.9748 25.6907 14 25.9 14H28.7V15.4H13.3V14H16.1C16.3093 14 16.5158 13.9748 16.7181 13.9377C16.7643 13.9293 16.8105 13.923 16.856 13.9125C17.0289 13.8733 17.1969 13.8201 17.3614 13.755C17.4342 13.727 17.5035 13.6955 17.5735 13.6626C17.6904 13.6073 17.8038 13.5457 17.9144 13.4778C18.0187 13.4141 18.1174 13.3441 18.214 13.2699C18.2819 13.2174 18.3484 13.1635 18.4128 13.1061ZM7 35H35C35.3864 35 35.7 34.6871 35.7 34.3V16.1C35.7 15.7129 35.3864 15.4 35 15.4H33.8898L35.2898 14H37.1V36.4H4.9V14H6.7102L8.1102 15.4H7C6.6136 15.4 6.3 15.7129 6.3 16.1V34.3C6.3 34.6871 6.6136 35 7 35ZM34.3 16.8V33.6H7.7V16.8H9.5102L12.1051 19.3949C12.166 19.4558 12.2374 19.4985 12.3123 19.5328C12.334 19.5426 12.355 19.5489 12.3774 19.5559C12.4355 19.5755 12.495 19.5874 12.5566 19.5909C12.5713 19.5923 12.5853 19.6 12.6 19.6C12.6084 19.6 12.6168 19.5951 12.6252 19.5951C12.7071 19.5923 12.789 19.5797 12.8674 19.5468C13.1292 19.439 13.3 19.1828 13.3 18.9V16.8H28.7V18.9C28.7 19.1828 28.8708 19.439 29.1319 19.5468C29.2103 19.5797 29.2922 19.5923 29.3741 19.5951C29.3832 19.5951 29.3916 19.6 29.4 19.6C29.4147 19.6 29.4287 19.5923 29.4441 19.5916C29.505 19.5874 29.5638 19.5762 29.6212 19.5566C29.6443 19.5489 29.6667 19.5426 29.6884 19.5328C29.7633 19.4985 29.8347 19.4558 29.8949 19.3956L32.4898 16.8H34.3ZM1.4 10.5V3.5C1.4 2.3422 2.3422 1.4 3.5 1.4H16.1C17.2578 1.4 18.2 2.3422 18.2 3.5V10.5C18.2 10.8794 18.0908 11.2308 17.9144 11.5381C17.9123 11.5416 17.9088 11.5444 17.9067 11.5479C17.7226 11.8643 17.4685 12.1156 17.1738 12.2948C17.143 12.3137 17.1108 12.3298 17.0786 12.3466C16.9659 12.4075 16.8476 12.4551 16.7258 12.4943C16.6824 12.5083 16.6404 12.5237 16.5956 12.5349C16.4353 12.5741 16.2701 12.6 16.1 12.6H12.6C12.2136 12.6 11.9 12.9129 11.9 13.3V17.2102L7.4949 12.8051C7.364 12.6735 7.1855 12.6 7 12.6H3.5C2.3422 12.6 1.4 11.6578 1.4 10.5ZM40.5293 37.8C40.2045 39.3953 38.7905 40.6 37.1 40.6H4.9C3.2095 40.6 1.7955 39.3953 1.4707 37.8H40.5293ZM35 12.6C34.8145 12.6 34.636 12.6735 34.5051 12.8051L30.1 17.2102V13.3C30.1 12.9129 29.7864 12.6 29.4 12.6H25.9C25.7299 12.6 25.5647 12.5741 25.4044 12.5349C25.3596 12.5237 25.3176 12.5083 25.2742 12.4943C25.1524 12.4558 25.0334 12.4075 24.9214 12.3466C24.8892 12.3298 24.857 12.3137 24.8262 12.2948C24.5315 12.1149 24.2774 11.8643 24.0933 11.5479C24.0912 11.5444 24.0877 11.5416 24.0856 11.5381C23.9092 11.2308 23.8 10.8794 23.8 10.5V3.5C23.8 2.3422 24.7422 1.4 25.9 1.4H38.5C39.6578 1.4 40.6 2.3422 40.6 3.5V10.5C40.6 11.6578 39.6578 12.6 38.5 12.6H35Z" fill="white"/>
<path d="M30.1 6.3H28.7V7.7H30.1V6.3Z" fill="white"/>
<path d="M32.9 6.3H31.5V7.7H32.9V6.3Z" fill="white"/>
<path d="M35.7 6.3H34.3V7.7H35.7V6.3Z" fill="white"/>
<path d="M13.4449 4.7551C12.593 3.9032 11.207 3.9032 10.3551 4.7551L9.8 5.3102L9.2449 4.7551C8.393 3.9032 7.007 3.9032 6.1551 4.7551C5.7421 5.1674 5.5146 5.7162 5.5146 6.3C5.5146 6.8838 5.7421 7.4326 6.1551 7.8449L9.3051 10.9949C9.4416 11.1314 9.6208 11.2 9.8 11.2C9.9792 11.2 10.1584 11.1314 10.2949 10.9949L13.4449 7.8449C13.8579 7.4326 14.0854 6.8838 14.0854 6.3C14.0854 5.7162 13.8579 5.1674 13.4449 4.7551ZM12.4551 6.8551L9.8 9.5102L7.1449 6.8551C6.9965 6.7067 6.9146 6.51 6.9146 6.3C6.9146 6.09 6.9965 5.8933 7.1449 5.7449C7.2982 5.5916 7.4991 5.516 7.7 5.516C7.9009 5.516 8.1018 5.5916 8.2551 5.7449L9.3051 6.7949C9.5788 7.0686 10.0212 7.0686 10.2949 6.7949L11.3449 5.7449C11.6515 5.4397 12.1485 5.4397 12.4551 5.7449C12.6035 5.8933 12.6854 6.09 12.6854 6.3C12.6854 6.51 12.6035 6.7067 12.4551 6.8551Z" fill="white"/>
</svg>
