<svg width="32" height="43" viewBox="0 0 32 43" fill="none" xmlns="http://www.w3.org/2000/svg">
<path d="M32 0.845421C32 0.378586 31.6131 0 31.1359 0H0.864076C0.38694 0 0 0.378586 0 0.845421V42.1546C0 42.6214 0.38694 43 0.864076 43H31.1359C31.6134 43 32 42.6214 32 42.1546V39.8532C32 38.768 30.2722 38.7663 30.2722 39.8532V41.3092H1.72815V1.69084H30.2722V33.0561C30.2722 34.1416 32 34.1433 32 33.0561V0.845421Z" fill="white"/>
<path d="M4.49876 14.6008C4.49876 15.0676 4.88537 15.4462 5.3625 15.4462H12.0944C13.2039 15.4462 13.2056 13.7554 12.0944 13.7554H5.3625C4.88537 13.7554 4.49876 14.134 4.49876 14.6008Z" fill="white"/>
<path d="M26.4511 17.1328H5.3625C4.25332 17.1328 4.25165 18.8237 5.3625 18.8237H26.4511C27.5606 18.8237 27.5619 17.1328 26.4511 17.1328Z" fill="white"/>
<path d="M26.4511 5.20703H5.3625C4.25332 5.20703 4.25165 6.89787 5.3625 6.89787H26.4511C27.5606 6.89787 27.5619 5.20703 26.4511 5.20703Z" fill="white"/>
<path d="M5.3625 22.2011H12.0944C13.2039 22.2011 13.2056 20.5102 12.0944 20.5102H5.3625C4.25332 20.5102 4.25165 22.2011 5.3625 22.2011Z" fill="white"/>
<path d="M5.3625 10.2753H12.0944C13.2039 10.2753 13.2056 8.58445 12.0944 8.58445H5.3625C4.25332 8.58445 4.25165 10.2753 5.3625 10.2753Z" fill="white"/>
<path d="M26.4511 23.8876H5.3625C4.25332 23.8876 4.25165 25.5785 5.3625 25.5785H26.4511C27.5606 25.5785 27.5619 23.8876 26.4511 23.8876Z" fill="white"/>
<path d="M5.3625 28.9556H12.0944C13.2039 28.9556 13.2056 27.2647 12.0944 27.2647H5.3625C4.25332 27.2647 4.25165 28.9556 5.3625 28.9556Z" fill="white"/>
<path d="M26.4511 30.6422H5.3625C4.25332 30.6422 4.25165 32.333 5.3625 32.333H26.4511C27.5606 32.333 27.5619 30.6422 26.4511 30.6422Z" fill="white"/>
<path d="M15.6717 13.7725C14.8831 13.6163 14.3255 14.5582 14.8486 15.1529C15.3448 15.7175 16.3293 15.3885 16.3655 14.6422C16.3856 14.2324 16.0868 13.8492 15.6717 13.7725Z" fill="white"/>
<path d="M31.8545 35.965C31.6489 35.6658 31.261 35.5234 30.9056 35.6202C30.5428 35.7193 30.2822 36.0444 30.2722 36.4135C30.2517 37.1667 31.2268 37.5643 31.7596 37.0184C32.0359 36.7356 32.0768 36.2911 31.8545 35.965Z" fill="white"/>
<path d="M26.4511 33.9825H5.3625C4.88537 33.9825 4.49876 34.3611 4.49876 34.8279V39.1721C4.49876 39.639 4.88537 40.0176 5.3625 40.0176H26.4511C26.9282 40.0176 27.3151 39.639 27.3151 39.1721V34.8279C27.3151 34.3611 26.9282 33.9825 26.4511 33.9825ZM25.587 38.3267H6.22658V35.6733H25.587V38.3267Z" fill="white"/>
</svg>
