<svg width="29" height="46" viewBox="0 0 29 46" fill="none" xmlns="http://www.w3.org/2000/svg">
<path d="M10.4322 2.98549C10.4322 3.35762 10.7404 3.65932 11.1209 3.65932H15.7328C16.1132 3.65932 16.4215 3.35762 16.4215 2.98549C16.4215 2.61336 16.1132 2.31166 15.7328 2.31166H11.1209C10.7404 2.31166 10.4322 2.61336 10.4322 2.98549Z" fill="white"/>
<path d="M15.5449 41.7734C15.5449 40.6307 14.5948 39.7011 13.4269 39.7011C12.259 39.7011 11.3088 40.6307 11.3088 41.7734C11.3088 42.916 12.259 43.8456 13.4269 43.8456C14.5948 43.8456 15.5449 42.9161 15.5449 41.7734ZM12.6862 41.7734C12.6862 41.3738 13.0184 41.0488 13.4268 41.0488C13.8351 41.0488 14.1674 41.3738 14.1674 41.7734C14.1674 42.1729 13.8351 42.4979 13.4268 42.4979C13.0184 42.4979 12.6862 42.173 12.6862 41.7734Z" fill="white"/>
<path d="M16.5354 9.11207H25.2148C25.5953 9.11207 25.9036 8.81038 25.9036 8.43824C25.9036 8.06611 25.5953 7.76442 25.2148 7.76442H16.5354C16.1549 7.76442 15.8467 8.06611 15.8467 8.43824C15.8467 8.81038 16.1549 9.11207 16.5354 9.11207Z" fill="white"/>
<path d="M16.5354 11.7714H25.2148C25.5953 11.7714 25.9036 11.4697 25.9036 11.0976C25.9036 10.7255 25.5953 10.4238 25.2148 10.4238H16.5354C16.1549 10.4238 15.8467 10.7255 15.8467 11.0976C15.8467 11.4697 16.1549 11.7714 16.5354 11.7714Z" fill="white"/>
<path d="M25.9036 13.757C25.9036 13.3849 25.5953 13.0832 25.2148 13.0832H16.5354C16.1549 13.0832 15.8467 13.3849 15.8467 13.757C15.8467 14.1292 16.1549 14.4309 16.5354 14.4309H25.2148C25.5952 14.4309 25.9036 14.1292 25.9036 13.757Z" fill="white"/>
<path d="M11.8803 0H3.81942C1.71338 0 0 1.67629 0 3.73675V42.2632C0 44.3236 1.71338 46 3.81942 46H23.0344C25.1405 46 26.8539 44.3236 26.8539 42.2632V17.4864C28.0721 17.274 29 16.2308 29 14.979V7.19203C29 5.94015 28.0721 4.89707 26.8539 4.68469V3.73675C26.8538 1.67629 25.1405 0 23.0343 0H15.0943C14.7138 0 14.4056 0.301693 14.4056 0.673823C14.4056 1.04595 14.7138 1.34765 15.0943 1.34765H23.0343C24.3808 1.34765 25.4764 2.41938 25.4764 3.73675V4.64453C24.5772 4.64453 4.82129 4.64453 3.81933 4.64453C3.28616 4.64453 2.85253 5.06885 2.85253 5.5903V38.1579C2.85253 38.6795 3.28625 39.1038 3.81933 39.1038H23.0343C23.5675 39.1038 24.0011 38.6795 24.0011 38.1579V29.0321C24.0011 28.6599 23.6928 28.3582 23.3124 28.3582C22.9319 28.3582 22.6237 28.6599 22.6237 29.0321V37.7562H4.22999V9.48922H12.7986V14.979C12.7986 15.0448 12.802 15.1096 12.8071 15.1741C8.90582 15.484 5.82757 18.687 5.82757 22.5822C5.82757 26.6992 9.2534 30.0171 13.4269 30.0171C17.6069 30.0171 21.0264 26.6864 21.0264 22.5822C21.0264 20.6721 20.2917 18.8829 19.0006 17.5265H22.2677C22.1924 17.6615 22.2456 17.5749 21.1556 19.2515C20.9117 19.6265 20.9477 20.1042 21.2451 20.4402C21.5476 20.782 22.0312 20.8746 22.4349 20.6968L22.6238 20.6136V25.8876C22.6238 26.2598 22.9321 26.5615 23.3126 26.5615C23.693 26.5615 24.0013 26.2598 24.0013 25.8876V19.9891C24.5585 19.6944 25.057 19.314 25.4765 18.8738V42.2633C25.4765 43.5807 24.3809 44.6525 23.0344 44.6525H3.81933C2.47281 44.6525 1.37737 43.5807 1.37737 42.2633V3.73675C1.37737 2.41938 2.47281 1.34765 3.81933 1.34765H11.8802C12.2607 1.34765 12.5689 1.04595 12.5689 0.673823C12.5689 0.301693 12.2607 0 11.8803 0ZM6.43438 8.14158H4.22999V5.99217H6.43438V8.14158ZM12.7986 7.19203V8.14149H7.81184V5.99217H13.1059C12.9084 6.35145 12.7986 6.77318 12.7986 7.19203ZM17.1565 27.4515C16.0562 28.2602 14.7324 28.6695 13.4269 28.6695C12.1242 28.6695 10.8007 28.2624 9.6974 27.4515V25.8652C9.6974 25.0439 10.3803 24.3758 11.2197 24.3758H15.6342C16.4737 24.3758 17.1565 25.0439 17.1565 25.8652V27.4515ZM11.5889 21.2299C11.5889 20.2384 12.4135 19.4317 13.4269 19.4317C14.4404 19.4317 15.2649 20.2384 15.2649 21.2299C15.2649 22.2214 14.4404 23.0281 13.4269 23.0281C12.4135 23.0281 11.5889 22.2214 11.5889 21.2299ZM19.6488 22.5822C19.6488 23.8717 19.2357 25.0678 18.5339 26.0531V25.8652C18.5339 24.4363 17.4485 23.2514 16.0421 23.0568C16.4193 22.5414 16.6423 21.9108 16.6423 21.23C16.6423 19.4954 15.1999 18.0841 13.4268 18.0841C11.6538 18.0841 10.2114 19.4954 10.2114 21.23C10.2114 21.9108 10.4343 22.5414 10.8116 23.0568C9.4052 23.2515 8.31976 24.4364 8.31976 25.8652V26.0532C7.61799 25.0678 7.20484 23.8717 7.20484 22.5822C7.20484 19.2632 9.93396 16.5563 13.3119 16.496C13.8039 17.1433 14.5799 17.5265 15.4023 17.5265H16.8904C18.6215 18.6619 19.6488 20.5379 19.6488 22.5822ZM25.2008 16.9107C24.7448 17.8289 24.011 18.5238 22.9598 18.9872C23.3169 18.438 23.5531 18.1152 23.7735 17.5368C24.0245 16.8776 23.5268 16.1788 22.8133 16.1788C21.3485 16.1788 16.9543 16.1788 15.4025 16.1788C14.7152 16.1788 14.1761 15.6171 14.1761 14.979C14.1761 14.2042 14.1761 7.97249 14.1761 7.19212C14.1761 6.53051 14.7262 5.99226 15.4025 5.99226H26.3961C27.0723 5.99226 27.6224 6.53051 27.6224 7.19212V14.979C27.6224 15.6406 27.0723 16.1788 26.3961 16.1788C25.8882 16.1788 25.4187 16.4715 25.2008 16.9107Z" fill="white"/>
</svg>
