<svg width="115" height="124" viewBox="0 0 115 124" fill="none" xmlns="http://www.w3.org/2000/svg">
<circle cx="57.4999" cy="62.5" r="30.5" fill="#373737"/>
<circle cx="57.4999" cy="62.5" r="23.5" fill="white"/>
<circle cx="57.4999" cy="62.5" r="20.5" fill="#CD2D32"/>
<path d="M11.052 81.5361C20.9698 74.7838 49.2785 64.0634 49.2785 64.0634C49.2785 64.0634 50.4234 64.5879 51.4957 66.1524C52.6287 67.8055 53.6357 70.0232 53.6357 70.0232C53.6357 70.0232 37.3433 84.0239 24.0056 90.5308C10.668 97.0378 5.14661 93.3879 3.63704 91.2207C2.12747 89.0536 1.13424 88.2884 11.052 81.5361Z" fill="#373737"/>
<path d="M14.5578 81.3116C24.1177 75.5045 49.3636 65.576 49.3636 65.576C49.3636 65.576 49.9237 65.5773 50.5254 66.689C51.1611 67.8637 51.8829 69.1358 51.8829 69.1358C51.8829 69.1358 34.1777 82.6317 21.8058 88.49C9.43384 94.3483 5.95006 91.2993 5.09638 89.761C4.2427 88.2227 4.99785 87.1187 14.5578 81.3116Z" fill="white"/>
<path d="M22.2662 84.1584C30.9276 79.4518 46.6041 69.9291 46.6041 69.9291C46.6041 69.9291 47.0959 69.9066 47.4294 70.5117C47.4294 70.5117 32.7092 81.0548 22.5248 86.33C12.3404 91.6051 9.09245 89.5175 9.09245 89.5175C9.09245 89.5175 16.3942 87.3492 22.2662 84.1584Z" fill="#CD2D32"/>
<path d="M65.5205 12.7691C66.4093 24.7343 61.539 54.6106 61.539 54.6106C61.539 54.6106 60.5124 55.3398 58.6213 55.4862C56.6232 55.6409 54.1991 55.4042 54.1991 55.4042C54.1991 55.4042 50.2204 34.2942 51.254 19.4899C52.2877 4.68571 58.2092 1.72897 60.8408 1.50523C63.4724 1.2815 64.6317 0.803911 65.5205 12.7691Z" fill="#373737"/>
<path d="M63.962 15.9174C64.2112 27.1001 60.1866 53.928 60.1866 53.928C60.1866 53.928 59.9054 54.4123 58.6417 54.3775C57.3066 54.3408 55.844 54.3298 55.844 54.3298C55.844 54.3298 53.0088 32.2487 54.1213 18.6051C55.2339 4.96156 59.6163 3.46901 61.3753 3.49887C63.1344 3.52873 63.7129 4.73467 63.962 15.9174Z" fill="white"/>
<path d="M57.6425 21.1698C57.3878 31.0241 57.7964 49.3617 57.7964 49.3617C57.7964 49.3617 57.57 49.7988 56.8793 49.7851C56.8793 49.7851 55.1088 31.7655 55.6325 20.3079C56.1563 8.85037 59.5883 7.08143 59.5883 7.08143C59.5883 7.08143 57.8152 14.489 57.6425 21.1698Z" fill="#CD2D32"/>
<path d="M96.6541 94.6738C85.8475 89.4609 62.409 70.305 62.409 70.305C62.409 70.305 62.2908 69.0513 63.1095 67.3403C63.9746 65.5326 65.3917 63.5516 65.3917 63.5516C65.3917 63.5516 85.6629 70.661 97.9669 78.9582C110.271 87.2555 109.871 93.8621 108.749 96.253C107.627 98.6439 107.461 99.8867 96.6541 94.6738Z" fill="#373737"/>
<path d="M94.7068 91.75C84.8977 86.3744 63.6764 69.4751 63.6764 69.4751C63.6764 69.4751 63.3975 68.9894 64.0594 67.9124C64.7588 66.7745 65.4996 65.5134 65.4996 65.5134C65.4996 65.5134 86.04 74.0986 97.2994 81.8838C108.559 89.6691 107.66 94.2106 106.755 95.7191C105.849 97.2276 104.516 97.1256 94.7068 91.75Z" fill="white"/>
<path d="M93.3178 83.6508C84.911 78.5031 68.8259 69.6882 68.8259 69.6882C68.8259 69.6882 68.5605 69.2735 68.9177 68.6822C68.9177 68.6822 85.4085 76.1587 95.0691 82.3411C104.73 88.5235 104.546 92.3801 104.546 92.3801C104.546 92.3801 99.0171 87.1407 93.3178 83.6508Z" fill="#CD2D32"/>
<circle cx="57.4999" cy="62.5" r="12.5" fill="white"/>
<circle cx="57.4999" cy="62.5" r="9.5" fill="#CD2D32"/>
<circle cx="57.4999" cy="62.5" r="5.5" fill="#373737"/>
<path d="M15.5205 122.53H13.2571V118.471L11.7218 118.747L8.71449 122.53H6L8.82529 119.137L9.56129 118.364C9.33442 118.308 9.08381 118.211 8.80946 118.073C8.54038 117.935 8.28714 117.751 8.04972 117.521C7.81758 117.287 7.62236 117.003 7.46408 116.671C7.30581 116.334 7.22667 115.939 7.22667 115.484C7.22667 115.142 7.26887 114.826 7.35329 114.535C7.44298 114.244 7.56433 113.978 7.71733 113.738C7.87034 113.498 8.05499 113.287 8.27131 113.103C8.48762 112.914 8.72768 112.75 8.99148 112.613C9.20252 112.5 9.43466 112.406 9.68791 112.329C9.94116 112.253 10.2076 112.191 10.4872 112.146C10.7721 112.094 11.0623 112.059 11.3578 112.038C11.6585 112.013 11.9592 112 12.26 112C12.4446 112 12.6715 112.003 12.9406 112.008C13.2096 112.013 13.4945 112.026 13.7953 112.046C14.096 112.066 14.3967 112.094 14.6975 112.13C14.9982 112.161 15.2725 112.202 15.5205 112.253V122.53ZM11.888 113.93C11.5925 113.93 11.3076 113.95 11.0333 113.991C10.7642 114.027 10.5294 114.103 10.3289 114.221C10.1285 114.338 9.96226 114.494 9.83036 114.688C9.69846 114.877 9.63251 115.127 9.63251 115.438C9.63251 115.735 9.69582 115.99 9.82245 116.204C9.94907 116.414 10.1205 116.579 10.3369 116.702C10.5584 116.83 10.8117 116.919 11.0966 116.97C11.3815 117.016 11.6822 117.039 11.9988 117.039H13.2571V113.983C13.1938 113.973 13.1067 113.966 12.996 113.96C12.8852 113.95 12.7638 113.945 12.6319 113.945C12.5 113.94 12.3681 113.937 12.2362 113.937C12.1043 113.932 11.9882 113.93 11.888 113.93Z" fill="#373737"/>
<path d="M18.9726 118.376H22.3154V119.846H18.9726V118.376Z" fill="#373737"/>
<path d="M32.867 118.302L32.9493 116.887H32.905L32.3478 117.825L30.1509 121.047H29.5874L27.2639 117.812L26.7384 116.9H26.7004L26.8207 118.29V122.53H25.105V114.222H26.7511L29.4861 118.057L29.9546 118.786H30.0116L30.4231 118.033L33.0506 114.222H34.684V122.53H32.867V118.302Z" fill="#373737"/>
<path d="M37.7205 118.388C37.7205 117.702 37.8239 117.092 38.0307 116.556C38.2375 116.017 38.5287 115.564 38.9044 115.196C39.2843 114.829 39.738 114.549 40.2656 114.357C40.7932 114.161 41.3799 114.063 42.0257 114.063C42.7094 114.063 43.3172 114.167 43.849 114.375C44.3851 114.584 44.8388 114.878 45.2102 115.258C45.5817 115.638 45.8645 116.093 46.0586 116.624C46.2528 117.151 46.3499 117.735 46.3499 118.376C46.3499 119.021 46.2528 119.609 46.0586 120.14C45.8645 120.671 45.5817 121.127 45.2102 121.507C44.8388 121.886 44.3851 122.18 43.849 122.389C43.3172 122.597 42.7094 122.701 42.0257 122.701C41.3799 122.701 40.7932 122.605 40.2656 122.413C39.738 122.217 39.2843 121.935 38.9044 121.568C38.5287 121.2 38.2375 120.749 38.0307 120.214C37.8239 119.679 37.7205 119.07 37.7205 118.388ZM39.6388 118.376C39.6388 118.854 39.6958 119.268 39.8097 119.62C39.9237 119.971 40.0841 120.261 40.2909 120.49C40.502 120.718 40.7531 120.888 41.0443 120.998C41.3398 121.108 41.6669 121.163 42.0257 121.163C42.4351 121.163 42.7896 121.092 43.0893 120.949C43.3932 120.806 43.6422 120.61 43.8364 120.361C44.0348 120.112 44.1804 119.818 44.2732 119.479C44.3703 119.136 44.4188 118.768 44.4188 118.376C44.4188 117.984 44.3703 117.618 44.2732 117.279C44.1804 116.94 44.0348 116.648 43.8364 116.403C43.6422 116.154 43.3932 115.958 43.0893 115.815C42.7896 115.672 42.4351 115.601 42.0257 115.601C41.6669 115.601 41.3398 115.656 41.0443 115.766C40.7531 115.876 40.502 116.046 40.2909 116.275C40.0841 116.503 39.9237 116.793 39.8097 117.145C39.6958 117.492 39.6388 117.902 39.6388 118.376Z" fill="#373737"/>
<path d="M56.205 124H54.9197L54.7171 122.53H49.1457L48.9494 124H47.6642V120.986H48.5316C48.5738 120.929 48.6329 120.827 48.7088 120.68C48.789 120.528 48.8756 120.326 48.9684 120.073C49.0613 119.82 49.1541 119.511 49.247 119.148C49.3399 118.784 49.4222 118.362 49.4939 117.88C49.5657 117.398 49.6184 116.855 49.6522 116.25C49.6902 115.642 49.6986 114.966 49.6775 114.222H55.0337V120.986H56.205V124ZM53.2103 120.986V115.766H51.3426C51.33 116.154 51.3046 116.577 51.2666 117.034C51.2329 117.492 51.178 117.955 51.102 118.425C51.0303 118.891 50.9332 119.346 50.8108 119.791C50.6884 120.232 50.5364 120.631 50.355 120.986H53.2103Z" fill="#373737"/>
<path d="M58.6399 114.222H64.9268V115.766H60.457V117.573H64.5786V119.111H60.457V120.986H64.9838V122.53H58.6399V114.222Z" fill="#373737"/>
<path d="M73.3384 115.766H71.0845C71.0423 116.522 70.9937 117.202 70.9389 117.806C70.8882 118.411 70.8186 118.954 70.7299 119.436C70.6455 119.914 70.5358 120.341 70.4007 120.716C70.2699 121.088 70.1053 121.421 69.9069 121.715C69.7718 121.895 69.622 122.044 69.4574 122.162C69.297 122.281 69.1324 122.374 68.9636 122.444C68.7989 122.509 68.6343 122.554 68.4697 122.579C68.3093 122.607 68.1595 122.622 68.0202 122.622C67.8514 122.622 67.6952 122.605 67.5517 122.573C67.4082 122.544 67.2689 122.499 67.1338 122.438L67.3301 120.967C67.4187 120.996 67.5243 121.01 67.6467 121.01C67.786 121.01 67.9252 120.98 68.0645 120.918C68.2038 120.853 68.3262 120.749 68.4317 120.606C68.5626 120.434 68.6808 120.185 68.7863 119.859C68.896 119.532 68.991 119.111 69.0712 118.597C69.1514 118.082 69.2168 117.465 69.2674 116.746C69.3181 116.023 69.3519 115.182 69.3687 114.222H75.1491V122.53H73.3384V115.766Z" fill="#373737"/>
<path d="M84.3204 117.947L84.4028 116.955H84.3584L83.7317 117.941L80.0596 122.53H78.7174V114.222H80.5281V118.695L80.4204 119.742H80.4838L81.1485 118.719L84.7763 114.222H86.1438V122.53H84.3204V117.947Z" fill="#373737"/>
<path d="M97.1132 121.899C96.8558 122.042 96.5899 122.164 96.3155 122.266C96.0454 122.364 95.7774 122.446 95.5114 122.511C95.2498 122.577 94.9965 122.624 94.7517 122.652C94.5111 122.681 94.2895 122.695 94.0869 122.695C93.8084 122.695 93.5171 122.683 93.2132 122.658C92.9093 122.638 92.6075 122.595 92.3079 122.53C92.0082 122.46 91.717 122.364 91.4342 122.242C91.1556 122.119 90.8981 121.958 90.6618 121.758C90.4465 121.578 90.2502 121.374 90.073 121.145C89.8957 120.916 89.7437 120.663 89.6171 120.385C89.4905 120.104 89.3913 119.795 89.3196 119.46C89.252 119.125 89.2183 118.76 89.2183 118.364C89.2183 117.739 89.3259 117.165 89.5411 116.642C89.7606 116.119 90.0898 115.648 90.5288 115.227C90.7399 115.027 90.9741 114.853 91.2316 114.706C91.489 114.559 91.7634 114.439 92.0546 114.345C92.3459 114.251 92.6498 114.181 92.9663 114.137C93.2871 114.088 93.6142 114.063 93.9476 114.063C94.4837 114.063 95.0007 114.118 95.4988 114.228C95.9968 114.335 96.4928 114.504 96.9866 114.737L96.4611 116.232C96.0601 116.023 95.6571 115.866 95.2519 115.76C94.8509 115.654 94.4394 115.601 94.0173 115.601C93.6332 115.601 93.2618 115.648 92.903 115.742C92.5442 115.836 92.2277 116.011 91.9533 116.269C91.7085 116.501 91.5123 116.797 91.3645 117.157C91.2168 117.516 91.1429 117.919 91.1429 118.364C91.1429 118.829 91.2189 119.252 91.3709 119.632C91.527 120.012 91.7444 120.314 92.023 120.539C92.1834 120.669 92.3437 120.775 92.5041 120.857C92.6687 120.935 92.8397 120.996 93.017 121.041C93.1942 121.082 93.3821 121.11 93.5804 121.127C93.783 121.143 94.0004 121.151 94.2325 121.151C94.4351 121.151 94.6399 121.135 94.8467 121.102C95.0535 121.065 95.2582 121.016 95.4608 120.955C95.6676 120.894 95.866 120.822 96.0559 120.741C96.2501 120.655 96.4316 120.563 96.6004 120.465L97.1132 121.899Z" fill="#373737"/>
<path d="M107 115.766H104.024V122.53H102.207V115.766H99.238V114.222H107V115.766Z" fill="#373737"/>
</svg>
