<svg width="314" height="177" viewBox="0 0 314 177" fill="none" xmlns="http://www.w3.org/2000/svg">
<g clip-path="url(#clip0)">
<rect width="314" height="177" rx="12" fill="white"/>
<rect y="-9" width="314" height="197" fill="#F5F5F5"/>
<rect y="-9" width="314" height="197" fill="url(#paint0_linear)"/>
<path d="M433.566 -112.387L246.334 336.869L161.401 301.472L348.633 -147.783L433.566 -112.387Z" fill="#CD2D32"/>
<path d="M328.682 -99.5482L164.622 294.106L88.9196 262.557L252.98 -131.098L328.682 -99.5482Z" fill="#CD2D32"/>
<ellipse cx="67.2974" cy="59.9245" rx="40.5424" ry="40.5858" fill="#373737"/>
<ellipse cx="67.2975" cy="59.9245" rx="31.2376" ry="31.271" fill="#F5F5F5"/>
<ellipse cx="67.2973" cy="59.9245" rx="27.2498" ry="27.279" fill="#373737"/>
<path d="M5.55722 85.261C18.7419 76.2746 56.3725 62.0027 56.3725 62.0027C56.3725 62.0027 57.894 62.7 59.3188 64.781C60.8241 66.9797 62.1618 69.9297 62.1618 69.9297C62.1618 69.9297 40.5016 88.5613 22.7715 97.2225C5.04132 105.884 -2.29616 101.03 -4.30185 98.1476C-6.30754 95.265 -7.62744 94.2474 5.55722 85.261Z" fill="#373737"/>
<path d="M10.2169 84.9609C22.9254 77.2325 56.4845 64.016 56.4845 64.016C56.4845 64.016 57.2288 64.0175 58.0282 65.4963C58.8728 67.0586 59.8317 68.7506 59.8317 68.7506C59.8317 68.7506 36.2942 86.71 19.848 94.5075C3.40181 102.305 -1.22755 98.2502 -2.36167 96.2041C-3.49579 94.158 -2.4917 92.6892 10.2169 84.9609Z" fill="#F5F5F5"/>
<path d="M20.4624 88.7454C31.9759 82.4817 52.8149 69.8093 52.8149 69.8093C52.8149 69.8093 53.4686 69.7793 53.9116 70.584C53.9116 70.584 34.3433 84.6134 20.8053 91.6339C7.26737 98.6545 2.95132 95.8786 2.95132 95.8786C2.95132 95.8786 12.6568 92.9919 20.4624 88.7454Z" fill="#373737"/>
<path d="M77.9557 -6.25131C79.138 9.6709 72.6682 49.427 72.6682 49.427C72.6682 49.427 71.3039 50.3973 68.7907 50.592C66.1354 50.7976 62.9138 50.4823 62.9138 50.4823C62.9138 50.4823 57.6243 22.3908 58.9967 2.69087C60.369 -17.0091 68.2383 -20.9431 71.7356 -21.2406C75.2329 -21.5381 76.7735 -22.1735 77.9557 -6.25131Z" fill="#373737"/>
<path d="M75.8884 -2.06154C76.2207 12.8189 70.8717 48.5175 70.8717 48.5175C70.8717 48.5175 70.4979 49.162 68.8176 49.1156C67.0423 49.0666 65.0976 49.0519 65.0976 49.0519C65.0976 49.0519 61.3257 19.669 62.8038 1.51409C64.2819 -16.6408 70.1089 -18.6265 72.4479 -18.5866C74.7869 -18.5468 75.5562 -16.942 75.8884 -2.06154Z" fill="#F5F5F5"/>
<path d="M67.4867 4.92715C67.1488 18.04 67.694 42.4414 67.694 42.4414C67.694 42.4414 67.3928 43.0231 66.474 43.0048C66.474 43.0048 64.1173 19.0264 64.813 3.78014C65.5088 -11.4661 70.0737 -13.8197 70.0737 -13.8197C70.0737 -13.8197 67.7158 -3.96273 67.4867 4.92715Z" fill="#373737"/>
<path d="M119.347 102.736C104.982 95.7976 73.8215 70.306 73.8215 70.306C73.8215 70.306 73.664 68.6381 74.7517 66.3622C75.901 63.9576 77.7839 61.3227 77.7839 61.3227C77.7839 61.3227 104.73 70.7871 121.087 81.8293C137.444 92.8715 136.914 101.66 135.424 104.841C133.933 108.021 133.713 109.674 119.347 102.736Z" fill="#373737"/>
<path d="M116.758 98.8456C103.718 91.6912 75.5066 69.2027 75.5066 69.2027C75.5066 69.2027 75.1357 68.5565 76.0152 67.124C76.9445 65.6104 77.9287 63.9329 77.9287 63.9329C77.9287 63.9329 105.233 75.3606 120.2 85.7212C135.168 96.0817 133.975 102.123 132.772 104.13C131.57 106.136 129.797 106 116.758 98.8456Z" fill="#F5F5F5"/>
<path d="M114.909 88.0697C103.734 81.2194 82.3524 69.4883 82.3524 69.4883C82.3524 69.4883 81.9995 68.9366 82.4741 68.1501C82.4741 68.1501 104.395 78.1009 117.237 86.328C130.079 94.5551 129.835 99.6852 129.835 99.6852C129.835 99.6852 122.485 92.7139 114.909 88.0697Z" fill="#373737"/>
<ellipse cx="67.2975" cy="59.9245" rx="16.6157" ry="16.6335" fill="#F5F5F5"/>
<ellipse cx="67.2974" cy="59.9246" rx="12.628" ry="12.6415" fill="#373737"/>
<ellipse cx="67.2975" cy="59.9245" rx="7.31092" ry="7.31875" fill="white"/>
<path d="M29.8359 138H27.6016V133.859L26.0859 134.141L23.1172 138H20.4375L23.2266 134.539L23.9531 133.75C23.7292 133.693 23.4818 133.594 23.2109 133.453C22.9453 133.312 22.6953 133.125 22.4609 132.891C22.2318 132.651 22.0391 132.362 21.8828 132.023C21.7266 131.68 21.6484 131.276 21.6484 130.812C21.6484 130.464 21.6901 130.141 21.7734 129.844C21.862 129.547 21.9818 129.276 22.1328 129.031C22.2839 128.786 22.4661 128.57 22.6797 128.383C22.8932 128.19 23.1302 128.023 23.3906 127.883C23.599 127.768 23.8281 127.672 24.0781 127.594C24.3281 127.516 24.5911 127.453 24.8672 127.406C25.1484 127.354 25.4349 127.318 25.7266 127.297C26.0234 127.271 26.3203 127.258 26.6172 127.258C26.7995 127.258 27.0234 127.26 27.2891 127.266C27.5547 127.271 27.8359 127.284 28.1328 127.305C28.4297 127.326 28.7266 127.354 29.0234 127.391C29.3203 127.422 29.5911 127.464 29.8359 127.516V138ZM26.25 129.227C25.9583 129.227 25.6771 129.247 25.4062 129.289C25.1406 129.326 24.9089 129.404 24.7109 129.523C24.513 129.643 24.349 129.802 24.2188 130C24.0885 130.193 24.0234 130.448 24.0234 130.766C24.0234 131.068 24.0859 131.328 24.2109 131.547C24.3359 131.76 24.5052 131.93 24.7188 132.055C24.9375 132.185 25.1875 132.276 25.4688 132.328C25.75 132.375 26.0469 132.398 26.3594 132.398H27.6016V129.281C27.5391 129.271 27.4531 129.263 27.3438 129.258C27.2344 129.247 27.1146 129.242 26.9844 129.242C26.8542 129.237 26.724 129.234 26.5938 129.234C26.4635 129.229 26.349 129.227 26.25 129.227ZM33.3641 132.703H37.4891V134.578H33.3641V132.703ZM47.2594 134.68L47.3219 133.172H47.2984L46.525 134.336L45.0484 136.68H44.3609L42.7359 134.336L42.0797 133.172H42.0484L42.0953 134.664V138H40.3687V130.688H42.4234L44.2359 133.422L44.7906 134.336H44.8062L45.3687 133.375L47.0641 130.688H49.1109V138H47.2594V134.68ZM51.6469 134.352C51.6469 133.784 51.7224 133.263 51.8734 132.789C52.0297 132.315 52.2563 131.909 52.5531 131.57C52.8552 131.227 53.225 130.961 53.6625 130.773C54.1052 130.581 54.613 130.484 55.1859 130.484C55.7693 130.484 56.2823 130.583 56.725 130.781C57.1677 130.974 57.5349 131.245 57.8266 131.594C58.1182 131.938 58.337 132.346 58.4828 132.82C58.6339 133.289 58.7094 133.799 58.7094 134.352C58.7094 134.904 58.6339 135.417 58.4828 135.891C58.337 136.359 58.1182 136.768 57.8266 137.117C57.5349 137.461 57.1677 137.732 56.725 137.93C56.2823 138.122 55.7693 138.219 55.1859 138.219C54.613 138.219 54.1052 138.125 53.6625 137.938C53.225 137.745 52.8552 137.479 52.5531 137.141C52.2563 136.797 52.0297 136.388 51.8734 135.914C51.7224 135.44 51.6469 134.919 51.6469 134.352ZM53.6547 134.352C53.6547 134.742 53.6911 135.081 53.7641 135.367C53.837 135.648 53.9385 135.88 54.0688 136.062C54.2042 136.24 54.3656 136.372 54.5531 136.461C54.7406 136.544 54.9516 136.586 55.1859 136.586C55.462 136.586 55.6964 136.531 55.8891 136.422C56.0818 136.307 56.238 136.151 56.3578 135.953C56.4828 135.755 56.574 135.521 56.6313 135.25C56.6885 134.974 56.7172 134.674 56.7172 134.352C56.7172 134.029 56.6885 133.732 56.6313 133.461C56.574 133.185 56.4828 132.948 56.3578 132.75C56.238 132.552 56.0818 132.398 55.8891 132.289C55.6964 132.174 55.462 132.117 55.1859 132.117C54.9516 132.117 54.7406 132.161 54.5531 132.25C54.3656 132.333 54.2042 132.466 54.0688 132.648C53.9385 132.826 53.837 133.057 53.7641 133.344C53.6911 133.625 53.6547 133.961 53.6547 134.352ZM67.925 139.664H66.5656L66.3156 138H61.675L61.4094 139.664H60.0422V136.273H60.8391C60.9849 135.977 61.1125 135.654 61.2219 135.305C61.3312 134.951 61.4198 134.552 61.4875 134.109C61.5604 133.661 61.6125 133.159 61.6437 132.602C61.6802 132.039 61.6984 131.401 61.6984 130.688H66.9406V136.273H67.925V139.664ZM65.0031 136.367V132.312H63.3703C63.3547 132.531 63.3391 132.802 63.3234 133.125C63.3078 133.448 63.2792 133.794 63.2375 134.164C63.1958 134.534 63.1333 134.911 63.05 135.297C62.9719 135.677 62.8625 136.034 62.7219 136.367H65.0031ZM75.6406 137.531C75.3646 137.74 75.013 137.904 74.5859 138.023C74.1589 138.148 73.6771 138.211 73.1406 138.211C72.6094 138.211 72.138 138.143 71.7266 138.008C71.3203 137.878 70.9714 137.672 70.6797 137.391C70.3359 137.052 70.0807 136.62 69.9141 136.094C69.7526 135.568 69.6719 135 69.6719 134.391C69.6719 133.76 69.763 133.198 69.9453 132.703C70.1328 132.208 70.3698 131.797 70.6562 131.469C70.9479 131.135 71.2995 130.888 71.7109 130.727C72.1276 130.565 72.5807 130.484 73.0703 130.484C73.5286 130.484 73.9323 130.555 74.2812 130.695C74.6302 130.831 74.9219 131.026 75.1562 131.281C75.3958 131.536 75.5755 131.849 75.6953 132.219C75.8151 132.589 75.875 133.003 75.875 133.461C75.875 133.69 75.862 133.932 75.8359 134.188C75.8151 134.443 75.7839 134.667 75.7422 134.859H71.6562C71.6562 135.115 71.6823 135.359 71.7344 135.594C71.7917 135.823 71.888 136.023 72.0234 136.195C72.1589 136.372 72.3411 136.497 72.5703 136.57C72.7995 136.643 73.0547 136.68 73.3359 136.68C73.6849 136.68 73.9974 136.625 74.2734 136.516C74.5547 136.406 74.7917 136.284 74.9844 136.148L75.6406 137.531ZM72.9609 132.016C72.7109 132.016 72.5026 132.062 72.3359 132.156C72.1745 132.25 72.0443 132.375 71.9453 132.531C71.8464 132.682 71.7734 132.859 71.7266 133.062C71.6849 133.26 71.6615 133.464 71.6562 133.672H74.0547C74.0703 133.516 74.0781 133.372 74.0781 133.242C74.0677 132.872 73.9661 132.576 73.7734 132.352C73.5859 132.128 73.3151 132.016 72.9609 132.016ZM83.3797 132.422H81.5203C81.4891 133.198 81.4292 133.93 81.3406 134.617C81.2521 135.305 81.1115 135.906 80.9188 136.422C80.726 136.932 80.4682 137.336 80.1453 137.633C79.8276 137.93 79.4188 138.078 78.9188 138.078C78.3354 138.078 77.9188 138.016 77.6688 137.891L77.95 136.164C78.1063 136.211 78.2521 136.234 78.3875 136.234C78.6063 136.234 78.799 136.156 78.9656 136C79.1375 135.839 79.2781 135.552 79.3875 135.141C79.4396 134.938 79.4891 134.698 79.5359 134.422C79.5828 134.141 79.6219 133.818 79.6531 133.453C79.6896 133.089 79.7208 132.677 79.7469 132.219C79.7781 131.76 79.8016 131.25 79.8172 130.688H85.3172V138H83.3797V132.422ZM93.7906 134.703L93.8453 133.695L93.0016 134.688L90.0406 138H88.8688V130.688H90.8141V134.133L90.7828 135.133L91.6031 134.133L94.5719 130.688H95.7438V138H93.7906V134.703ZM104.827 137.508C104.67 137.617 104.496 137.716 104.303 137.805C104.116 137.888 103.912 137.958 103.694 138.016C103.48 138.078 103.256 138.125 103.022 138.156C102.787 138.193 102.553 138.211 102.319 138.211C101.694 138.211 101.16 138.117 100.717 137.93C100.274 137.742 99.9125 137.479 99.6312 137.141C99.35 136.797 99.1443 136.391 99.0141 135.922C98.8839 135.448 98.8187 134.924 98.8187 134.352C98.8187 133.742 98.9099 133.203 99.0922 132.734C99.2745 132.26 99.5167 131.852 99.8187 131.508C100.121 131.164 100.501 130.909 100.959 130.742C101.418 130.57 101.933 130.484 102.506 130.484C103.027 130.484 103.475 130.539 103.85 130.648C104.225 130.758 104.551 130.88 104.827 131.016L104.358 132.578C104.108 132.479 103.853 132.393 103.592 132.32C103.337 132.242 103.051 132.203 102.733 132.203C102.446 132.203 102.186 132.242 101.952 132.32C101.722 132.398 101.524 132.521 101.358 132.688C101.186 132.865 101.053 133.091 100.959 133.367C100.866 133.643 100.819 133.971 100.819 134.352C100.819 134.654 100.853 134.935 100.92 135.195C100.988 135.456 101.095 135.682 101.241 135.875C101.392 136.062 101.582 136.211 101.811 136.32C102.045 136.43 102.327 136.484 102.655 136.484C103.019 136.484 103.347 136.438 103.639 136.344C103.936 136.245 104.186 136.143 104.389 136.039L104.827 137.508ZM113.933 132.422H111.37V138H109.339V132.422H106.777V130.688H113.933V132.422Z" fill="#373737"/>
<path d="M237.078 95.1367C237.422 95.0742 237.793 95.0273 238.191 94.9961C238.594 94.9609 239.002 94.9434 239.416 94.9434C239.639 94.9434 239.865 94.9551 240.096 94.9785C240.33 94.998 240.559 95.0332 240.781 95.084C241.004 95.1309 241.215 95.1973 241.414 95.2832C241.613 95.3652 241.793 95.4688 241.953 95.5938C242.223 95.8047 242.439 96.0762 242.604 96.4082C242.768 96.7402 242.85 97.1367 242.85 97.5977C242.85 98.0898 242.758 98.5117 242.574 98.8633C242.391 99.2148 242.145 99.502 241.836 99.7246C241.531 99.9473 241.18 100.111 240.781 100.217C240.387 100.318 239.979 100.369 239.557 100.369C239.518 100.369 239.461 100.369 239.387 100.369C239.316 100.365 239.242 100.361 239.164 100.357C239.086 100.354 239.01 100.35 238.936 100.346C238.861 100.338 238.803 100.33 238.76 100.322V103H237.078V95.1367ZM239.521 96.4199C239.357 96.4199 239.211 96.4258 239.082 96.4375C238.957 96.4453 238.85 96.457 238.76 96.4727V98.834C238.791 98.8418 238.836 98.8496 238.895 98.8574C238.957 98.8652 239.021 98.873 239.088 98.8809C239.154 98.8848 239.219 98.8887 239.281 98.8926C239.344 98.8926 239.393 98.8926 239.428 98.8926C239.65 98.8926 239.859 98.875 240.055 98.8398C240.254 98.8008 240.428 98.7344 240.576 98.6406C240.725 98.543 240.842 98.4141 240.928 98.2539C241.018 98.0898 241.062 97.8828 241.062 97.6328C241.062 97.4023 241.021 97.209 240.939 97.0527C240.861 96.8965 240.752 96.7715 240.611 96.6777C240.475 96.584 240.312 96.5176 240.125 96.4785C239.938 96.4395 239.736 96.4199 239.521 96.4199ZM248.115 98.4004L248.513 99.291H248.584L248.964 98.3535L250.664 95.0547H252.421L249.867 99.8887C249.773 100.068 249.662 100.273 249.533 100.504C249.404 100.734 249.273 100.963 249.14 101.189C249.007 101.416 248.879 101.627 248.754 101.822C248.632 102.014 248.529 102.16 248.443 102.262C248.213 102.539 247.964 102.744 247.699 102.877C247.437 103.01 247.125 103.076 246.761 103.076C246.527 103.076 246.298 103.047 246.076 102.988C245.853 102.926 245.66 102.85 245.496 102.76L245.918 101.406C246.05 101.465 246.187 101.514 246.328 101.553C246.472 101.588 246.609 101.605 246.738 101.605C246.937 101.605 247.123 101.541 247.295 101.412C247.466 101.283 247.607 101.082 247.716 100.809L244.312 95.0547H246.281L248.115 98.4004ZM254.874 95.0547H260.312V96.5312H256.556V98.0605C256.626 98.0488 256.712 98.0391 256.814 98.0312C256.919 98.0195 257.029 98.0098 257.142 98.002C257.255 97.9941 257.368 97.9883 257.482 97.9844C257.599 97.9766 257.706 97.9727 257.804 97.9727C258.265 97.9727 258.689 98.0215 259.075 98.1191C259.466 98.2129 259.8 98.3633 260.077 98.5703C260.359 98.7734 260.577 99.0391 260.734 99.3672C260.89 99.6914 260.968 100.084 260.968 100.545C260.968 100.99 260.884 101.375 260.716 101.699C260.552 102.02 260.32 102.285 260.019 102.496C259.718 102.707 259.355 102.863 258.929 102.965C258.503 103.062 258.03 103.111 257.511 103.111C257.37 103.111 257.187 103.107 256.96 103.1C256.737 103.096 256.501 103.086 256.251 103.07C256.001 103.055 255.753 103.035 255.507 103.012C255.265 102.988 255.054 102.959 254.874 102.924V95.0547ZM257.587 101.752C257.798 101.752 257.999 101.73 258.191 101.688C258.386 101.645 258.558 101.576 258.706 101.482C258.855 101.385 258.972 101.262 259.058 101.113C259.148 100.961 259.193 100.777 259.193 100.562C259.193 100.312 259.146 100.109 259.052 99.9531C258.962 99.793 258.839 99.668 258.683 99.5781C258.527 99.4844 258.343 99.4199 258.132 99.3848C257.925 99.3496 257.704 99.332 257.47 99.332C257.396 99.332 257.316 99.3359 257.23 99.3438C257.144 99.3477 257.06 99.3535 256.978 99.3613C256.896 99.3691 256.818 99.3789 256.743 99.3906C256.669 99.3984 256.607 99.4062 256.556 99.4141V101.693C256.603 101.701 256.665 101.709 256.743 101.717C256.825 101.725 256.913 101.732 257.007 101.74C257.105 101.744 257.202 101.748 257.3 101.752C257.402 101.752 257.497 101.752 257.587 101.752ZM268.266 96.5312H266.18C266.141 97.2539 266.096 97.9043 266.046 98.4824C265.999 99.0605 265.934 99.5801 265.852 100.041C265.774 100.498 265.673 100.906 265.548 101.266C265.427 101.621 265.274 101.939 265.091 102.221C264.966 102.393 264.827 102.535 264.675 102.648C264.526 102.762 264.374 102.852 264.218 102.918C264.065 102.98 263.913 103.023 263.761 103.047C263.612 103.074 263.473 103.088 263.345 103.088C263.188 103.088 263.044 103.072 262.911 103.041C262.778 103.014 262.649 102.971 262.524 102.912L262.706 101.506C262.788 101.533 262.886 101.547 262.999 101.547C263.128 101.547 263.257 101.518 263.386 101.459C263.514 101.396 263.628 101.297 263.725 101.16C263.846 100.996 263.956 100.758 264.054 100.445C264.155 100.133 264.243 99.7305 264.317 99.2383C264.391 98.7461 264.452 98.1562 264.499 97.4688C264.546 96.7773 264.577 95.9727 264.593 95.0547H269.942V103H268.266V96.5312ZM273.245 95.0547H279.063V96.5312H274.926V98.2598H278.741V99.7305H274.926V101.523H279.116V103H273.245V95.0547ZM287.334 98.6172L287.41 97.668H287.369L286.789 98.6113L283.391 103H282.148V95.0547H283.824V99.332L283.725 100.334H283.783L284.398 99.3555L287.756 95.0547H289.021V103H287.334V98.6172ZM284.908 92.7578C284.951 92.9922 285.051 93.1602 285.207 93.2617C285.367 93.3594 285.574 93.4082 285.828 93.4082C286.375 93.4082 286.682 93.1953 286.748 92.7695L288.125 92.9629C288.031 93.4551 287.791 93.8105 287.404 94.0293C287.021 94.2441 286.492 94.3516 285.816 94.3516C285.484 94.3516 285.178 94.3301 284.896 94.2871C284.619 94.2441 284.375 94.1699 284.164 94.0645C283.953 93.959 283.781 93.8223 283.648 93.6543C283.516 93.4824 283.43 93.2637 283.391 92.998L284.908 92.7578Z" fill="#F5F5F5"/>
<path d="M205.734 77.8398C206.607 77.8398 207.362 77.7292 208 77.5078C208.651 77.2734 209.178 76.9609 209.582 76.5703C209.999 76.1667 210.305 75.6979 210.5 75.1641C210.708 74.6172 210.812 74.0247 210.812 73.3867C210.812 72.0195 210.292 70.9909 209.25 70.3008C208.221 69.5977 206.652 69.2982 204.543 69.4023L201.262 69.5586V55.5156H214.816V60.4375H205.871V65.1445L207.59 64.9688C208.918 65.0208 210.109 65.2617 211.164 65.6914C212.219 66.1081 213.111 66.681 213.84 67.4102C214.582 68.1393 215.148 69.0182 215.539 70.0469C215.93 71.0755 216.125 72.2214 216.125 73.4844C216.125 74.9818 215.871 76.2969 215.363 77.4297C214.868 78.5495 214.165 79.487 213.254 80.2422C212.355 80.9974 211.275 81.5703 210.012 81.9609C208.749 82.3385 207.349 82.5273 205.812 82.5273C204.562 82.5273 203.41 82.4102 202.355 82.1758C201.301 81.9544 200.396 81.681 199.641 81.3555L201.086 76.9414C201.398 77.0586 201.711 77.1693 202.023 77.2734C202.349 77.3776 202.694 77.4753 203.059 77.5664C203.423 77.6445 203.82 77.7096 204.25 77.7617C204.693 77.8138 205.188 77.8398 205.734 77.8398ZM226.917 68.7773C226.917 64.2721 227.627 60.8542 229.046 58.5234C230.478 56.1797 232.646 55.0078 235.55 55.0078C238.454 55.0078 240.615 56.1797 242.034 58.5234C243.467 60.8542 244.183 64.2721 244.183 68.7773C244.183 73.2826 243.467 76.707 242.034 79.0508C240.615 81.3815 238.454 82.5469 235.55 82.5469C232.646 82.5469 230.478 81.3815 229.046 79.0508C227.627 76.707 226.917 73.2826 226.917 68.7773ZM238.734 68.7773C238.734 67.2539 238.701 65.9128 238.636 64.7539C238.571 63.582 238.421 62.6055 238.187 61.8242C237.965 61.0299 237.646 60.431 237.23 60.0273C236.813 59.6237 236.253 59.4219 235.55 59.4219C234.847 59.4219 234.28 59.6237 233.851 60.0273C233.434 60.431 233.115 61.0299 232.894 61.8242C232.672 62.6055 232.529 63.582 232.464 64.7539C232.399 65.9128 232.366 67.2539 232.366 68.7773C232.366 70.3008 232.399 71.6484 232.464 72.8203C232.529 73.9792 232.672 74.9557 232.894 75.75C233.128 76.5312 233.454 77.1237 233.87 77.5273C234.287 77.931 234.847 78.1328 235.55 78.1328C236.253 78.1328 236.813 77.931 237.23 77.5273C237.659 77.1237 237.985 76.5312 238.206 75.75C238.428 74.9557 238.571 73.9792 238.636 72.8203C238.701 71.6484 238.734 70.3008 238.734 68.7773ZM249.917 68.7773C249.917 64.2721 250.627 60.8542 252.046 58.5234C253.478 56.1797 255.646 55.0078 258.55 55.0078C261.454 55.0078 263.615 56.1797 265.034 58.5234C266.467 60.8542 267.183 64.2721 267.183 68.7773C267.183 73.2826 266.467 76.707 265.034 79.0508C263.615 81.3815 261.454 82.5469 258.55 82.5469C255.646 82.5469 253.478 81.3815 252.046 79.0508C250.627 76.707 249.917 73.2826 249.917 68.7773ZM261.734 68.7773C261.734 67.2539 261.701 65.9128 261.636 64.7539C261.571 63.582 261.421 62.6055 261.187 61.8242C260.965 61.0299 260.646 60.431 260.23 60.0273C259.813 59.6237 259.253 59.4219 258.55 59.4219C257.847 59.4219 257.28 59.6237 256.851 60.0273C256.434 60.431 256.115 61.0299 255.894 61.8242C255.672 62.6055 255.529 63.582 255.464 64.7539C255.399 65.9128 255.366 67.2539 255.366 68.7773C255.366 70.3008 255.399 71.6484 255.464 72.8203C255.529 73.9792 255.672 74.9557 255.894 75.75C256.128 76.5312 256.454 77.1237 256.87 77.5273C257.287 77.931 257.847 78.1328 258.55 78.1328C259.253 78.1328 259.813 77.931 260.23 77.5273C260.659 77.1237 260.985 76.5312 261.206 75.75C261.428 74.9557 261.571 73.9792 261.636 72.8203C261.701 71.6484 261.734 70.3008 261.734 68.7773ZM272.917 68.7773C272.917 64.2721 273.627 60.8542 275.046 58.5234C276.478 56.1797 278.646 55.0078 281.55 55.0078C284.454 55.0078 286.615 56.1797 288.034 58.5234C289.467 60.8542 290.183 64.2721 290.183 68.7773C290.183 73.2826 289.467 76.707 288.034 79.0508C286.615 81.3815 284.454 82.5469 281.55 82.5469C278.646 82.5469 276.478 81.3815 275.046 79.0508C273.627 76.707 272.917 73.2826 272.917 68.7773ZM284.734 68.7773C284.734 67.2539 284.701 65.9128 284.636 64.7539C284.571 63.582 284.421 62.6055 284.187 61.8242C283.965 61.0299 283.646 60.431 283.23 60.0273C282.813 59.6237 282.253 59.4219 281.55 59.4219C280.847 59.4219 280.28 59.6237 279.851 60.0273C279.434 60.431 279.115 61.0299 278.894 61.8242C278.672 62.6055 278.529 63.582 278.464 64.7539C278.399 65.9128 278.366 67.2539 278.366 68.7773C278.366 70.3008 278.399 71.6484 278.464 72.8203C278.529 73.9792 278.672 74.9557 278.894 75.75C279.128 76.5312 279.454 77.1237 279.87 77.5273C280.287 77.931 280.847 78.1328 281.55 78.1328C282.253 78.1328 282.813 77.931 283.23 77.5273C283.659 77.1237 283.985 76.5312 284.206 75.75C284.428 74.9557 284.571 73.9792 284.636 72.8203C284.701 71.6484 284.734 70.3008 284.734 68.7773Z" fill="#F5F5F5"/>
<path d="M184.691 137.044C184.314 137.261 183.924 137.446 183.522 137.601C183.127 137.75 182.734 137.873 182.344 137.972C181.961 138.071 181.59 138.142 181.231 138.186C180.878 138.229 180.554 138.25 180.257 138.25C179.849 138.25 179.422 138.232 178.977 138.195C178.531 138.164 178.089 138.099 177.65 138C177.211 137.895 176.784 137.75 176.37 137.564C175.961 137.378 175.584 137.134 175.238 136.831C174.922 136.559 174.635 136.25 174.375 135.903C174.115 135.557 173.893 135.174 173.707 134.753C173.521 134.326 173.376 133.859 173.271 133.352C173.172 132.845 173.123 132.291 173.123 131.691C173.123 130.745 173.28 129.876 173.596 129.084C173.917 128.293 174.4 127.578 175.043 126.941C175.352 126.638 175.695 126.375 176.073 126.153C176.45 125.93 176.852 125.748 177.279 125.605C177.706 125.463 178.151 125.358 178.615 125.29C179.085 125.216 179.564 125.179 180.053 125.179C180.838 125.179 181.596 125.262 182.326 125.429C183.056 125.59 183.782 125.847 184.506 126.199L183.736 128.463C183.148 128.147 182.558 127.909 181.964 127.749C181.376 127.588 180.773 127.507 180.155 127.507C179.592 127.507 179.048 127.578 178.522 127.721C177.996 127.863 177.532 128.129 177.13 128.519C176.772 128.871 176.484 129.319 176.268 129.864C176.051 130.408 175.943 131.017 175.943 131.691C175.943 132.396 176.054 133.037 176.277 133.612C176.506 134.187 176.824 134.645 177.232 134.985C177.467 135.183 177.702 135.344 177.938 135.467C178.179 135.585 178.429 135.678 178.689 135.746C178.949 135.807 179.224 135.851 179.515 135.875C179.812 135.9 180.13 135.913 180.47 135.913C180.767 135.913 181.067 135.888 181.37 135.838C181.673 135.783 181.973 135.708 182.27 135.616C182.573 135.523 182.864 135.415 183.142 135.291C183.427 135.161 183.693 135.022 183.94 134.874L184.691 137.044ZM195.041 137.443C194.713 137.691 194.296 137.886 193.789 138.028C193.282 138.176 192.71 138.25 192.072 138.25C191.442 138.25 190.882 138.17 190.393 138.009C189.911 137.855 189.496 137.61 189.15 137.276C188.742 136.874 188.439 136.361 188.241 135.736C188.049 135.112 187.953 134.438 187.953 133.714C187.953 132.965 188.062 132.298 188.278 131.71C188.501 131.122 188.782 130.634 189.122 130.244C189.469 129.848 189.886 129.555 190.375 129.363C190.869 129.171 191.408 129.075 191.989 129.075C192.533 129.075 193.013 129.159 193.427 129.326C193.841 129.486 194.188 129.718 194.466 130.021C194.751 130.325 194.964 130.696 195.106 131.135C195.248 131.574 195.32 132.066 195.32 132.61C195.32 132.882 195.304 133.17 195.273 133.473C195.248 133.776 195.211 134.042 195.162 134.271H190.31C190.31 134.574 190.341 134.864 190.403 135.143C190.471 135.415 190.585 135.653 190.746 135.857C190.907 136.067 191.123 136.216 191.395 136.302C191.667 136.389 191.97 136.432 192.304 136.432C192.719 136.432 193.09 136.367 193.418 136.237C193.752 136.107 194.033 135.962 194.262 135.801L195.041 137.443ZM191.859 130.894C191.562 130.894 191.315 130.949 191.117 131.061C190.925 131.172 190.771 131.32 190.653 131.506C190.536 131.685 190.449 131.896 190.393 132.137C190.344 132.372 190.316 132.613 190.31 132.86H193.158C193.176 132.675 193.186 132.505 193.186 132.35C193.173 131.911 193.053 131.558 192.824 131.292C192.601 131.027 192.28 130.894 191.859 130.894ZM198.656 129.316H200.307L200.595 130.393H200.789C201.464 129.514 202.419 129.075 203.656 129.075C204.819 129.075 205.666 129.449 206.198 130.198C206.73 130.94 206.996 132.028 206.996 133.463C206.996 134.187 206.909 134.846 206.736 135.439C206.563 136.027 206.303 136.531 205.957 136.952C205.617 137.372 205.187 137.697 204.667 137.926C204.148 138.155 203.542 138.269 202.849 138.269C202.478 138.269 202.141 138.232 201.838 138.158C201.535 138.09 201.244 137.994 200.966 137.87V141.405H198.656V129.316ZM202.933 131.014C202.407 131.014 201.986 131.132 201.671 131.367C201.362 131.596 201.127 131.96 200.966 132.461V135.838C201.157 135.987 201.383 136.107 201.643 136.2C201.903 136.287 202.209 136.33 202.561 136.33C202.933 136.33 203.248 136.284 203.508 136.191C203.767 136.092 203.978 135.934 204.139 135.718C204.306 135.501 204.426 135.22 204.5 134.874C204.575 134.521 204.612 134.088 204.612 133.575C204.612 133.204 204.587 132.863 204.538 132.554C204.488 132.239 204.398 131.97 204.268 131.747C204.145 131.518 203.975 131.339 203.758 131.209C203.542 131.079 203.267 131.014 202.933 131.014ZM217.921 131.376H214.878V138H212.466V131.376H209.423V129.316H217.921V131.376ZM227 134.085L227.065 132.888L226.063 134.066L222.547 138H221.155V129.316H223.465V133.408L223.428 134.595L224.402 133.408L227.928 129.316H229.319V138H227V134.085ZM237.591 138.046C237.306 138.139 237.047 138.195 236.812 138.213C236.583 138.238 236.372 138.25 236.181 138.25C235.655 138.25 235.179 138.158 234.752 137.972C234.331 137.78 233.97 137.496 233.667 137.119C233.37 136.735 233.141 136.259 232.98 135.69C232.819 135.115 232.739 134.441 232.739 133.667C232.739 132.938 232.828 132.291 233.008 131.729C233.187 131.166 233.441 130.696 233.769 130.318C234.103 129.935 234.505 129.647 234.975 129.456C235.445 129.258 235.973 129.159 236.561 129.159C236.716 129.159 236.873 129.168 237.034 129.187C237.201 129.205 237.387 129.233 237.591 129.27V125.225H239.817V129.289C240.102 129.239 240.34 129.205 240.532 129.187C240.723 129.168 240.9 129.159 241.061 129.159C241.685 129.159 242.223 129.258 242.675 129.456C243.132 129.653 243.507 129.938 243.797 130.309C244.094 130.68 244.314 131.135 244.456 131.673C244.598 132.205 244.669 132.808 244.669 133.482C244.669 134.206 244.583 134.861 244.41 135.449C244.236 136.03 243.989 136.531 243.667 136.952C243.346 137.366 242.956 137.688 242.499 137.917C242.041 138.139 241.528 138.25 240.958 138.25C240.761 138.25 240.566 138.232 240.374 138.195C240.182 138.158 239.997 138.111 239.817 138.056V141.405H237.591V138.046ZM239.715 136.339C239.858 136.376 239.997 136.401 240.133 136.414C240.275 136.426 240.436 136.432 240.615 136.432C240.906 136.432 241.16 136.376 241.376 136.265C241.592 136.154 241.772 135.981 241.914 135.746C242.062 135.511 242.171 135.208 242.239 134.836C242.313 134.459 242.35 134.008 242.35 133.482C242.35 133.16 242.322 132.848 242.267 132.545C242.217 132.242 242.121 131.973 241.979 131.738C241.843 131.503 241.657 131.314 241.422 131.172C241.187 131.03 240.884 130.958 240.513 130.958C240.371 130.958 240.241 130.974 240.124 131.005C240.006 131.03 239.87 131.064 239.715 131.107V136.339ZM237.684 131.088C237.498 131.045 237.35 131.014 237.238 130.996C237.127 130.971 236.997 130.958 236.849 130.958C236.558 130.958 236.301 131.008 236.079 131.107C235.856 131.206 235.667 131.364 235.513 131.58C235.358 131.79 235.241 132.069 235.16 132.415C235.086 132.761 235.049 133.179 235.049 133.667C235.049 134.527 235.194 135.204 235.485 135.699C235.776 136.188 236.212 136.432 236.793 136.432C236.935 136.432 237.077 136.42 237.22 136.395C237.368 136.37 237.523 136.336 237.684 136.293V131.088ZM253.952 134.085L254.017 132.888L253.015 134.066L249.499 138H248.108V129.316H250.418V133.408L250.381 134.595L251.355 133.408L254.88 129.316H256.272V138H253.952V134.085ZM263.894 134.4H262.892V138H260.573V129.316H262.892V133.074L263.81 132.758L266.714 129.316H269.386L266.371 132.656L265.722 133.352L266.445 134.094L269.757 138H266.955L263.894 134.4ZM272.527 129.873C272.88 129.718 273.211 129.595 273.52 129.502C273.829 129.409 274.132 129.338 274.429 129.289C274.726 129.233 275.026 129.199 275.329 129.187C275.632 129.168 275.951 129.159 276.285 129.159C276.897 129.159 277.41 129.233 277.825 129.381C278.245 129.524 278.582 129.731 278.836 130.003C279.096 130.269 279.281 130.59 279.393 130.968C279.504 131.345 279.56 131.766 279.56 132.229C279.56 132.792 279.538 133.349 279.495 133.899C279.451 134.45 279.43 135.034 279.43 135.653C279.43 136.08 279.458 136.488 279.513 136.877C279.569 137.267 279.659 137.647 279.782 138.019H277.89L277.519 136.729H277.315C277.148 137.001 276.959 137.23 276.749 137.416C276.538 137.595 276.316 137.737 276.081 137.842C275.846 137.947 275.601 138.022 275.348 138.065C275.1 138.108 274.85 138.13 274.596 138.13C274.2 138.13 273.839 138.071 273.511 137.954C273.189 137.836 272.911 137.666 272.676 137.443C272.447 137.215 272.268 136.939 272.138 136.618C272.014 136.29 271.952 135.916 271.952 135.495C271.952 134.932 272.06 134.456 272.277 134.066C272.493 133.671 272.806 133.355 273.214 133.12C273.523 132.941 273.879 132.814 274.281 132.74C274.689 132.659 275.119 132.619 275.57 132.619C275.645 132.619 275.744 132.622 275.867 132.628C275.997 132.635 276.136 132.647 276.285 132.666C276.433 132.678 276.588 132.7 276.749 132.73C276.916 132.755 277.08 132.786 277.24 132.823C277.253 132.706 277.262 132.601 277.268 132.508C277.281 132.409 277.287 132.316 277.287 132.229C277.287 132.019 277.256 131.846 277.194 131.71C277.138 131.568 277.058 131.447 276.953 131.348C276.848 131.249 276.687 131.169 276.47 131.107C276.254 131.045 275.997 131.014 275.7 131.014C275.441 131.014 275.196 131.033 274.967 131.07C274.739 131.101 274.519 131.144 274.309 131.2C274.105 131.255 273.907 131.32 273.715 131.395C273.523 131.469 273.331 131.546 273.14 131.626L272.527 129.873ZM275.459 136.284C275.669 136.284 275.867 136.253 276.053 136.191C276.245 136.129 276.418 136.046 276.572 135.94C276.733 135.835 276.869 135.715 276.981 135.579C277.098 135.443 277.191 135.303 277.259 135.161V134.187C277.172 134.162 277.073 134.138 276.962 134.113C276.857 134.088 276.742 134.066 276.619 134.048C276.501 134.029 276.381 134.014 276.257 134.001C276.139 133.989 276.028 133.983 275.923 133.983C275.626 133.983 275.376 134.023 275.171 134.104C274.967 134.178 274.803 134.277 274.68 134.4C274.556 134.524 274.466 134.663 274.411 134.818C274.355 134.966 274.327 135.115 274.327 135.263C274.327 135.616 274.42 135.875 274.606 136.042C274.797 136.203 275.082 136.284 275.459 136.284ZM290.503 131.376H287.46V138H285.048V131.376H282.005V129.316H290.503V131.376Z" fill="white"/>
</g>
<rect width="314" height="177" rx="12" stroke="#373737"/>
<defs>
<linearGradient id="paint0_linear" x1="132" y1="-18.5" x2="70" y2="196.5" gradientUnits="userSpaceOnUse">
<stop stop-color="white"/>
<stop offset="1" stop-color="#DCDCDC"/>
</linearGradient>
<clipPath id="clip0">
</clipPath>
</defs>
</svg>
